{"glyphs":{"0":{"ha":949,"x_min":110,"x_max":879,"o":"m 565 1044 q 728 1000 658 1044 q 839 866 799 956 q 879 644 879 776 q 876 579 879 613 q 868 508 874 546 q 779 219 844 335 q 622 44 714 103 q 424 -14 531 -14 q 260 31 331 -14 q 149 162 189 75 q 110 378 110 249 q 113 444 110 410 q 119 515 115 478 q 181 745 139 646 q 282 911 222 844 q 414 1011 342 978 q 565 1044 486 1044 l 565 1044 m 429 71 q 578 117 511 71 q 692 261 644 163 q 763 517 740 360 q 771 597 768 558 q 774 665 774 635 q 717 891 774 821 q 563 961 660 961 q 415 914 483 961 q 297 767 346 867 q 226 507 249 667 q 217 432 221 468 q 214 364 214 396 q 274 140 214 210 q 429 71 333 71 l 429 71 z "},"1":{"ha":631,"x_min":22,"x_max":532,"o":"m 517 86 q 529 74 532 86 l 518 11 q 515 3 517 6 q 507 0 513 0 l 35 0 q 24 3 26 0 q 24 13 22 6 l 32 78 q 35 84 33 82 q 43 86 38 86 l 229 86 q 240 96 239 86 l 354 906 q 353 913 356 911 q 344 913 351 915 l 154 843 q 140 854 138 839 l 147 903 q 151 916 149 911 q 161 924 154 921 l 372 1022 q 392 1030 385 1029 q 411 1031 400 1031 l 463 1031 q 475 1014 476 1031 l 344 94 q 351 86 343 86 l 517 86 l 517 86 z "},"2":{"ha":817,"x_min":22,"x_max":779,"o":"m 417 429 q 549 553 490 493 q 643 674 608 614 q 678 799 678 735 q 651 888 678 853 q 580 942 624 924 q 488 960 536 960 q 349 926 424 960 q 219 821 275 893 q 203 817 213 811 l 144 861 q 141 869 140 864 q 149 882 142 874 q 315 1005 219 965 q 500 1044 411 1044 q 639 1019 575 1044 q 741 940 703 993 q 779 804 779 888 q 743 653 779 722 q 643 520 707 585 q 496 383 579 456 l 174 107 q 167 95 165 100 q 176 90 168 90 l 676 90 q 690 76 693 90 l 682 13 q 678 3 681 6 q 668 0 676 0 l 43 0 q 25 22 22 0 l 31 68 q 35 85 32 78 q 44 101 38 93 q 65 121 51 110 l 417 429 z "},"3":{"ha":881,"x_min":29,"x_max":819,"o":"m 185 893 q 185 914 176 906 q 290 988 238 960 q 399 1031 343 1017 q 513 1044 454 1044 q 738 980 657 1044 q 819 815 819 915 q 791 702 819 754 q 713 611 763 650 q 597 550 663 572 q 590 544 590 549 q 599 538 589 540 q 727 461 675 519 q 779 315 779 403 q 729 149 779 224 q 584 30 679 74 q 356 -14 489 -14 q 209 6 268 -14 q 110 59 150 26 q 36 132 69 92 q 35 147 29 142 l 92 189 q 99 192 96 192 q 104 189 103 192 q 218 98 150 125 q 365 71 286 71 q 524 100 453 71 q 636 183 594 129 q 678 311 678 238 q 642 415 678 374 q 549 478 606 457 q 428 499 492 499 l 301 499 q 289 511 286 499 l 297 571 q 310 581 297 581 l 410 581 q 561 611 492 581 q 673 692 631 642 q 715 807 715 743 q 660 917 715 874 q 511 961 604 961 q 401 945 449 961 q 315 904 353 929 q 242 851 276 879 q 218 854 228 840 l 185 893 l 185 893 z "},"4":{"ha":886,"x_min":56,"x_max":822,"o":"m 635 1021 q 646 1028 640 1026 q 661 1031 651 1031 l 739 1031 q 751 1014 754 1031 l 663 378 q 669 368 661 368 l 806 368 q 818 365 814 368 q 822 354 822 361 l 814 299 q 809 288 813 292 q 797 285 806 285 l 660 285 q 646 272 647 285 l 611 14 q 606 3 610 7 q 592 0 601 0 l 518 0 q 506 17 504 0 l 542 275 q 533 285 544 285 l 71 285 q 57 301 56 285 l 67 364 q 72 381 68 374 q 88 403 76 389 l 635 1021 l 635 1021 m 540 368 q 553 381 551 368 l 624 881 q 606 875 626 900 l 172 385 q 165 372 164 375 q 172 368 167 368 l 540 368 z "},"5":{"ha":901,"x_min":44,"x_max":861,"o":"m 844 1031 q 858 1027 854 1031 q 857 1014 861 1024 l 843 951 q 838 944 842 946 q 826 942 835 942 l 343 942 q 333 938 336 942 q 328 926 331 935 l 254 590 q 256 579 253 582 q 264 579 258 576 q 378 628 315 607 q 518 649 440 649 q 667 622 600 649 q 776 538 735 594 q 817 389 817 481 q 759 178 817 269 q 602 37 701 88 q 378 -14 503 -14 q 252 1 311 -14 q 142 49 193 17 q 50 129 92 81 q 44 142 44 138 q 50 150 44 146 l 100 186 q 109 190 104 192 q 119 182 114 188 q 218 103 160 139 q 367 68 276 68 q 545 108 468 68 q 667 219 622 149 q 711 381 711 290 q 683 486 711 444 q 606 547 654 528 q 497 567 557 567 q 395 553 443 567 q 306 517 347 539 q 229 476 265 496 q 218 474 222 474 q 206 478 214 474 l 156 511 q 148 524 149 518 q 150 540 147 529 l 256 1017 q 263 1028 258 1026 q 281 1031 267 1031 l 844 1031 z "},"6":{"ha":910,"x_min":108,"x_max":850,"o":"m 603 1044 q 687 1033 649 1044 q 756 1005 725 1022 q 809 964 786 988 q 846 914 832 940 q 842 901 850 907 l 779 872 q 758 886 772 867 q 697 940 733 921 q 601 960 660 960 q 415 907 492 960 q 292 764 338 854 q 229 560 246 674 q 228 547 228 553 q 228 539 228 542 q 233 533 228 533 q 244 538 239 533 q 373 588 304 564 q 526 611 442 611 q 690 578 624 611 q 790 488 756 544 q 824 356 824 431 q 793 210 824 276 q 708 92 763 143 q 583 14 654 42 q 432 -14 513 -14 q 257 31 329 -14 q 147 163 185 76 q 108 374 108 250 q 111 438 108 404 q 118 507 114 471 q 207 795 142 675 q 374 980 272 915 q 603 1044 475 1044 l 603 1044 m 515 529 q 426 520 475 529 q 332 496 378 511 q 253 461 286 481 q 214 417 222 443 q 206 343 206 390 q 219 247 206 296 q 259 158 232 199 q 330 92 286 117 q 436 68 374 68 q 578 106 514 68 q 681 208 642 144 q 719 344 719 271 q 667 476 719 424 q 515 529 615 529 l 515 529 z "},"7":{"ha":825,"x_min":142,"x_max":853,"o":"m 838 1031 q 849 1026 846 1031 q 851 1015 853 1022 l 844 972 q 839 950 843 961 q 824 926 835 939 q 688 744 754 843 q 559 542 621 646 q 445 341 497 439 q 357 160 393 243 q 303 19 321 76 q 297 4 301 8 q 283 0 292 0 l 200 0 q 188 7 190 0 q 189 26 186 14 q 267 204 219 103 q 381 424 315 306 q 530 669 446 542 q 714 926 614 797 q 718 938 719 933 q 708 942 717 942 l 154 942 q 144 945 146 942 q 143 957 142 949 l 158 1019 q 165 1028 161 1026 q 175 1031 168 1031 l 838 1031 z "},"8":{"ha":924,"x_min":74,"x_max":849,"o":"m 556 1044 q 710 1015 643 1044 q 813 930 776 985 q 849 797 849 875 q 828 695 849 740 q 776 617 807 650 q 717 562 746 583 q 672 528 688 540 q 665 517 665 522 q 674 508 664 513 q 721 483 694 499 q 770 442 747 467 q 809 381 793 418 q 825 290 825 344 q 793 159 825 217 q 703 63 761 101 q 570 6 646 25 q 407 -14 494 -14 q 230 14 306 -14 q 114 97 154 42 q 74 232 74 151 q 103 357 74 304 q 178 449 132 410 q 275 521 224 489 q 284 531 282 526 q 276 542 286 536 q 222 583 246 563 q 185 635 199 604 q 171 717 171 667 q 222 883 171 810 q 360 1001 274 957 q 556 1044 447 1044 l 556 1044 m 550 963 q 407 931 471 963 q 308 846 343 899 q 272 731 272 793 q 305 641 272 674 q 403 592 338 608 l 542 557 q 605 569 569 550 q 674 624 640 588 q 731 706 708 660 q 754 800 754 753 q 699 918 754 874 q 550 963 644 963 l 550 963 m 414 68 q 576 96 507 68 q 683 173 644 124 q 721 288 721 222 q 688 385 721 346 q 588 442 656 425 l 396 493 q 342 481 379 499 q 266 426 306 463 q 199 340 226 390 q 171 233 171 290 q 235 113 171 158 q 414 68 300 68 l 414 68 z "},"9":{"ha":904,"x_min":90,"x_max":838,"o":"m 349 -14 q 258 -3 299 -14 q 187 26 218 8 q 133 67 156 44 q 97 114 111 89 q 100 129 90 125 l 160 156 q 182 146 172 163 q 248 90 208 108 q 353 71 288 71 q 534 124 458 71 q 655 267 610 176 q 715 471 700 358 q 714 494 718 490 q 699 493 710 497 q 574 442 640 465 q 424 419 508 419 q 262 453 328 419 q 163 544 196 486 q 129 678 129 603 q 160 824 129 757 q 246 941 192 892 q 371 1017 300 990 q 519 1044 442 1044 q 692 999 621 1044 q 800 868 763 954 q 838 658 838 782 q 806 408 838 529 q 713 192 774 288 q 560 42 651 97 q 349 -14 468 -14 l 349 -14 m 433 501 q 524 511 476 501 q 617 539 572 521 q 696 578 663 557 q 735 623 726 596 q 743 693 743 650 q 730 786 743 739 q 690 874 717 833 q 621 938 664 914 q 517 963 578 963 q 376 925 440 963 q 272 825 311 888 q 232 688 232 763 q 285 555 232 608 q 433 501 338 501 l 433 501 z "},"\r":{"ha":301,"x_min":0,"x_max":0,"o":""}," ":{"ha":301,"x_min":0,"x_max":0,"o":""}," ":{"ha":301,"x_min":0,"x_max":0,"o":""},"A":{"ha":994,"x_min":14,"x_max":879,"o":"m 26 0 q 17 6 19 0 q 18 21 14 11 l 522 1015 q 532 1028 526 1025 q 549 1031 538 1031 l 632 1031 q 650 1025 644 1031 q 657 1011 656 1019 l 878 17 q 876 5 879 10 q 865 0 874 0 l 793 0 q 775 15 775 0 l 710 300 q 697 310 708 310 l 276 310 q 258 297 264 310 l 111 10 q 106 1 110 3 q 93 0 101 0 l 26 0 l 26 0 m 679 394 q 690 411 694 394 l 579 903 q 572 915 576 917 q 560 900 567 914 l 308 411 q 305 398 304 401 q 313 394 306 394 l 679 394 z "},"B":{"ha":963,"x_min":93,"x_max":901,"o":"m 107 0 q 97 4 100 0 q 94 17 93 8 l 236 1014 q 254 1031 238 1031 l 557 1031 q 812 972 722 1031 q 901 801 901 914 q 844 629 901 697 q 686 529 788 561 q 678 524 678 528 q 685 517 678 519 q 811 449 765 500 q 857 314 857 399 q 822 165 857 225 q 728 68 788 104 q 592 16 668 32 q 433 0 515 0 l 107 0 l 107 0 m 424 81 q 540 90 482 81 q 645 125 597 100 q 722 195 693 150 q 750 313 750 240 q 718 410 750 374 q 631 464 686 447 q 501 481 575 481 l 283 481 q 269 476 274 481 q 263 464 264 472 l 211 94 q 213 83 210 86 q 222 81 217 81 l 424 81 m 508 561 q 653 587 588 561 q 756 663 718 613 q 794 789 794 713 q 728 911 794 872 q 547 950 663 950 l 347 950 q 335 947 339 950 q 328 935 331 943 l 279 576 q 281 565 278 568 q 289 561 283 561 l 508 561 z "},"C":{"ha":975,"x_min":110,"x_max":946,"o":"m 617 1044 q 783 1005 708 1044 q 901 901 857 965 q 944 760 946 836 q 933 746 946 746 l 856 740 q 843 758 844 740 q 772 905 835 849 q 613 961 710 961 q 459 926 525 961 q 347 831 393 890 q 272 696 300 771 q 230 540 243 621 q 217 382 217 458 q 283 151 217 229 q 488 72 350 72 q 669 122 592 72 q 800 279 746 172 q 817 283 804 288 l 882 264 q 886 244 892 260 q 836 164 865 203 q 769 93 807 125 q 686 37 732 61 q 588 -1 640 13 q 479 -14 536 -14 q 278 35 361 -14 q 152 174 194 83 q 110 393 110 265 q 128 576 110 483 q 184 753 146 669 q 283 903 222 836 q 426 1007 343 969 q 617 1044 508 1044 l 617 1044 z "},"D":{"ha":992,"x_min":93,"x_max":925,"o":"m 113 0 q 99 6 104 0 q 96 21 93 11 l 236 1018 q 242 1028 238 1025 q 254 1031 246 1031 l 442 1031 q 715 986 608 1031 q 874 855 822 942 q 925 638 925 768 q 856 292 925 435 q 648 75 788 150 q 299 0 508 0 l 113 0 l 113 0 m 301 82 q 599 147 486 82 q 763 336 711 211 q 815 640 815 461 q 774 823 815 756 q 647 919 732 890 q 432 947 561 947 l 344 947 q 328 931 329 947 l 213 101 q 215 86 211 90 q 228 82 218 82 l 301 82 z "},"E":{"ha":864,"x_min":93,"x_max":871,"o":"m 236 1017 q 240 1028 238 1026 q 250 1031 242 1031 l 858 1031 q 867 1015 871 1031 l 860 961 q 855 951 858 954 q 842 947 851 947 l 344 947 q 333 944 336 947 q 328 933 331 942 l 278 572 q 278 564 276 567 q 288 561 281 561 l 669 561 q 678 558 676 561 q 678 549 681 556 l 669 490 q 656 479 668 479 l 278 479 q 263 464 264 479 l 211 96 q 219 83 210 83 l 740 83 q 751 81 749 83 q 753 69 754 78 l 746 11 q 742 2 744 4 q 732 0 740 0 l 111 0 q 94 19 93 0 l 236 1017 l 236 1017 z "},"F":{"ha":825,"x_min":93,"x_max":857,"o":"m 236 1015 q 240 1028 238 1026 q 251 1031 243 1031 l 843 1031 q 854 1017 857 1031 l 846 961 q 842 951 844 954 q 831 947 839 947 l 344 947 q 333 944 338 947 q 328 931 329 940 l 276 558 q 277 548 275 551 q 286 544 279 544 l 678 544 q 686 542 683 544 q 689 533 689 540 l 682 476 q 678 466 682 469 q 667 463 675 463 l 275 463 q 265 459 268 463 q 260 446 263 456 l 200 13 q 194 2 197 4 q 182 0 190 0 l 107 0 q 95 4 97 0 q 94 19 93 8 l 236 1015 l 236 1015 z "},"G":{"ha":1021,"x_min":110,"x_max":947,"o":"m 469 -14 q 274 34 356 -14 q 151 173 193 82 q 110 390 110 264 q 142 638 110 519 q 240 847 175 756 q 398 992 304 939 q 614 1044 492 1044 q 783 1006 707 1044 q 903 903 858 967 q 946 765 947 840 q 939 751 946 753 l 856 738 q 848 741 850 736 q 844 757 846 746 q 813 860 843 814 q 732 933 783 906 q 611 961 681 961 q 436 912 510 961 q 314 781 363 863 q 242 595 265 699 q 218 382 218 492 q 284 149 218 228 q 478 71 350 71 q 611 97 553 71 q 712 164 669 122 q 780 254 754 206 q 814 347 806 303 l 828 440 q 814 453 831 453 l 574 453 q 563 464 561 453 l 569 515 q 578 524 571 524 l 921 524 q 931 520 928 524 q 933 510 935 517 l 863 15 q 844 0 861 0 l 817 0 q 799 15 799 0 l 810 153 q 806 160 810 160 q 794 151 801 160 q 718 69 765 107 q 608 8 671 31 q 469 -14 546 -14 l 469 -14 z "},"H":{"ha":1015,"x_min":93,"x_max":964,"o":"m 278 493 q 270 489 274 493 q 265 481 267 485 l 200 14 q 194 3 197 6 q 181 0 190 0 l 110 0 q 97 4 100 0 q 94 18 93 8 l 236 1017 q 240 1028 238 1026 q 250 1031 243 1031 l 328 1031 q 338 1027 335 1031 q 339 1014 342 1024 l 281 592 q 281 580 279 582 q 292 578 283 578 l 782 578 q 793 583 790 578 q 797 594 796 588 l 858 1018 q 862 1028 860 1026 q 871 1031 864 1031 l 949 1031 q 960 1026 957 1031 q 961 1011 964 1022 l 821 15 q 817 3 819 6 q 806 0 814 0 l 735 0 q 720 4 725 0 q 717 18 715 8 l 782 483 q 772 493 783 493 l 278 493 z "},"I":{"ha":393,"x_min":93,"x_max":343,"o":"m 326 1031 q 339 1011 343 1031 l 200 18 q 194 3 197 6 q 178 0 192 0 l 113 0 q 97 5 100 0 q 94 19 93 10 l 236 1017 q 240 1028 238 1026 q 250 1031 243 1031 l 326 1031 z "},"J":{"ha":569,"x_min":11,"x_max":524,"o":"m 410 213 q 372 89 400 140 q 296 12 344 38 q 175 -14 247 -14 q 78 0 117 -14 q 26 18 39 14 q 14 26 17 22 q 13 36 11 31 l 36 100 q 42 107 38 106 q 56 103 46 108 q 99 88 72 97 q 165 79 126 79 q 265 117 233 79 q 308 242 296 154 l 418 1018 q 422 1028 419 1026 q 431 1031 425 1031 l 510 1031 q 521 1011 524 1031 l 410 213 l 410 213 z "},"K":{"ha":958,"x_min":93,"x_max":957,"o":"m 839 18 q 835 0 849 0 l 744 0 q 728 13 732 0 l 474 546 q 467 549 471 553 q 456 540 463 546 l 260 350 q 249 339 253 344 q 243 324 244 333 l 200 14 q 194 3 199 7 q 181 0 190 0 l 111 0 q 97 5 101 0 q 94 18 93 10 l 236 1018 q 240 1028 238 1026 q 249 1031 243 1031 l 326 1031 q 338 1026 333 1031 q 340 1014 342 1022 l 265 479 q 265 473 263 471 q 275 482 268 475 l 836 1021 q 848 1029 842 1028 q 864 1031 854 1031 l 946 1031 q 956 1026 956 1031 q 951 1015 957 1021 l 558 638 q 553 632 556 635 q 551 624 550 629 l 839 18 l 839 18 z "},"L":{"ha":828,"x_min":92,"x_max":726,"o":"m 236 1015 q 253 1031 238 1031 l 329 1031 q 339 1011 342 1031 l 211 97 q 221 83 208 83 l 711 83 q 725 68 726 83 l 717 11 q 713 2 715 4 q 704 0 711 0 l 111 0 q 94 19 92 0 l 236 1015 l 236 1015 z "},"M":{"ha":1243,"x_min":93,"x_max":1190,"o":"m 106 0 q 95 3 97 0 q 96 21 93 7 l 236 1017 q 240 1028 238 1026 q 250 1031 242 1031 l 347 1031 q 358 1028 356 1031 q 363 1018 361 1025 l 581 164 q 588 153 582 151 q 600 168 593 156 l 1057 1018 q 1076 1031 1064 1031 l 1176 1031 q 1189 1014 1190 1031 l 1049 15 q 1044 3 1047 6 q 1032 0 1042 0 l 963 0 q 948 4 953 0 q 944 18 943 8 l 1058 829 q 1058 836 1060 836 q 1054 832 1057 836 l 617 14 q 607 3 611 6 q 592 0 603 0 l 531 0 q 517 3 521 0 q 511 18 514 7 l 308 826 q 305 832 307 832 q 301 826 303 832 l 186 13 q 182 3 185 6 q 171 0 179 0 l 106 0 l 106 0 z "},"N":{"ha":1050,"x_min":93,"x_max":997,"o":"m 983 1031 q 996 1014 997 1031 l 856 13 q 840 0 854 0 l 792 0 q 777 2 783 0 q 765 13 771 4 l 319 831 q 308 840 314 842 q 301 826 303 839 l 188 14 q 183 3 186 6 q 171 0 179 0 l 108 0 q 97 5 100 0 q 94 18 93 10 l 236 1017 q 240 1028 238 1026 q 251 1031 243 1031 l 308 1031 q 323 1028 318 1031 q 332 1017 328 1025 l 769 208 q 783 199 776 197 q 792 214 790 200 l 904 1018 q 909 1028 907 1026 q 918 1031 911 1031 l 983 1031 z "},"O":{"ha":1058,"x_min":110,"x_max":989,"o":"m 479 -14 q 278 32 361 -14 q 153 168 196 78 q 110 386 110 258 q 112 449 110 417 q 119 515 114 482 q 211 804 143 686 q 384 983 279 922 q 621 1044 489 1044 q 819 997 738 1044 q 945 859 901 950 q 989 636 989 768 q 987 574 989 607 q 979 508 985 542 q 888 223 956 339 q 717 47 821 107 q 479 -14 613 -14 l 479 -14 m 485 71 q 743 181 646 71 q 872 517 840 290 q 880 589 878 554 q 882 654 882 624 q 815 885 882 810 q 618 961 749 961 q 359 849 458 961 q 226 507 260 736 q 219 439 221 472 q 217 376 217 406 q 285 146 217 221 q 485 71 353 71 l 485 71 z "},"P":{"ha":949,"x_min":92,"x_max":925,"o":"m 274 440 q 263 436 267 440 q 257 425 258 432 l 200 14 q 194 3 197 6 q 183 0 192 0 l 108 0 q 94 18 92 0 l 236 1014 q 240 1027 238 1024 q 250 1031 242 1031 l 583 1031 q 760 1005 683 1031 q 881 924 838 979 q 925 782 925 869 q 873 594 925 669 q 729 479 821 518 q 518 440 638 440 l 274 440 m 817 785 q 751 913 817 876 q 571 949 685 949 l 346 949 q 334 944 339 949 q 328 932 329 940 l 274 540 q 274 527 272 531 q 283 524 276 524 l 517 524 q 676 553 608 524 q 780 642 743 583 q 817 785 817 700 l 817 785 z "},"Q":{"ha":1058,"x_min":110,"x_max":989,"o":"m 119 517 q 211 806 143 689 q 383 984 279 924 q 619 1044 488 1044 q 819 998 738 1044 q 945 860 901 951 q 989 638 989 769 q 987 575 989 608 q 979 508 985 542 q 888 220 954 332 q 715 46 821 108 q 704 28 703 38 q 728 -14 706 11 q 788 -59 750 -39 q 871 -86 826 -79 q 881 -90 879 -87 q 882 -100 883 -93 l 874 -158 q 865 -169 872 -167 q 840 -171 858 -171 q 769 -156 810 -171 q 686 -104 728 -140 q 611 -6 644 -68 q 590 -1 606 3 q 535 -10 564 -7 q 479 -14 506 -14 q 281 31 364 -14 q 153 167 197 76 q 110 389 110 257 q 112 451 110 418 q 119 517 114 483 l 119 517 m 226 506 q 219 435 221 468 q 217 372 217 401 q 285 144 217 218 q 483 71 353 71 q 742 180 643 71 q 872 517 840 289 q 880 588 878 554 q 882 651 882 622 q 816 883 882 806 q 617 961 750 961 q 357 847 456 961 q 226 506 258 732 l 226 506 z "},"R":{"ha":957,"x_min":93,"x_max":928,"o":"m 807 21 q 792 0 814 0 l 715 0 q 703 5 708 0 q 697 18 699 10 l 572 467 q 566 476 571 474 q 549 479 561 479 l 281 479 q 263 463 264 479 l 200 17 q 194 3 197 6 q 179 0 190 0 l 111 0 q 97 6 101 0 q 94 18 93 11 l 236 1017 q 240 1028 238 1026 q 250 1031 242 1031 l 625 1031 q 849 974 769 1031 q 928 810 928 918 q 897 669 928 732 q 813 563 867 607 q 685 499 758 518 q 673 492 676 496 q 672 486 669 489 l 807 21 l 807 21 m 517 560 q 676 584 608 560 q 780 662 743 608 q 817 800 817 715 q 766 913 817 876 q 614 950 715 950 l 347 950 q 329 936 332 950 l 278 572 q 278 563 276 565 q 286 560 281 560 l 517 560 l 517 560 z "},"S":{"ha":876,"x_min":47,"x_max":846,"o":"m 764 856 q 674 931 731 900 q 533 961 617 961 q 396 934 457 961 q 300 858 335 907 q 265 743 265 810 q 276 693 265 719 q 317 642 288 667 q 400 596 347 617 l 588 526 q 738 434 692 489 q 783 303 783 379 q 731 129 783 200 q 590 22 679 58 q 389 -14 500 -14 q 182 31 265 -14 q 50 164 99 75 q 48 179 47 172 q 60 192 49 186 l 97 215 q 115 222 107 224 q 129 210 122 219 q 195 132 161 164 q 276 84 229 100 q 396 68 322 68 q 542 91 479 68 q 642 162 606 114 q 679 285 679 210 q 649 365 679 329 q 535 433 618 400 l 335 510 q 202 605 240 546 q 164 728 164 664 q 193 859 164 801 q 274 958 222 917 q 393 1022 325 1000 q 539 1044 461 1044 q 664 1027 608 1044 q 763 978 719 1010 q 839 906 806 947 q 846 892 846 897 q 840 883 846 888 l 785 843 q 776 844 781 842 q 764 856 772 846 l 764 856 z "},"T":{"ha":883,"x_min":143,"x_max":915,"o":"m 153 1019 q 156 1028 154 1026 q 165 1031 158 1031 l 904 1031 q 914 1027 913 1031 q 914 1018 915 1024 l 906 960 q 901 951 904 954 q 889 947 897 947 l 604 947 q 591 944 594 947 q 586 932 588 942 l 457 15 q 453 3 456 6 q 442 0 450 0 l 365 0 q 353 4 356 0 q 351 18 350 8 l 481 931 q 465 947 482 947 l 157 947 q 144 961 143 947 l 153 1019 z "},"U":{"ha":981,"x_min":122,"x_max":942,"o":"m 844 331 q 777 135 828 213 q 642 22 726 58 q 440 -14 558 -14 q 200 56 278 -14 q 122 265 122 125 q 124 310 122 286 q 129 358 126 333 l 222 1015 q 226 1028 224 1025 q 236 1031 229 1031 l 311 1031 q 324 1026 319 1031 q 325 1011 328 1021 l 229 325 q 226 294 228 308 q 225 265 225 279 q 281 118 225 165 q 450 71 338 71 q 603 99 539 71 q 706 187 667 128 q 757 335 744 246 l 853 1018 q 857 1028 854 1026 q 865 1031 860 1031 l 928 1031 q 939 1026 936 1031 q 940 1013 942 1021 l 844 331 l 844 331 z "},"V":{"ha":972,"x_min":157,"x_max":1006,"o":"m 990 1031 q 999 1014 1006 1031 l 499 17 q 488 3 493 6 q 471 0 483 0 l 397 0 q 378 3 385 0 q 369 17 372 7 l 158 1015 q 172 1031 157 1031 l 243 1031 q 261 1014 260 1031 l 446 138 q 463 135 450 113 l 903 1019 q 910 1028 906 1026 q 921 1031 914 1031 l 990 1031 l 990 1031 z "},"W":{"ha":1438,"x_min":160,"x_max":1464,"o":"m 1449 1031 q 1462 1025 1460 1031 q 1461 1008 1464 1019 l 1033 17 q 1024 3 1029 6 q 1007 0 1019 0 l 938 0 q 919 4 926 0 q 911 18 913 8 l 793 847 q 790 853 792 853 q 785 847 788 853 l 428 17 q 419 3 424 6 q 400 0 414 0 l 331 0 q 304 18 307 0 l 163 1013 q 164 1026 160 1022 q 178 1031 168 1031 l 244 1031 q 259 1026 256 1031 q 264 1014 263 1022 l 385 163 q 391 150 388 150 q 400 163 394 150 l 765 1019 q 772 1028 768 1026 q 788 1031 776 1031 l 849 1031 q 863 1026 860 1031 q 868 1014 867 1022 l 989 158 q 995 148 992 147 q 1004 163 999 149 l 1369 1019 q 1377 1028 1372 1026 q 1390 1031 1382 1031 l 1449 1031 l 1449 1031 z "},"X":{"ha":940,"x_min":13,"x_max":947,"o":"m 818 21 q 824 4 825 8 q 811 0 822 0 l 729 0 q 719 2 724 0 q 713 10 715 4 l 490 429 q 479 441 485 440 q 467 432 474 442 l 122 7 q 115 1 119 3 q 104 0 110 0 l 24 0 q 13 6 14 0 q 22 25 13 11 l 418 513 q 427 528 425 521 q 425 546 429 536 l 174 1017 q 173 1026 172 1022 q 181 1031 174 1031 l 268 1031 q 280 1028 276 1031 q 286 1019 283 1026 l 492 625 q 513 625 501 610 l 835 1024 q 842 1029 839 1028 q 853 1031 846 1031 l 939 1031 q 947 1024 947 1031 q 943 1014 947 1018 l 558 540 q 551 529 551 533 q 554 519 551 525 l 818 21 l 818 21 z "},"Y":{"ha":917,"x_min":153,"x_max":950,"o":"m 938 1031 q 948 1025 946 1031 q 944 1011 950 1019 l 535 454 q 526 440 529 447 q 522 415 524 432 l 465 19 q 458 3 464 7 q 439 0 453 0 l 375 0 q 362 6 364 0 q 361 19 360 11 l 415 411 q 417 429 418 424 q 414 443 417 435 l 156 1013 q 154 1026 153 1021 q 168 1031 156 1031 l 240 1031 q 258 1026 253 1031 q 265 1013 263 1022 l 471 547 q 501 547 483 521 l 840 1018 q 851 1028 847 1026 q 868 1031 856 1031 l 938 1031 l 938 1031 z "},"Z":{"ha":860,"x_min":19,"x_max":881,"o":"m 36 0 q 24 3 28 0 q 21 15 19 7 l 24 44 q 29 59 26 53 q 39 75 32 65 l 719 938 q 723 945 724 943 q 715 947 722 947 l 185 947 q 174 963 169 947 l 181 1021 q 184 1029 182 1028 q 190 1031 186 1031 l 868 1031 q 878 1018 881 1031 l 874 985 q 870 974 872 978 q 863 963 868 969 l 175 94 q 176 83 165 83 l 733 83 q 742 81 739 83 q 744 74 746 79 l 736 11 q 733 3 735 6 q 722 0 731 0 l 36 0 l 36 0 z "},"a":{"ha":756,"x_min":32,"x_max":675,"o":"m 511 90 q 385 12 451 38 q 243 -14 318 -14 q 88 33 144 -14 q 32 160 32 81 q 67 282 32 232 q 158 364 101 332 q 284 413 214 396 q 424 433 354 429 l 549 443 q 578 467 575 446 l 583 507 q 585 522 585 514 q 586 538 586 531 q 542 642 586 604 q 424 679 499 679 q 301 649 358 679 q 192 558 243 619 q 184 553 188 554 q 175 556 181 553 l 121 579 q 115 587 117 582 q 118 601 113 592 q 249 709 169 668 q 431 750 328 750 q 565 726 511 750 q 647 657 619 701 q 675 550 675 613 q 674 530 675 540 q 672 508 674 519 l 603 15 q 599 2 601 4 q 586 0 596 0 l 535 0 q 524 5 528 0 q 519 19 519 10 l 528 93 q 511 90 526 110 l 511 90 m 563 363 q 560 378 564 374 q 547 381 557 382 l 439 372 q 342 358 396 368 q 239 328 288 349 q 158 269 190 307 q 126 172 126 231 q 166 88 126 118 q 274 58 206 58 q 370 76 324 58 q 456 121 417 94 q 518 181 494 150 q 546 240 542 213 l 563 363 z "},"b":{"ha":828,"x_min":65,"x_max":761,"o":"m 85 0 q 69 6 74 0 q 67 24 65 13 l 207 1017 q 211 1028 208 1025 q 221 1031 214 1031 l 286 1031 q 297 1025 294 1031 q 297 1011 299 1019 l 249 668 q 251 654 247 654 q 265 664 256 654 q 309 694 278 674 q 390 733 340 715 q 506 750 440 750 q 651 712 594 750 q 734 608 707 674 q 761 457 761 542 q 739 293 761 376 q 672 140 717 210 q 556 28 626 71 q 388 -14 485 -14 q 277 7 321 -14 q 209 54 233 28 q 175 97 185 81 q 165 101 171 104 q 157 88 160 99 l 142 18 q 136 3 140 7 q 118 0 132 0 l 85 0 m 189 244 q 207 150 182 193 q 276 82 232 107 q 374 57 321 57 q 502 93 447 57 q 593 188 557 129 q 647 316 629 246 q 665 456 665 386 q 619 619 665 560 q 478 678 572 678 q 344 645 407 678 q 236 567 281 613 l 189 244 z "},"c":{"ha":750,"x_min":65,"x_max":725,"o":"m 461 750 q 581 728 531 750 q 665 669 631 706 q 721 582 700 632 q 724 572 725 575 q 717 565 722 568 l 658 549 q 651 551 654 547 q 643 563 647 554 q 589 628 615 603 q 533 666 563 654 q 465 678 503 678 q 335 644 392 678 q 238 555 278 611 q 178 431 199 499 q 158 296 158 364 q 215 122 158 186 q 372 58 272 58 q 500 92 443 58 q 610 194 557 125 q 625 197 617 203 l 671 175 q 676 168 674 174 q 675 156 679 163 q 615 86 649 118 q 542 32 582 54 q 458 -2 503 10 q 361 -14 413 -14 q 204 25 271 -14 q 101 134 138 64 q 65 299 65 204 q 92 461 65 381 q 169 607 118 542 q 294 711 221 672 q 461 750 368 750 l 461 750 z "},"d":{"ha":828,"x_min":65,"x_max":804,"o":"m 592 0 q 578 5 583 0 q 575 18 574 10 l 585 82 q 583 94 588 93 q 568 85 579 94 q 522 47 553 71 q 444 5 492 24 q 335 -14 397 -14 q 142 60 218 -14 q 65 279 65 133 q 90 445 65 363 q 164 597 115 528 q 285 708 213 667 q 451 750 357 750 q 568 725 525 750 q 640 672 611 700 q 658 666 651 663 q 665 688 664 669 l 713 1017 q 717 1028 714 1025 q 728 1031 721 1031 l 792 1031 q 804 1013 804 1031 l 663 18 q 658 3 661 7 q 642 0 654 0 l 592 0 m 653 583 q 569 653 614 629 q 467 678 524 678 q 333 643 390 678 q 238 550 276 608 q 178 422 199 492 q 158 283 158 353 q 186 156 158 206 q 260 81 214 106 q 363 57 306 57 q 476 87 424 57 q 564 159 529 117 q 603 240 599 201 l 653 583 z "},"e":{"ha":804,"x_min":64,"x_max":749,"o":"m 367 -14 q 207 25 275 -14 q 101 133 139 64 q 64 296 64 203 q 91 463 64 382 q 170 609 118 544 q 297 712 222 674 q 465 750 371 750 q 617 715 554 750 q 715 614 681 681 q 749 453 749 547 q 747 413 749 433 q 743 371 746 393 q 735 354 742 361 q 717 347 728 347 l 174 347 q 160 335 164 347 q 156 285 156 324 q 217 120 156 181 q 375 60 279 60 q 513 91 453 60 q 621 183 574 122 q 631 188 626 189 q 640 185 636 188 l 683 158 q 688 139 696 153 q 597 52 646 86 q 490 2 547 18 q 367 -14 433 -14 l 367 -14 m 632 411 q 654 422 646 411 q 663 476 663 433 q 608 623 663 567 q 463 679 554 679 q 319 640 381 679 q 219 538 257 600 q 172 411 182 476 l 632 411 z "},"f":{"ha":518,"x_min":78,"x_max":583,"o":"m 524 736 q 532 733 529 736 q 533 724 535 729 l 526 675 q 515 665 525 665 l 344 665 q 332 651 335 665 l 242 15 q 238 3 240 6 q 228 0 236 0 l 164 0 q 154 6 158 0 q 151 18 150 11 l 240 656 q 233 665 243 665 l 88 665 q 80 669 82 665 q 78 679 78 674 l 85 726 q 88 734 86 732 q 96 736 90 736 l 239 736 q 249 740 244 736 q 254 751 254 744 l 269 857 q 327 988 282 944 q 458 1031 372 1031 l 568 1031 q 578 1027 574 1031 q 581 1015 583 1024 l 575 971 q 561 961 574 961 l 460 961 q 389 933 413 961 q 360 856 365 904 l 343 746 q 353 736 342 736 l 524 736 l 524 736 z "},"g":{"ha":825,"x_min":-21,"x_max":836,"o":"m 297 -243 q 60 -194 142 -243 q -21 -64 -21 -144 q 19 42 -21 -4 q 125 118 60 89 q 138 128 135 124 q 132 136 140 132 q 97 166 108 150 q 86 204 86 182 q 104 253 86 232 q 149 289 122 274 q 200 313 175 304 q 213 322 210 315 q 207 331 215 328 q 138 394 161 357 q 115 481 115 431 q 141 595 115 546 q 211 678 167 644 q 313 730 256 713 q 435 747 371 747 q 571 727 522 747 q 646 682 619 707 q 660 678 653 676 q 675 688 668 681 q 715 714 693 701 q 760 735 736 726 q 807 743 785 743 q 830 738 824 743 q 835 722 836 733 l 829 688 q 823 670 828 675 q 806 664 818 665 q 761 658 779 663 q 726 647 743 654 q 690 614 685 629 q 701 584 696 601 q 706 542 706 567 q 678 428 706 476 q 606 350 651 381 q 503 305 560 319 q 383 290 446 290 q 338 288 371 290 q 267 280 304 286 q 204 260 231 274 q 178 222 178 246 q 208 192 178 201 q 306 179 238 183 l 478 169 q 633 121 583 164 q 683 -1 683 78 q 662 -97 683 -57 q 603 -165 640 -137 q 516 -210 565 -193 q 410 -235 467 -226 q 297 -243 354 -243 l 297 -243 m 299 -179 q 403 -172 351 -179 q 499 -145 456 -164 q 567 -93 542 -126 q 593 -10 593 -60 q 565 60 593 38 q 464 88 536 83 l 232 101 q 149 71 186 92 q 89 19 111 50 q 67 -51 67 -11 q 129 -150 67 -121 q 299 -179 192 -179 l 299 -179 m 388 356 q 501 375 449 356 q 587 438 554 394 q 619 550 619 481 q 574 648 619 614 q 438 682 528 682 q 322 660 376 682 q 235 594 268 638 q 201 483 201 550 q 250 388 201 421 q 388 356 299 356 l 388 356 z "},"h":{"ha":807,"x_min":65,"x_max":728,"o":"m 82 0 q 70 6 75 0 q 67 18 65 11 l 207 1018 q 211 1028 208 1026 q 221 1031 214 1031 l 282 1031 q 294 1015 297 1031 l 243 651 q 251 642 240 635 q 353 703 308 679 q 438 738 397 726 q 526 750 479 750 q 678 703 628 750 q 728 578 728 656 q 727 559 728 568 q 725 539 726 550 l 651 15 q 647 3 650 7 q 633 0 643 0 l 575 0 q 560 18 556 0 l 631 521 q 633 540 632 531 q 633 557 633 549 q 602 644 633 614 q 501 674 571 674 q 415 660 456 674 q 332 620 375 647 q 235 553 289 593 l 157 14 q 153 3 156 6 q 140 0 150 0 l 82 0 z "},"i":{"ha":322,"x_min":64,"x_max":304,"o":"m 157 18 q 152 3 156 6 q 136 0 149 0 l 85 0 q 69 5 74 0 q 65 19 64 10 l 165 722 q 169 734 167 732 q 179 736 172 736 l 243 736 q 255 731 251 736 q 257 718 258 726 l 157 18 m 288 901 q 282 885 286 890 q 265 879 278 879 l 199 879 q 185 886 189 879 q 185 903 182 893 l 200 1011 q 219 1031 203 1031 l 288 1031 q 299 1024 294 1031 q 303 1008 304 1018 l 288 901 z "},"j":{"ha":322,"x_min":-147,"x_max":304,"o":"m 147 -56 q 92 -192 135 -149 q -53 -236 50 -236 q -131 -232 -115 -236 q -146 -218 -147 -228 l -139 -169 q -135 -162 -137 -165 q -128 -160 -133 -160 l -51 -157 q 23 -129 -3 -154 q 57 -43 49 -104 l 165 722 q 170 733 167 731 q 181 736 174 736 l 243 736 q 255 731 251 736 q 257 718 258 725 l 147 -56 l 147 -56 m 288 901 q 282 885 286 890 q 265 879 278 879 l 199 879 q 185 886 189 879 q 185 903 182 893 l 200 1011 q 219 1031 203 1031 l 288 1031 q 299 1024 294 1031 q 303 1008 304 1018 l 288 901 z "},"k":{"ha":768,"x_min":65,"x_max":749,"o":"m 674 18 q 677 5 678 10 q 665 0 676 0 l 592 0 q 579 4 583 0 q 571 17 575 8 l 397 394 q 382 393 393 403 l 199 231 q 190 219 193 225 q 183 204 186 213 l 157 18 q 153 3 156 6 q 136 0 150 0 l 85 0 q 69 5 74 0 q 67 19 65 10 l 207 1017 q 211 1028 208 1026 q 221 1031 214 1031 l 285 1031 q 297 1026 293 1031 q 297 1011 300 1021 l 204 347 q 205 337 203 336 q 217 346 207 338 l 633 722 q 649 734 643 732 q 661 736 654 736 l 729 736 q 746 728 743 736 q 736 710 749 721 l 478 479 q 469 471 472 475 q 469 458 467 467 l 674 18 l 674 18 z "},"l":{"ha":322,"x_min":64,"x_max":301,"o":"m 157 18 q 153 3 156 6 q 136 0 150 0 l 85 0 q 69 5 74 0 q 65 19 64 10 l 207 1017 q 212 1028 210 1026 q 222 1031 214 1031 l 285 1031 q 297 1013 301 1031 l 157 18 z "},"m":{"ha":1253,"x_min":64,"x_max":1174,"o":"m 82 0 q 69 6 75 0 q 65 18 64 11 l 165 724 q 169 734 167 732 q 178 736 172 736 l 240 736 q 251 733 249 736 q 253 721 254 729 l 242 647 q 250 640 240 633 q 345 701 303 676 q 428 738 388 725 q 515 750 469 750 q 644 712 601 750 q 696 626 688 674 q 703 626 697 621 q 718 638 710 631 q 814 699 771 674 q 899 737 857 724 q 986 750 940 750 q 1126 703 1079 750 q 1174 578 1174 656 q 1173 558 1174 568 q 1171 539 1172 549 l 1097 15 q 1093 3 1096 7 q 1081 0 1090 0 l 1022 0 q 1006 18 1003 0 l 1076 518 q 1079 540 1079 529 q 1079 560 1079 551 q 1051 644 1079 614 q 958 674 1022 674 q 870 657 913 674 q 793 617 828 640 q 731 571 758 593 q 710 553 717 561 q 700 529 703 544 l 628 15 q 622 3 625 7 q 610 0 618 0 l 551 0 q 540 6 544 0 q 536 18 535 11 l 607 521 q 590 634 617 594 q 489 674 563 674 q 408 660 446 674 q 328 620 369 647 q 235 553 288 593 l 157 14 q 153 3 156 6 q 139 0 150 0 l 82 0 l 82 0 z "},"n":{"ha":807,"x_min":64,"x_max":728,"o":"m 81 0 q 68 6 72 0 q 65 18 64 11 l 165 724 q 169 734 167 732 q 178 736 171 736 l 242 736 q 251 733 249 736 q 253 722 254 731 l 240 640 q 251 635 239 625 q 388 720 321 690 q 526 750 454 750 q 677 702 626 750 q 728 576 728 654 q 727 559 728 568 q 725 540 726 550 l 651 15 q 647 3 650 7 q 633 0 643 0 l 574 0 q 562 6 565 0 q 560 18 558 11 l 631 519 q 633 539 632 529 q 633 557 633 549 q 601 644 633 614 q 500 674 569 674 q 415 660 456 674 q 332 620 375 647 q 235 553 289 593 l 157 14 q 152 3 156 6 q 139 0 149 0 l 81 0 l 81 0 z "},"o":{"ha":831,"x_min":65,"x_max":765,"o":"m 365 -14 q 204 25 272 -14 q 101 134 136 64 q 65 297 65 204 q 97 478 65 396 q 183 622 128 561 q 311 717 238 683 q 467 750 385 750 q 626 710 560 750 q 729 598 693 669 q 765 432 765 526 q 712 202 765 303 q 568 44 658 101 q 365 -14 478 -14 l 365 -14 m 371 60 q 525 108 457 60 q 633 242 593 156 q 672 443 672 328 q 618 615 672 553 q 464 678 564 678 q 310 629 379 678 q 199 494 240 581 q 158 293 158 407 q 214 122 158 185 q 371 60 269 60 l 371 60 z "},"p":{"ha":825,"x_min":32,"x_max":760,"o":"m 46 -229 q 35 -224 39 -229 q 33 -211 32 -218 l 165 719 q 169 733 167 731 q 185 736 172 736 l 236 736 q 251 731 246 736 q 254 718 256 726 l 243 654 q 247 645 242 646 q 261 653 251 644 q 306 690 276 667 q 381 731 335 713 q 493 750 428 750 q 685 677 610 750 q 760 460 760 604 q 736 293 760 376 q 665 140 713 210 q 545 28 617 71 q 378 -14 474 -14 q 261 9 308 -14 q 188 60 214 32 q 170 64 176 69 q 161 44 164 58 l 125 -215 q 122 -226 124 -224 q 111 -229 119 -229 l 46 -229 l 46 -229 m 361 57 q 493 92 436 57 q 588 186 550 128 q 646 315 626 244 q 665 454 665 385 q 638 582 665 532 q 566 656 611 632 q 465 679 521 679 q 350 651 403 679 q 264 583 297 624 q 226 503 231 542 l 175 153 q 259 83 214 108 q 361 57 304 57 l 361 57 z "},"q":{"ha":829,"x_min":67,"x_max":765,"o":"m 553 -229 q 540 -210 539 -229 l 578 46 q 578 63 581 61 q 561 54 575 64 q 463 6 519 26 q 342 -14 406 -14 q 138 69 210 -14 q 67 290 67 151 q 89 450 67 369 q 156 599 111 531 q 272 709 201 668 q 442 750 343 750 q 558 731 515 750 q 624 689 601 713 q 657 650 647 665 q 667 646 663 644 q 676 660 672 647 l 693 718 q 701 733 697 731 q 718 736 706 736 l 749 736 q 762 731 758 736 q 763 713 765 726 l 632 -215 q 626 -226 631 -224 q 615 -229 622 -229 l 553 -229 l 553 -229 m 365 57 q 485 84 425 57 q 590 157 544 111 l 640 490 q 626 584 647 540 q 561 654 604 628 q 457 681 518 681 q 329 646 385 681 q 237 554 274 611 q 181 430 200 497 q 161 294 161 363 q 217 119 161 181 q 365 57 274 57 l 365 57 z "},"r":{"ha":517,"x_min":64,"x_max":535,"o":"m 82 0 q 69 6 74 0 q 65 18 64 11 l 165 724 q 169 734 167 732 q 178 736 171 736 l 239 736 q 249 733 246 736 q 251 719 253 729 l 239 635 q 242 626 238 626 q 251 631 246 625 q 334 701 294 675 q 410 738 374 726 q 482 750 447 750 q 522 746 510 750 q 533 733 535 742 l 524 671 q 522 663 524 664 q 517 661 521 661 q 492 663 506 661 q 463 664 479 664 q 391 649 431 664 q 315 608 351 633 q 253 552 279 583 q 224 489 228 521 l 157 14 q 152 3 156 6 q 139 0 149 0 l 82 0 l 82 0 z "},"s":{"ha":704,"x_min":4,"x_max":657,"o":"m 296 -14 q 111 31 188 -14 q 10 144 35 75 q 14 163 4 157 l 58 186 q 70 188 65 189 q 78 179 75 186 q 158 90 104 124 q 297 57 213 57 q 365 65 326 57 q 440 89 404 72 q 500 133 476 106 q 524 201 524 160 q 493 267 524 238 q 393 315 463 296 l 256 356 q 130 422 165 382 q 94 514 94 463 q 138 642 94 590 q 251 722 182 694 q 399 750 319 750 q 556 715 489 750 q 653 617 622 679 q 656 608 657 613 q 649 600 654 604 l 606 578 q 596 577 600 575 q 586 585 592 579 q 513 654 563 629 q 394 679 464 679 q 301 665 350 679 q 217 619 251 650 q 183 538 183 588 q 206 485 183 510 q 290 440 228 461 l 464 386 q 576 319 539 364 q 613 218 613 274 q 585 117 613 160 q 510 44 557 74 q 407 0 463 14 q 296 -14 351 -14 l 296 -14 z "},"t":{"ha":521,"x_min":76,"x_max":526,"o":"m 289 0 q 181 29 215 0 q 146 121 146 58 q 147 146 146 133 q 150 171 149 158 l 217 654 q 216 663 218 661 q 207 665 214 665 l 88 665 q 78 679 76 665 l 85 728 q 88 735 86 733 q 96 736 90 736 l 218 736 q 228 740 224 736 q 232 750 232 744 l 278 972 q 294 986 279 986 l 343 986 q 353 981 351 986 q 354 965 356 976 l 324 746 q 324 738 322 740 q 332 736 326 736 l 513 736 q 523 733 519 736 q 525 725 526 731 l 518 675 q 515 667 517 668 q 506 665 514 665 l 324 665 q 308 651 311 665 l 243 185 q 240 163 242 172 q 239 142 239 153 q 258 85 239 99 q 314 72 278 72 l 415 72 q 425 67 421 72 q 428 57 429 63 l 422 18 q 411 4 421 8 q 374 2 397 3 q 326 1 350 1 q 289 0 303 0 l 289 0 z "},"u":{"ha":800,"x_min":79,"x_max":736,"o":"m 279 -14 q 135 35 190 -14 q 79 165 79 85 q 79 182 79 174 q 81 197 79 190 l 154 721 q 160 733 156 729 q 171 736 164 736 l 231 736 q 243 731 239 736 q 246 717 247 726 l 176 224 q 174 206 175 214 q 174 190 174 197 q 208 93 174 124 q 304 63 242 63 q 434 99 369 63 q 568 196 499 135 l 643 722 q 648 733 644 731 q 660 736 651 736 l 718 736 q 732 731 728 736 q 735 717 736 726 l 635 13 q 631 3 633 6 q 621 0 629 0 l 561 0 q 550 3 554 0 q 547 14 546 7 l 560 94 q 558 104 561 103 q 547 100 554 106 q 395 9 457 32 q 279 -14 333 -14 l 279 -14 z "},"v":{"ha":750,"x_min":90,"x_max":763,"o":"m 744 736 q 758 730 754 736 q 758 717 763 724 l 375 17 q 363 3 369 6 q 346 0 357 0 l 308 0 q 288 6 296 0 q 278 19 279 11 l 92 721 q 106 736 90 736 l 169 736 q 182 732 176 736 q 188 719 188 728 l 339 140 q 361 146 346 114 l 675 726 q 694 736 682 736 l 744 736 l 744 736 z "},"w":{"ha":1099,"x_min":94,"x_max":1104,"o":"m 1088 736 q 1100 730 1096 736 q 1103 717 1104 724 l 793 14 q 784 3 789 6 q 768 0 779 0 l 713 0 q 688 19 688 0 l 588 574 q 581 583 585 585 q 572 569 576 581 l 326 14 q 317 3 322 6 q 303 0 313 0 l 243 0 q 218 19 218 0 l 97 721 q 110 736 94 736 l 171 736 q 185 732 179 736 q 190 719 190 728 l 288 143 q 295 132 290 129 q 306 149 300 135 l 565 726 q 581 736 569 736 l 632 736 q 645 732 640 736 q 650 719 650 728 l 754 143 q 762 132 757 129 q 772 149 767 135 l 1025 726 q 1046 736 1032 736 l 1088 736 l 1088 736 z "},"x":{"ha":739,"x_min":-14,"x_max":732,"o":"m 639 21 q 647 4 649 8 q 636 0 646 0 l 560 0 q 546 4 551 0 q 538 13 540 8 l 368 299 q 358 306 363 307 q 344 294 353 304 l 85 8 q 75 1 82 3 q 60 0 68 0 l 4 0 q -10 7 -7 0 q 0 31 -14 14 l 306 360 q 315 374 314 368 q 314 388 317 381 l 113 719 q 111 731 110 726 q 122 736 113 736 l 193 736 q 208 733 203 736 q 214 724 213 729 l 379 451 q 388 447 382 444 q 400 456 394 449 l 636 728 q 645 735 640 735 q 660 736 650 736 l 719 736 q 731 730 729 736 q 726 718 732 724 l 439 396 q 430 382 432 389 q 432 368 428 375 l 639 21 l 639 21 z "},"y":{"ha":724,"x_min":-22,"x_max":742,"o":"m 61 -229 q 0 -227 22 -229 q -21 -212 -22 -225 l -15 -172 q -4 -159 -14 -162 q 31 -156 6 -156 l 113 -156 q 172 -133 143 -156 q 224 -79 201 -111 q 257 -12 247 -47 q 260 47 267 22 l 88 714 q 103 736 83 736 l 172 736 q 188 725 186 736 l 331 154 q 341 140 335 140 q 356 157 347 140 l 653 721 q 661 733 657 729 q 672 736 665 736 l 725 736 q 731 721 742 736 l 307 -81 q 257 -152 283 -124 q 201 -198 231 -181 q 136 -222 171 -215 q 61 -229 101 -229 l 61 -229 z "},"z":{"ha":656,"x_min":-6,"x_max":649,"o":"m 8 0 q -3 3 0 0 q -3 15 -6 7 l 1 49 q 8 65 3 57 q 22 83 13 72 l 524 653 q 528 664 529 660 q 519 668 528 668 l 129 668 q 120 672 122 668 q 119 683 118 675 l 126 725 q 132 734 128 732 q 142 736 136 736 l 640 736 q 649 726 649 736 l 642 686 q 636 669 640 678 q 624 653 632 661 l 122 83 q 118 72 117 76 q 125 68 119 68 l 553 68 q 563 57 565 68 l 557 14 q 553 3 556 7 q 542 0 550 0 l 8 0 l 8 0 z "},"¹":{"ha":510,"x_min":-7,"x_max":313,"o":"m 304 582 q 311 574 313 582 l 306 535 q 299 528 304 528 l 0 528 q -6 535 -7 528 l 0 576 q 7 582 1 582 l 124 582 q 131 588 128 582 l 201 1097 q 196 1101 204 1104 l 76 1058 q 67 1065 67 1056 l 71 1096 q 74 1104 72 1101 q 81 1108 76 1107 l 213 1171 q 226 1176 221 1175 q 238 1176 231 1176 l 271 1176 q 278 1165 279 1176 l 196 588 q 200 582 193 582 l 304 582 l 304 582 z "},"²":{"ha":628,"x_min":11,"x_max":488,"o":"m 258 804 q 343 882 306 844 q 401 958 381 919 q 422 1035 422 996 q 386 1113 422 1088 q 304 1138 350 1138 q 218 1116 265 1138 q 136 1050 171 1094 q 125 1047 131 1043 l 88 1075 q 92 1089 83 1078 q 196 1165 136 1140 q 313 1190 256 1190 q 399 1174 358 1190 q 463 1125 439 1158 q 488 1039 488 1092 q 465 944 488 988 q 402 860 442 901 q 310 774 363 819 l 107 600 q 102 594 101 597 q 108 590 103 590 l 422 590 q 432 581 433 590 l 426 542 q 424 535 425 538 q 417 533 422 533 l 25 533 q 13 547 11 533 l 17 576 q 22 592 18 586 q 38 610 26 599 l 258 804 z "},"³":{"ha":649,"x_min":31,"x_max":526,"o":"m 126 1094 q 125 1101 125 1097 q 128 1108 125 1106 q 228 1171 178 1151 q 333 1190 278 1190 q 476 1150 425 1190 q 526 1047 526 1110 q 488 944 526 989 q 388 879 450 900 q 382 876 382 878 q 388 872 382 874 q 469 823 436 860 q 501 732 501 786 q 470 626 501 674 q 379 552 439 579 q 235 525 319 525 q 142 538 179 525 q 80 571 106 550 q 33 617 54 592 q 33 625 31 622 l 68 653 q 76 653 72 656 q 148 595 106 613 q 242 578 190 578 q 381 618 324 578 q 438 729 438 658 q 415 794 438 768 q 356 834 392 821 q 281 847 321 847 l 200 847 q 193 856 190 847 l 197 893 q 206 899 197 899 l 269 899 q 364 917 321 899 q 434 969 407 936 q 461 1040 461 1001 q 426 1111 461 1083 q 333 1139 392 1139 q 235 1117 274 1139 q 163 1069 196 1094 q 149 1071 154 1061 l 126 1094 l 126 1094 z "},"⁴":{"ha":671,"x_min":35,"x_max":518,"o":"m 399 1169 q 406 1175 403 1174 q 415 1176 410 1176 l 465 1176 q 474 1165 474 1176 l 417 765 q 421 760 417 760 l 507 760 q 517 751 518 760 l 511 715 q 509 709 511 711 q 501 707 507 707 l 415 707 q 407 700 407 707 l 385 536 q 381 529 383 531 q 372 528 379 528 l 326 528 q 318 538 317 528 l 340 700 q 335 707 343 707 l 44 707 q 36 718 35 707 l 42 757 q 46 769 43 764 q 56 781 49 774 l 399 1169 l 399 1169 m 340 760 q 349 767 347 760 l 392 1082 q 390 1087 393 1088 q 381 1078 388 1086 l 108 769 q 108 760 99 760 l 340 760 z "},"ª":{"ha":558,"x_min":96,"x_max":522,"o":"m 354 1040 q 452 1021 414 1040 q 506 966 490 1001 q 515 882 522 931 l 482 654 q 479 619 479 633 q 482 581 479 606 q 482 573 485 575 q 472 571 479 571 l 426 571 q 416 574 419 571 q 413 585 413 578 l 411 629 q 408 633 411 636 q 400 625 406 631 q 324 578 360 593 q 244 563 288 563 q 133 599 171 563 q 104 696 96 635 q 175 798 114 761 q 350 844 236 835 l 425 851 q 438 857 432 853 q 444 867 443 861 l 447 889 q 429 962 454 939 q 349 985 404 985 q 276 969 308 985 q 214 915 244 954 q 210 915 213 914 q 201 917 207 915 l 157 933 q 155 939 156 935 q 156 949 154 943 q 236 1017 186 993 q 354 1040 286 1040 l 354 1040 m 176 689 q 195 637 171 657 q 264 617 219 617 q 324 628 296 617 q 374 661 351 640 q 409 692 396 675 q 424 725 422 708 l 433 789 q 433 799 435 797 q 422 800 431 801 l 361 794 q 265 778 304 792 q 203 742 225 764 q 176 689 181 719 l 176 689 z "},"º":{"ha":575,"x_min":122,"x_max":576,"o":"m 378 1043 q 492 1013 447 1043 q 557 926 538 982 q 567 797 576 871 q 524 677 557 729 q 440 595 492 625 q 319 565 389 565 q 203 597 249 565 q 140 682 158 628 q 132 807 122 736 q 175 931 142 878 q 261 1014 208 985 q 378 1043 314 1043 l 378 1043 m 378 985 q 262 934 306 985 q 207 801 218 883 q 222 670 194 718 q 319 622 250 622 q 435 674 390 622 q 492 811 479 725 q 475 937 503 889 q 378 985 447 985 l 378 985 z "},"½":{"ha":1304,"x_min":86,"x_max":1172,"o":"m 397 438 q 404 429 406 438 l 399 390 q 392 383 397 383 l 93 383 q 88 390 86 383 l 93 432 q 100 438 94 438 l 217 438 q 224 443 221 438 l 294 953 q 289 957 297 960 l 169 914 q 160 921 160 911 l 164 951 q 167 960 165 957 q 174 964 169 963 l 306 1026 q 319 1031 314 1031 q 331 1032 324 1032 l 364 1032 q 371 1021 372 1032 l 289 443 q 293 438 286 438 l 397 438 l 397 438 m 235 4 q 224 -3 229 -1 q 210 -6 219 -6 l 179 -6 q 166 3 168 -6 q 169 19 164 11 l 989 1035 q 997 1042 993 1042 q 1008 1042 1001 1042 l 1046 1042 q 1058 1038 1053 1042 q 1056 1025 1063 1033 l 235 4 m 943 271 q 1028 349 990 311 q 1086 424 1065 386 q 1107 501 1107 463 q 1071 579 1107 554 q 989 604 1035 604 q 903 583 950 604 q 821 517 856 561 q 810 514 815 510 l 772 542 q 776 556 768 544 q 881 632 821 607 q 997 657 940 657 q 1083 641 1043 657 q 1148 592 1124 625 q 1172 506 1172 558 q 1149 411 1172 454 q 1087 327 1126 368 q 994 240 1047 286 l 792 67 q 787 60 786 64 q 793 57 788 57 l 1107 57 q 1117 47 1118 57 l 1111 8 q 1108 2 1110 4 q 1101 0 1107 0 l 710 0 q 697 14 696 0 l 701 43 q 707 59 703 53 q 722 76 711 65 l 943 271 z "},"¼":{"ha":1219,"x_min":61,"x_max":1097,"o":"m 372 438 q 379 429 381 438 l 374 390 q 367 383 372 383 l 68 383 q 63 390 61 383 l 68 432 q 75 438 69 438 l 192 438 q 199 443 196 438 l 269 953 q 264 957 272 960 l 144 914 q 135 921 135 911 l 139 951 q 142 960 140 957 q 149 964 144 963 l 281 1026 q 294 1031 289 1031 q 306 1032 299 1032 l 339 1032 q 346 1021 347 1032 l 264 443 q 268 438 261 438 l 372 438 l 372 438 m 260 4 q 249 -3 254 -1 q 235 -6 244 -6 l 204 -6 q 191 3 193 -6 q 194 19 189 11 l 1014 1035 q 1022 1042 1018 1042 q 1033 1042 1026 1042 l 1071 1042 q 1083 1038 1078 1042 q 1081 1025 1088 1033 l 260 4 m 978 642 q 985 647 982 646 q 994 649 989 649 l 1044 649 q 1053 638 1053 649 l 996 238 q 1000 232 996 232 l 1086 232 q 1096 224 1097 232 l 1090 188 q 1088 181 1090 183 q 1081 179 1086 179 l 994 179 q 986 172 986 179 l 964 8 q 960 1 963 3 q 951 0 958 0 l 906 0 q 897 10 896 0 l 919 172 q 914 179 922 179 l 624 179 q 615 190 614 179 l 621 229 q 625 241 622 236 q 635 253 628 246 l 978 642 l 978 642 m 919 232 q 928 239 926 232 l 971 554 q 969 559 972 560 q 960 550 967 558 l 688 242 q 688 232 678 232 l 919 232 z "},"¾":{"ha":1265,"x_min":57,"x_max":1178,"o":"m 153 949 q 151 956 151 951 q 154 963 151 960 q 254 1025 204 1006 q 360 1044 304 1044 q 502 1004 451 1044 q 553 901 553 964 q 515 799 553 843 q 414 733 476 754 q 408 730 408 732 q 414 726 408 728 q 495 677 463 714 q 528 586 528 640 q 497 481 528 528 q 406 406 465 433 q 261 379 346 379 q 169 392 206 379 q 106 425 132 404 q 60 471 81 446 q 60 479 57 476 l 94 507 q 103 507 99 510 q 174 449 132 467 q 268 432 217 432 q 407 472 350 432 q 464 583 464 513 q 441 649 464 622 q 383 688 418 675 q 307 701 347 701 l 226 701 q 219 710 217 701 l 224 747 q 232 753 224 753 l 296 753 q 390 772 347 753 q 460 823 433 790 q 488 894 488 856 q 453 965 488 938 q 360 993 418 993 q 261 971 300 993 q 189 924 222 949 q 175 925 181 915 l 153 949 l 153 949 m 332 4 q 322 -3 326 -1 q 307 -6 317 -6 l 276 -6 q 263 3 265 -6 q 267 19 261 11 l 1086 1035 q 1094 1042 1090 1042 q 1106 1042 1099 1042 l 1143 1042 q 1155 1038 1150 1042 q 1153 1025 1160 1033 l 332 4 m 1058 642 q 1066 647 1063 646 q 1075 649 1069 649 l 1125 649 q 1133 638 1133 649 l 1076 238 q 1081 232 1076 232 l 1167 232 q 1176 224 1178 232 l 1171 188 q 1169 181 1171 183 q 1161 179 1167 179 l 1075 179 q 1067 172 1067 179 l 1044 8 q 1041 1 1043 3 q 1032 0 1039 0 l 986 0 q 978 10 976 0 l 1000 172 q 994 179 1003 179 l 704 179 q 696 190 694 179 l 701 229 q 706 241 703 236 q 715 253 708 246 l 1058 642 l 1058 642 m 1000 232 q 1008 239 1007 232 l 1051 554 q 1050 559 1053 560 q 1040 550 1047 558 l 768 242 q 768 232 758 232 l 1000 232 z "},"ı":{"ha":322,"x_min":64,"x_max":258,"o":"m 157 18 q 152 3 156 6 q 136 0 149 0 l 85 0 q 69 5 74 0 q 65 19 64 10 l 165 722 q 169 734 167 732 q 179 736 171 736 l 242 736 q 253 731 249 736 q 257 718 258 726 l 157 18 z "},"ȷ":{"ha":319,"x_min":-147,"x_max":256,"o":"m 144 -56 q 115 -158 138 -118 q 51 -217 92 -197 q -54 -236 11 -236 q -131 -232 -115 -236 q -146 -218 -147 -228 l -139 -169 q -135 -162 -137 -165 q -128 -160 -133 -160 l -54 -157 q 20 -129 -6 -154 q 56 -43 46 -104 l 163 722 q 167 733 164 731 q 179 736 171 736 l 240 736 q 252 731 249 736 q 254 718 256 725 l 144 -56 l 144 -56 z "},"Æ":{"ha":1375,"x_min":13,"x_max":1381,"o":"m 1250 83 q 1263 80 1258 83 q 1264 68 1267 76 l 1257 11 q 1253 2 1256 4 q 1244 0 1251 0 l 658 0 q 644 5 649 0 q 642 19 640 10 l 682 303 q 681 308 682 307 q 675 310 679 310 l 335 310 q 324 306 329 310 q 315 296 319 303 l 111 10 q 90 0 104 0 l 28 0 q 17 6 21 0 q 18 21 13 13 l 721 1015 q 732 1028 726 1025 q 749 1031 738 1031 l 1367 1031 q 1376 1026 1372 1031 q 1378 1015 1381 1022 l 1369 958 q 1366 949 1368 951 q 1356 947 1364 947 l 894 947 q 881 943 886 947 q 874 929 876 939 l 824 572 q 825 563 822 565 q 835 561 828 561 l 1189 561 q 1199 557 1196 561 q 1201 546 1203 553 l 1193 489 q 1191 481 1193 482 q 1181 479 1189 479 l 828 479 q 815 475 821 479 q 808 463 810 471 l 757 94 q 757 85 756 86 q 767 83 758 83 l 1250 83 l 1250 83 m 679 394 q 691 399 686 394 q 697 411 696 404 l 767 913 q 762 927 769 929 q 742 907 754 925 l 383 406 q 376 396 376 397 q 383 394 376 394 l 679 394 l 679 394 z "},"æ":{"ha":1288,"x_min":19,"x_max":1243,"o":"m 674 346 q 650 338 657 346 q 640 308 643 331 q 656 191 631 249 q 734 97 682 133 q 857 60 786 60 q 968 78 922 60 q 1047 127 1014 97 q 1106 185 1079 157 q 1115 189 1113 190 q 1122 185 1117 188 l 1165 158 q 1172 152 1169 157 q 1169 139 1174 147 q 1085 58 1135 92 q 974 5 1035 24 q 846 -14 914 -14 q 712 13 764 -14 q 629 77 660 40 q 581 146 599 114 q 576 145 579 149 q 571 138 572 142 q 494 70 539 106 q 388 10 450 35 q 240 -14 326 -14 q 74 42 129 -14 q 33 196 19 99 q 140 358 49 297 q 408 433 232 419 l 544 443 q 566 451 557 444 q 576 467 575 457 l 582 507 q 551 633 593 588 q 417 679 510 679 q 297 649 354 679 q 189 557 240 618 q 181 552 183 551 q 171 556 178 553 l 119 579 q 115 588 115 582 q 117 601 114 593 q 201 682 153 649 q 306 733 249 715 q 431 750 364 750 q 588 713 533 750 q 656 603 643 675 q 783 714 708 678 q 947 750 858 750 q 1115 706 1046 750 q 1213 576 1183 661 q 1226 371 1243 492 q 1220 353 1225 358 q 1199 347 1215 347 l 674 346 l 674 346 m 944 679 q 814 646 875 679 q 711 553 753 613 q 657 411 669 493 l 1113 413 q 1135 418 1129 413 q 1142 439 1140 424 q 1130 559 1151 504 q 1060 647 1108 614 q 944 679 1013 679 l 944 679 m 561 360 q 560 375 564 371 q 544 378 557 379 l 429 369 q 272 339 336 361 q 171 280 207 317 q 128 190 135 243 q 157 92 119 129 q 274 58 194 54 q 401 87 342 61 q 499 154 460 113 q 544 244 539 196 l 561 360 l 561 360 z "},"Œ":{"ha":1560,"x_min":96,"x_max":1565,"o":"m 1436 83 q 1448 80 1444 83 q 1450 68 1451 76 l 1443 11 q 1440 2 1442 4 q 1429 0 1438 0 l 838 0 q 826 3 831 0 q 822 13 822 6 l 833 161 q 681 30 771 74 q 482 -14 592 -14 q 256 48 344 -14 q 131 228 167 110 q 119 515 96 346 q 211 804 143 686 q 385 983 279 922 q 626 1044 492 1044 q 815 999 739 1044 q 929 864 892 953 l 961 1019 q 966 1028 963 1026 q 976 1031 969 1031 l 1551 1031 q 1562 1026 1558 1031 q 1564 1015 1565 1022 l 1556 958 q 1551 949 1554 951 q 1540 947 1549 947 l 1056 947 q 1042 943 1047 947 q 1036 929 1038 939 l 986 572 q 987 563 985 565 q 997 561 989 561 l 1361 561 q 1372 557 1368 561 q 1374 546 1375 553 l 1365 489 q 1363 481 1365 482 q 1354 479 1361 479 l 990 479 q 977 475 982 479 q 971 463 972 471 l 919 94 q 919 85 918 86 q 928 83 921 83 l 1436 83 l 1436 83 m 485 71 q 741 181 646 71 q 868 517 836 290 q 837 852 900 743 q 618 961 774 961 q 359 849 458 961 q 226 507 260 736 q 261 178 196 285 q 485 71 326 71 l 485 71 z "},"œ":{"ha":1397,"x_min":54,"x_max":1354,"o":"m 365 -14 q 188 34 260 -14 q 85 168 117 82 q 69 368 54 254 q 142 569 86 483 q 281 702 197 654 q 467 750 365 750 q 633 703 565 750 q 731 575 701 656 q 740 569 735 567 q 753 582 746 572 q 884 705 804 660 q 1056 750 964 750 q 1228 704 1160 750 q 1325 573 1296 658 q 1336 368 1354 488 q 1330 353 1335 358 q 1311 347 1325 347 l 779 347 q 762 340 769 347 q 753 318 754 332 q 769 188 743 246 q 847 96 794 131 q 968 61 900 61 q 1107 92 1046 61 q 1215 185 1168 124 q 1225 189 1221 190 q 1233 185 1229 188 l 1276 158 q 1283 151 1281 157 q 1281 139 1285 146 q 1190 52 1239 86 q 1083 2 1140 18 q 960 -14 1026 -14 q 794 31 863 -14 q 696 153 725 76 q 683 160 689 163 q 669 140 678 157 q 537 27 615 68 q 365 -14 458 -14 l 365 -14 m 371 60 q 511 99 449 60 q 614 208 574 138 q 667 372 654 278 q 660 533 681 465 q 589 639 639 601 q 464 676 539 676 q 324 638 386 676 q 219 528 261 599 q 164 363 178 457 q 172 201 151 269 q 244 97 193 133 q 371 60 296 60 l 371 60 m 1057 678 q 924 644 986 678 q 821 549 861 610 q 771 411 781 489 l 1226 413 q 1247 418 1240 413 q 1254 436 1253 424 q 1243 558 1264 503 q 1175 645 1222 613 q 1057 678 1128 678 l 1057 678 z "},"ð":{"ha":831,"x_min":53,"x_max":783,"o":"m 758 356 q 691 164 744 247 q 554 33 638 81 q 363 -14 471 -14 q 188 33 260 -14 q 85 164 117 81 q 68 354 53 247 q 138 545 83 463 q 274 675 192 628 q 451 722 356 722 q 565 702 515 722 q 646 646 614 682 q 583 774 625 713 q 469 889 542 835 l 233 764 q 223 764 228 760 q 215 774 218 768 l 204 796 q 206 813 197 808 l 421 924 q 356 959 390 942 q 283 994 321 976 q 274 1000 276 994 q 276 1010 271 1006 l 321 1039 q 333 1044 329 1044 q 344 1039 338 1044 q 428 1003 390 1022 q 499 963 465 985 l 647 1043 q 657 1043 653 1046 q 661 1038 661 1040 l 676 1003 q 678 997 678 1000 q 676 992 679 994 l 547 928 q 737 675 690 821 q 758 356 783 529 l 758 356 m 371 60 q 507 99 444 60 q 612 205 569 138 q 665 358 654 272 q 655 508 678 442 q 582 612 632 574 q 460 650 532 650 q 322 610 386 650 q 216 503 258 571 q 161 349 174 435 q 173 201 150 267 q 247 97 196 135 q 371 60 299 60 l 371 60 z "},"Þ":{"ha":950,"x_min":93,"x_max":910,"o":"m 894 533 q 826 367 882 431 q 683 274 769 303 q 492 244 597 244 l 246 244 q 235 240 239 244 q 229 228 231 235 l 200 14 q 194 3 197 6 q 183 0 192 0 l 110 0 q 98 5 103 0 q 94 18 93 10 l 236 1017 q 240 1028 238 1026 q 250 1031 243 1031 l 325 1031 q 338 1026 333 1031 q 339 1011 342 1021 l 313 817 q 313 812 311 813 q 318 811 314 811 l 556 811 q 746 781 664 811 q 869 690 828 751 q 894 533 910 629 l 894 533 m 789 543 q 736 687 803 646 q 544 728 669 728 l 318 728 q 305 724 311 728 q 297 711 299 719 l 244 340 q 244 329 243 332 q 253 326 246 326 l 492 326 q 692 377 613 326 q 789 543 772 428 l 789 543 z "},"þ":{"ha":822,"x_min":32,"x_max":772,"o":"m 278 1031 q 292 1024 288 1031 q 294 1010 296 1018 l 244 651 q 247 642 243 640 q 260 653 250 643 q 304 690 275 667 q 381 731 333 713 q 493 750 428 750 q 647 709 582 750 q 742 584 711 668 q 754 375 772 500 q 684 168 736 256 q 553 33 632 81 q 378 -14 475 -14 q 262 8 308 -14 q 189 58 215 31 q 161 44 165 76 l 125 -215 q 122 -226 124 -224 q 111 -229 119 -229 l 47 -229 q 37 -224 42 -229 q 33 -211 32 -218 l 206 1014 q 211 1028 208 1025 q 226 1031 214 1031 l 278 1031 l 278 1031 m 175 153 q 259 83 214 108 q 361 57 304 57 q 497 95 435 57 q 603 206 560 133 q 660 382 646 278 q 651 551 675 486 q 578 648 628 617 q 465 679 529 679 q 350 651 403 679 q 264 583 297 624 q 226 503 231 542 l 175 153 l 175 153 z "},"ĸ":{"ha":768,"x_min":65,"x_max":749,"o":"m 674 18 q 677 5 678 10 q 665 0 676 0 l 592 0 q 578 4 583 0 q 571 17 574 8 l 396 394 q 392 399 394 400 q 383 392 389 399 l 199 231 q 190 219 193 225 q 183 204 186 213 l 157 18 q 153 3 156 6 q 136 0 150 0 l 85 0 q 69 5 74 0 q 67 19 65 10 l 165 722 q 169 734 167 732 q 179 736 172 736 l 242 736 q 254 731 250 736 q 257 717 258 726 l 204 347 q 205 337 203 336 q 217 346 207 338 l 633 722 q 649 734 643 732 q 661 736 654 736 l 729 736 q 746 728 743 736 q 736 710 749 721 l 478 479 q 469 471 472 475 q 469 458 467 467 l 674 18 l 674 18 z "},"ß":{"ha":829,"x_min":79,"x_max":750,"o":"m 528 1031 q 661 1001 614 1031 q 725 928 708 972 q 735 835 742 883 q 701 748 728 781 q 634 693 674 715 q 549 649 594 671 q 465 602 490 619 q 433 553 439 585 q 448 512 431 524 q 514 482 465 500 q 593 452 550 469 q 672 406 636 435 q 729 333 708 378 q 740 219 750 288 q 685 91 729 143 q 578 13 642 39 q 440 -14 514 -14 q 342 -2 390 -14 q 263 32 293 10 q 253 38 256 35 q 253 49 250 42 l 289 96 q 296 98 292 100 q 301 92 300 96 q 360 67 331 76 q 433 58 389 58 q 581 101 522 58 q 651 221 640 143 q 637 309 660 276 q 574 361 614 342 q 488 397 533 381 q 419 424 453 408 q 367 469 386 440 q 354 550 347 499 q 397 635 361 601 q 503 706 432 668 q 565 738 535 721 q 619 779 596 754 q 646 844 642 804 q 620 928 654 897 q 515 958 586 958 q 360 903 425 958 q 282 740 296 849 l 179 14 q 177 3 179 6 q 167 0 175 0 l 101 0 q 92 5 96 0 q 89 17 88 10 l 176 646 q 177 655 178 653 q 169 657 176 657 l 92 657 q 82 661 85 657 q 79 671 79 665 l 86 719 q 90 726 88 724 q 97 728 92 728 l 175 728 q 186 733 183 728 q 190 747 189 739 q 226 864 199 811 q 298 953 254 917 q 400 1010 342 990 q 528 1031 458 1031 l 528 1031 z "},"Ə":{"ha":1056,"x_min":106,"x_max":989,"o":"m 869 554 q 877 653 876 599 q 868 760 878 707 q 830 857 858 813 q 749 928 801 901 q 615 956 697 956 q 482 933 538 956 q 388 875 426 910 q 326 802 350 840 q 287 732 301 764 q 263 683 272 700 q 257 683 260 682 q 249 688 254 685 l 178 718 q 174 740 168 722 q 209 798 188 761 q 264 876 231 835 q 347 957 297 918 q 463 1020 396 996 q 618 1044 531 1044 q 791 1013 721 1044 q 903 926 861 981 q 965 801 946 871 q 987 656 985 732 q 978 507 989 581 q 927 315 964 408 q 829 147 890 221 q 681 30 768 74 q 478 -14 594 -14 q 278 29 356 -14 q 160 147 200 72 q 113 319 121 222 q 119 522 106 415 q 122 534 121 531 q 133 538 124 538 l 854 538 q 865 542 861 538 q 869 554 868 546 l 869 554 m 242 457 q 224 442 226 457 q 219 310 214 376 q 252 191 225 244 q 335 104 279 138 q 481 71 390 71 q 640 104 574 71 q 749 193 706 138 q 818 318 793 249 q 856 460 843 388 l 242 457 z "},"ə":{"ha":804,"x_min":56,"x_max":740,"o":"m 438 750 q 599 711 531 750 q 703 603 667 672 q 740 440 740 533 q 713 274 740 356 q 634 127 686 192 q 508 24 582 63 q 339 -14 433 -14 q 187 21 250 -14 q 90 123 124 56 q 56 283 56 190 q 57 323 56 303 q 61 365 58 343 q 69 383 63 376 q 89 389 76 389 l 631 389 q 644 401 640 389 q 649 451 649 413 q 588 616 649 556 q 429 676 526 676 q 291 645 351 676 q 183 553 231 614 q 173 548 178 547 q 164 551 168 549 l 121 578 q 117 597 110 583 q 209 684 160 650 q 315 734 258 718 q 438 750 372 750 l 438 750 m 172 325 q 150 314 158 325 q 142 260 142 303 q 196 113 142 169 q 342 57 250 57 q 486 97 425 57 q 585 198 547 136 q 632 325 624 260 l 172 325 z "},"µ":{"ha":800,"x_min":22,"x_max":736,"o":"m 304 63 q 434 99 369 63 q 568 196 499 135 l 643 722 q 648 733 644 731 q 660 736 651 736 l 718 736 q 732 731 728 736 q 735 717 736 726 l 635 13 q 631 3 633 6 q 621 0 629 0 l 561 0 q 550 5 554 0 q 547 17 546 10 l 560 101 q 559 109 561 110 q 549 100 557 108 q 451 35 493 60 q 372 0 408 11 q 297 -12 336 -11 q 214 -1 250 -12 q 151 38 178 10 l 115 -211 q 110 -226 114 -224 q 93 -229 107 -229 l 42 -229 q 26 -224 31 -229 q 24 -210 22 -219 l 154 721 q 160 733 156 729 q 171 736 164 736 l 231 736 q 243 731 239 736 q 246 717 247 726 l 172 197 q 183 129 167 160 q 231 81 199 99 q 304 63 264 63 l 304 63 z "},"ﬁ":{"ha":840,"x_min":78,"x_max":822,"o":"m 524 736 q 532 733 529 736 q 533 724 535 729 l 526 675 q 515 665 525 665 l 344 665 q 332 651 335 665 l 242 15 q 238 3 240 6 q 228 0 236 0 l 164 0 q 154 6 158 0 q 151 18 150 11 l 240 656 q 233 665 243 665 l 88 665 q 80 669 82 665 q 78 679 78 674 l 85 726 q 88 734 86 732 q 96 736 90 736 l 239 736 q 249 740 244 736 q 254 751 254 744 l 269 857 q 327 988 282 944 q 458 1031 372 1031 l 568 1031 q 578 1027 574 1031 q 581 1015 583 1024 l 575 971 q 561 961 574 961 l 460 961 q 389 933 413 961 q 360 856 365 904 l 343 746 q 353 736 342 736 l 524 736 l 524 736 m 675 18 q 670 3 674 6 q 654 0 667 0 l 603 0 q 587 5 592 0 q 583 19 582 10 l 683 722 q 688 734 685 732 q 697 736 690 736 l 761 736 q 773 731 769 736 q 775 718 776 726 l 675 18 m 806 901 q 800 885 804 890 q 783 879 796 879 l 717 879 q 703 886 707 879 q 703 903 700 893 l 718 1011 q 738 1031 721 1031 l 806 1031 q 817 1024 813 1031 q 821 1008 822 1018 l 806 901 z "},"ﬂ":{"ha":840,"x_min":78,"x_max":819,"o":"m 524 736 q 532 733 529 736 q 533 724 535 729 l 526 675 q 515 665 525 665 l 344 665 q 332 651 335 665 l 242 15 q 238 3 240 6 q 228 0 236 0 l 164 0 q 154 6 158 0 q 151 18 150 11 l 240 656 q 233 665 243 665 l 88 665 q 80 669 82 665 q 78 679 78 674 l 85 726 q 88 734 86 732 q 96 736 90 736 l 239 736 q 249 740 244 736 q 254 751 254 744 l 269 857 q 327 988 282 944 q 458 1031 372 1031 l 568 1031 q 578 1027 574 1031 q 581 1015 583 1024 l 575 971 q 561 961 574 961 l 460 961 q 389 933 413 961 q 360 856 365 904 l 343 746 q 353 736 342 736 l 524 736 l 524 736 m 675 18 q 671 3 674 6 q 654 0 668 0 l 603 0 q 587 5 592 0 q 583 19 582 10 l 725 1017 q 730 1028 728 1026 q 740 1031 732 1031 l 803 1031 q 815 1013 819 1031 l 675 18 z "},"$":{"ha":822,"x_min":21,"x_max":821,"o":"m 751 240 q 698 113 742 169 q 585 23 654 56 q 431 -12 517 -10 q 417 -16 421 -12 q 411 -26 413 -19 l 400 -111 q 396 -122 399 -119 q 385 -125 393 -125 l 342 -125 q 330 -120 333 -125 q 328 -111 326 -115 l 340 -21 q 340 -13 340 -14 q 335 -12 339 -12 q 144 31 214 -11 q 31 153 74 74 q 22 167 24 161 q 28 178 21 174 l 68 208 q 84 211 76 214 q 94 201 92 208 q 190 105 135 139 q 336 69 244 71 q 349 73 344 69 q 356 83 354 76 l 406 449 q 403 469 408 461 q 385 483 397 478 q 231 565 288 525 q 153 653 174 604 q 143 771 133 703 q 198 903 154 846 q 313 997 242 961 q 469 1040 383 1032 q 483 1046 476 1042 q 492 1056 490 1050 l 500 1128 q 503 1135 501 1133 q 510 1138 506 1138 l 557 1138 q 569 1132 565 1138 q 571 1118 574 1126 l 561 1047 q 562 1041 561 1043 q 567 1039 563 1039 q 708 997 650 1031 q 810 910 765 963 q 818 901 815 907 q 813 889 821 896 l 765 849 q 754 847 758 844 q 746 861 750 850 q 672 922 719 897 q 565 957 624 947 q 552 954 557 958 q 546 943 547 950 l 493 565 q 493 553 492 556 q 504 547 494 551 l 549 531 q 670 458 622 499 q 740 363 718 417 q 751 240 761 308 l 751 240 m 475 950 q 474 958 476 957 q 465 958 471 960 q 310 897 372 950 q 236 765 247 843 q 243 700 231 731 q 291 641 256 669 q 392 581 326 613 q 415 583 404 578 q 426 603 425 588 l 475 950 m 425 75 q 426 70 425 71 q 432 71 428 69 q 586 122 524 71 q 658 246 649 172 q 632 357 668 313 q 504 443 596 401 q 474 426 478 449 l 425 75 l 425 75 z "},"¢":{"ha":775,"x_min":35,"x_max":694,"o":"m 389 19 q 383 3 388 7 q 367 0 379 0 l 333 0 q 317 6 321 0 q 314 22 313 13 l 335 171 q 340 182 335 179 q 351 185 344 185 l 394 185 q 408 180 404 185 q 410 167 411 175 l 389 19 l 389 19 m 508 865 q 502 849 507 853 q 485 846 497 846 l 451 846 q 435 852 440 846 q 432 868 431 858 l 453 1017 q 459 1028 456 1025 q 471 1031 463 1031 l 514 1031 q 526 1026 522 1031 q 529 1013 529 1021 l 508 865 l 508 865 m 431 904 q 550 882 500 904 q 635 823 600 860 q 690 736 669 786 q 693 726 694 729 q 686 719 692 722 l 628 703 q 620 705 624 701 q 613 717 617 708 q 558 783 585 757 q 502 820 532 808 q 435 832 472 832 q 304 799 361 832 q 208 709 247 765 q 148 585 168 653 q 128 450 128 518 q 185 276 128 340 q 342 213 242 213 q 469 246 413 213 q 579 349 526 279 q 594 351 586 357 l 640 329 q 646 322 643 328 q 644 310 649 317 q 585 240 618 272 q 512 186 551 208 q 427 152 472 164 q 331 140 382 140 q 174 179 240 140 q 71 288 107 218 q 35 453 35 358 q 61 615 35 535 q 139 761 88 696 q 264 865 190 826 q 431 904 338 904 l 431 904 z "},"€":{"ha":814,"x_min":-18,"x_max":842,"o":"m 475 -14 q 299 22 374 -14 q 179 127 225 58 q 118 294 133 196 q 121 519 103 393 q 210 801 143 685 q 378 981 276 918 q 608 1044 479 1044 q 731 1022 675 1044 q 829 961 788 1000 q 831 944 842 954 l 782 900 q 771 897 776 896 q 763 904 765 899 q 694 944 732 928 q 611 960 657 960 q 358 846 457 960 q 228 508 260 732 q 230 268 207 365 q 317 122 253 171 q 489 74 382 74 q 556 81 524 74 q 616 102 588 89 q 668 132 644 115 q 676 131 672 132 q 681 126 679 131 l 714 76 q 719 69 717 74 q 718 61 721 65 q 603 6 665 26 q 475 -14 542 -14 l 475 -14 m 557 611 q 552 600 556 603 q 539 597 549 597 l 31 596 q 18 601 22 596 q 15 613 14 606 l 19 653 q 23 662 21 660 q 29 664 25 664 l 550 664 q 560 660 556 664 q 563 650 564 656 l 557 611 m 525 386 q 520 376 525 378 q 507 374 515 374 l -3 372 q -14 376 -10 372 q -18 388 -18 381 l -11 428 q -8 437 -11 435 q -1 439 -6 439 l 519 440 q 528 436 525 440 q 532 426 532 432 l 525 386 z "},"£":{"ha":844,"x_min":-35,"x_max":768,"o":"m -19 0 q -31 5 -26 0 q -33 17 -35 10 l -25 74 q -22 81 -24 79 q -14 82 -21 82 l 31 82 q 133 136 85 81 q 197 307 181 192 q 203 385 201 339 q 207 490 206 431 q 204 494 206 493 q 200 494 203 494 l 74 494 q 66 498 69 494 q 64 507 63 501 l 71 554 q 72 560 71 558 q 78 561 74 561 l 189 561 q 199 565 194 561 q 204 574 204 569 l 194 676 q 211 830 188 763 q 282 945 235 897 q 390 1019 329 993 q 518 1044 451 1044 q 632 1024 579 1044 q 720 971 685 1004 q 765 896 756 938 q 767 891 768 892 q 758 888 765 890 l 699 865 q 687 866 692 864 q 681 875 682 868 q 627 937 664 914 q 525 960 590 960 q 421 938 469 960 q 340 876 372 917 q 299 776 307 835 q 295 665 292 724 q 303 567 299 606 q 313 563 307 563 l 536 563 q 544 559 542 563 q 546 551 546 556 l 539 503 q 536 496 538 497 q 531 494 535 494 l 322 494 q 312 491 317 494 q 306 479 307 488 q 306 403 308 442 q 297 319 304 364 q 266 206 286 253 q 226 132 246 160 q 194 90 207 104 q 186 85 188 86 q 192 83 185 83 l 456 83 q 578 108 526 83 q 661 193 629 133 q 670 197 665 196 q 679 196 675 197 l 731 181 q 739 173 735 178 q 740 161 743 168 q 624 40 697 81 q 451 0 550 0 l -19 0 l -19 0 z "},"¥":{"ha":828,"x_min":111,"x_max":906,"o":"m 888 1031 q 901 1024 897 1031 q 899 1010 906 1018 l 494 463 q 485 449 488 457 q 481 425 482 442 l 422 19 q 416 3 421 7 q 397 0 411 0 l 338 0 q 322 6 326 0 q 318 21 317 13 l 374 415 q 375 434 375 428 q 371 449 375 440 l 115 1013 q 114 1026 111 1021 q 128 1031 117 1031 l 204 1031 q 222 1026 217 1031 q 229 1013 226 1022 l 433 546 q 445 535 440 533 q 457 550 450 538 l 800 1018 q 811 1029 807 1028 q 826 1031 815 1031 l 888 1031 l 888 1031 m 699 421 q 694 410 697 413 q 681 407 690 407 l 169 407 q 158 411 163 407 q 154 422 153 415 l 160 463 q 163 472 161 469 q 169 474 165 474 l 692 475 q 701 471 697 475 q 704 461 706 467 l 699 421 m 671 219 q 665 209 669 211 q 651 207 661 207 l 142 206 q 129 210 133 206 q 126 222 125 214 l 132 261 q 135 270 133 268 q 142 272 136 272 l 664 274 q 673 269 668 274 q 676 260 678 265 l 671 219 z "},"ƒ":{"ha":597,"x_min":-215,"x_max":644,"o":"m 533 736 q 542 732 539 736 q 543 722 544 728 l 528 674 q 523 667 526 668 q 514 665 519 665 l 344 665 q 335 661 339 665 q 329 651 332 657 l 106 -57 q 24 -190 79 -143 q -117 -236 -31 -236 l -200 -236 q -212 -231 -208 -236 q -214 -218 -215 -225 l -201 -176 q -189 -168 -197 -168 l -118 -167 q -35 -138 -67 -165 q 15 -46 -4 -111 l 238 657 q 239 663 240 661 q 233 665 238 665 l 135 665 q 126 669 129 665 q 125 679 124 674 l 142 726 q 145 734 142 732 q 154 736 149 736 l 250 736 q 261 740 257 736 q 268 751 265 744 l 301 857 q 384 987 328 943 q 522 1031 440 1031 l 631 1031 q 641 1026 638 1031 q 642 1014 644 1021 l 629 971 q 613 961 625 961 l 518 961 q 441 930 476 961 q 390 849 406 899 l 357 744 q 356 738 356 739 q 364 736 357 736 l 533 736 l 533 736 z "},"₣":{"ha":847,"x_min":-25,"x_max":868,"o":"m 458 214 q 453 204 457 207 q 440 201 450 201 l -8 200 q -21 204 -17 200 q -24 217 -25 208 l -18 257 q -15 265 -17 264 q -8 267 -12 267 l 451 268 q 461 264 457 268 q 464 254 465 260 l 458 214 m 225 1017 q 229 1028 226 1026 q 239 1031 232 1031 l 854 1031 q 865 1026 861 1031 q 867 1015 868 1022 l 858 958 q 854 949 857 951 q 843 947 851 947 l 338 947 q 324 943 329 947 q 317 929 319 939 l 264 556 q 265 547 263 549 q 275 544 268 544 l 722 544 q 733 540 729 544 q 735 529 736 536 l 728 472 q 725 464 726 465 q 715 463 724 463 l 268 463 q 256 458 261 463 q 249 446 251 454 l 189 13 q 185 2 188 4 q 174 0 182 0 l 101 0 q 88 5 92 0 q 85 19 83 10 l 225 1017 l 225 1017 z "},"₤":{"ha":844,"x_min":-35,"x_max":768,"o":"m 731 181 q 739 173 735 178 q 740 161 743 168 q 624 40 697 81 q 451 0 550 0 l -19 0 q -31 5 -26 0 q -33 17 -35 10 l -25 74 q -22 81 -24 79 q -14 82 -21 82 l 31 82 q 130 135 83 81 q 194 300 176 189 q 199 325 197 311 q 201 357 200 339 q 200 361 201 361 q 193 361 199 361 l 54 361 q 42 365 46 361 q 39 378 38 369 l 44 418 q 48 426 46 425 q 54 428 50 428 l 190 428 q 197 431 193 428 q 203 440 201 435 l 197 564 q 196 569 197 568 q 189 569 194 569 l 83 569 q 71 574 75 569 q 68 586 67 578 l 74 626 q 77 635 75 633 q 83 636 79 636 l 183 636 q 192 640 188 636 q 197 647 196 643 l 194 676 q 237 894 193 814 q 356 1010 281 975 q 518 1044 431 1044 q 632 1024 579 1044 q 720 971 685 1004 q 765 896 756 938 q 767 891 768 892 q 758 888 765 890 l 699 865 q 687 866 692 864 q 681 875 682 868 q 627 937 664 914 q 525 960 590 960 q 421 938 469 960 q 340 876 372 917 q 299 776 307 835 q 296 724 296 758 q 297 644 296 689 q 300 638 297 640 q 308 636 303 636 l 538 638 q 547 633 543 638 q 550 624 551 629 l 544 583 q 540 574 543 576 q 526 571 536 571 l 314 569 q 303 565 308 569 q 299 554 299 561 l 303 438 q 305 430 303 432 q 314 428 307 428 l 508 429 q 518 425 514 429 q 521 415 522 421 l 515 375 q 510 365 514 368 q 497 363 507 363 l 314 363 q 303 359 308 363 q 299 347 299 356 q 282 258 294 306 q 248 167 269 211 q 194 92 226 124 q 186 85 188 88 q 192 83 185 83 l 456 83 q 578 108 526 83 q 661 193 629 133 q 670 197 665 196 q 679 196 675 197 l 731 181 l 731 181 z "},"₦":{"ha":1007,"x_min":10,"x_max":1044,"o":"m 1038 633 q 1032 623 1036 625 q 1018 621 1028 621 l 60 619 q 48 624 51 619 q 44 636 44 628 l 50 674 q 52 682 50 681 q 58 683 54 683 l 1031 685 q 1040 681 1036 685 q 1043 671 1044 676 l 1038 633 m 1004 393 q 999 383 1003 385 q 986 381 994 381 l 26 379 q 14 383 18 379 q 11 396 10 388 l 15 433 q 19 442 18 440 q 25 443 21 443 l 997 444 q 1007 440 1003 444 q 1010 431 1011 436 l 1004 393 m 939 1031 q 951 1014 953 1031 l 811 13 q 796 0 810 0 l 747 0 q 733 2 739 0 q 721 13 726 4 l 275 831 q 264 840 269 842 q 257 826 258 839 l 143 14 q 138 3 142 6 q 125 0 135 0 l 64 0 q 52 5 56 0 q 50 18 49 10 l 190 1017 q 195 1028 193 1026 q 206 1031 197 1031 l 264 1031 q 278 1028 274 1031 q 288 1017 283 1025 l 724 208 q 738 199 731 197 q 747 214 746 200 l 860 1018 q 864 1028 861 1026 q 874 1031 867 1031 l 939 1031 z "},"₩":{"ha":1425,"x_min":31,"x_max":1461,"o":"m 1454 661 q 1449 650 1453 653 q 1435 647 1444 647 l 78 646 q 67 651 71 646 q 63 663 63 656 l 69 703 q 72 712 69 710 q 78 714 74 714 l 1449 714 q 1457 710 1453 714 q 1460 700 1461 706 l 1454 661 m 1424 439 q 1418 428 1422 431 q 1404 425 1414 425 l 47 424 q 35 428 39 424 q 32 440 31 433 l 38 481 q 41 490 39 488 q 47 492 43 492 l 1417 492 q 1425 488 1421 492 q 1428 478 1429 483 l 1424 439 m 1417 1031 q 1428 1025 1426 1031 q 1428 1008 1431 1019 l 1000 17 q 991 3 996 6 q 974 0 986 0 l 906 0 q 886 4 893 0 q 878 18 879 8 l 760 847 q 756 853 758 853 q 751 847 754 853 l 394 17 q 385 3 390 6 q 367 0 381 0 l 297 0 q 271 18 274 0 l 129 1013 q 131 1026 128 1022 q 144 1031 135 1031 l 211 1031 q 226 1026 222 1031 q 231 1014 229 1022 l 351 163 q 358 150 354 150 q 367 163 361 150 l 732 1019 q 740 1028 736 1026 q 754 1031 743 1031 l 817 1031 q 830 1026 826 1031 q 835 1014 833 1022 l 956 158 q 962 148 958 147 q 971 163 965 149 l 1336 1019 q 1344 1028 1339 1026 q 1357 1031 1349 1031 l 1417 1031 l 1417 1031 z "},"₫":{"ha":694,"x_min":38,"x_max":756,"o":"m 501 186 q 490 192 494 186 q 488 204 486 197 l 494 257 q 492 264 496 265 q 482 254 489 263 q 445 226 469 244 q 383 191 421 207 q 292 175 346 175 q 165 210 219 175 q 85 313 110 244 q 74 483 60 382 q 131 651 88 579 q 240 762 175 722 q 385 801 306 801 q 483 780 450 801 q 539 733 515 758 q 555 731 550 726 q 561 746 560 735 l 599 1019 q 602 1028 600 1026 q 611 1029 604 1029 l 669 1029 q 677 1025 674 1029 q 681 1014 681 1021 l 565 200 q 562 189 564 192 q 550 186 560 186 l 501 186 l 501 186 m 546 660 q 480 713 515 696 q 399 731 444 731 q 247 665 313 731 q 164 478 182 600 q 172 344 153 396 q 229 267 190 292 q 318 243 268 243 q 409 265 368 243 q 476 320 450 288 q 506 383 501 353 l 546 660 l 546 660 m 750 886 q 746 878 749 879 q 735 876 743 876 l 392 876 q 381 881 385 876 q 379 892 378 885 l 383 926 q 386 933 385 932 q 392 935 388 935 l 746 935 q 753 931 750 935 q 756 922 756 928 l 750 886 m 544 10 q 540 1 543 3 q 529 0 538 0 l 51 0 q 41 4 44 0 q 39 15 38 8 l 44 53 q 47 60 46 58 q 51 61 49 61 l 540 61 q 547 57 544 61 q 550 47 550 53 l 544 10 z "},"₹":{"ha":782,"x_min":22,"x_max":854,"o":"m 32 563 q 35 571 33 569 q 44 572 38 572 l 293 572 q 504 621 429 572 q 594 783 579 669 q 557 918 608 874 q 389 963 506 963 l 106 963 q 94 967 99 963 q 90 981 89 972 l 96 1017 q 100 1028 97 1026 q 110 1031 103 1031 l 404 1031 q 642 965 563 1031 q 704 774 721 900 q 655 641 693 693 q 566 558 617 589 q 464 511 515 528 q 456 507 458 511 q 451 499 453 503 l 567 21 q 551 0 572 0 l 475 0 q 461 6 467 0 q 456 18 456 11 l 351 481 q 344 492 350 489 q 324 494 338 494 l 43 494 q 27 499 32 494 q 24 510 22 503 l 32 563 l 32 563 m 847 981 q 842 969 846 972 q 828 967 838 967 l 108 965 q 96 970 100 965 q 93 982 92 975 l 99 1019 q 102 1028 100 1026 q 108 1031 104 1031 l 840 1032 q 850 1028 846 1032 q 853 1018 854 1024 l 847 981 m 815 760 q 810 749 814 751 q 797 747 807 747 l 76 746 q 65 750 69 746 q 61 763 61 754 l 68 800 q 71 808 68 807 q 78 810 74 810 l 810 811 q 819 807 815 811 q 822 797 822 803 l 815 760 z "},"₺":{"ha":736,"x_min":25,"x_max":715,"o":"m 124 0 q 110 6 114 0 q 107 19 106 11 l 247 1017 q 251 1028 249 1026 q 261 1031 254 1031 l 338 1031 q 349 1026 344 1031 q 350 1011 353 1021 l 224 94 q 223 85 222 86 q 232 83 224 83 l 296 83 q 479 142 397 83 q 628 335 561 201 q 633 337 631 338 q 640 335 636 336 l 706 317 q 712 311 708 315 q 713 297 715 307 q 633 172 678 226 q 531 78 588 117 q 410 19 475 39 q 269 0 344 0 l 124 0 m 528 688 q 527 674 529 679 q 511 664 525 668 l 85 517 q 71 518 75 514 q 65 529 67 522 l 56 569 q 54 581 54 576 q 60 588 54 585 l 501 739 q 513 738 510 742 q 518 728 517 733 l 528 688 m 501 457 q 499 444 503 449 q 485 433 496 439 l 57 286 q 43 288 49 283 q 38 299 38 292 l 26 339 q 26 351 25 347 q 33 357 26 356 l 474 510 q 485 507 481 511 q 490 497 490 503 l 501 457 z "},"₡":{"ha":833,"x_min":35,"x_max":694,"o":"m 467 846 q 457 834 464 836 q 440 833 450 832 l 415 842 q 401 868 394 850 l 464 1019 q 472 1029 467 1028 q 485 1031 476 1031 l 522 1031 q 534 1024 532 1031 q 532 1008 536 1017 l 467 846 l 467 846 m 618 846 q 608 834 614 836 q 592 833 601 832 l 567 842 q 553 868 546 850 l 615 1019 q 623 1029 618 1028 q 636 1031 628 1031 l 674 1031 q 685 1024 682 1031 q 683 1008 688 1017 l 618 846 l 618 846 m 382 10 q 375 1 379 1 q 361 0 371 0 l 325 0 q 314 8 317 1 q 313 22 311 15 l 379 185 q 389 197 383 194 q 406 197 394 200 l 431 189 q 445 179 442 186 q 446 163 449 172 l 382 10 l 382 10 m 231 10 q 224 1 228 1 q 210 0 219 0 l 174 0 q 163 8 165 1 q 161 22 160 15 l 228 185 q 238 197 232 194 q 256 197 243 200 l 279 189 q 294 179 290 186 q 294 163 297 172 l 231 10 l 231 10 m 431 893 q 550 871 500 893 q 635 812 600 849 q 690 725 669 775 q 693 715 694 718 q 686 708 692 711 l 628 692 q 620 694 624 690 q 613 706 617 697 q 558 772 585 746 q 502 809 532 797 q 435 821 472 821 q 304 788 361 821 q 208 698 247 754 q 148 574 168 642 q 128 439 128 507 q 185 265 128 329 q 342 201 242 201 q 469 235 413 201 q 579 338 526 268 q 594 340 586 346 l 640 318 q 646 311 643 317 q 644 299 649 306 q 585 229 618 261 q 512 175 551 197 q 427 141 472 153 q 331 129 382 129 q 174 168 240 129 q 71 277 107 207 q 35 442 35 347 q 61 604 35 524 q 139 750 88 685 q 264 854 190 815 q 431 893 338 893 l 431 893 z "},"¤":{"ha":732,"x_min":75,"x_max":697,"o":"m 354 265 q 279 278 314 265 q 219 311 244 290 q 208 313 213 314 q 199 306 203 311 l 131 246 q 117 242 122 240 q 104 250 111 244 l 82 276 q 76 290 76 283 q 82 301 75 296 l 150 360 q 157 386 160 372 q 135 448 143 414 q 135 522 128 482 q 156 597 142 561 q 196 664 171 632 q 200 679 206 672 l 149 738 q 143 751 143 744 q 149 765 143 758 l 179 790 q 192 796 188 797 q 203 788 197 794 l 256 726 q 263 725 258 724 q 272 729 267 726 q 343 759 306 749 q 417 769 381 769 q 490 757 456 769 q 550 724 525 744 q 562 723 557 721 q 571 729 567 725 l 646 794 q 655 797 651 799 q 663 790 658 794 l 693 756 q 697 747 696 750 q 694 739 697 743 l 617 672 q 611 654 608 664 q 634 590 626 626 q 636 514 642 554 q 615 440 631 476 q 576 375 600 404 q 569 367 572 371 q 571 360 567 364 l 626 294 q 632 285 631 289 q 629 276 633 281 l 589 242 q 581 240 585 238 q 574 246 576 242 l 519 311 q 510 313 514 314 q 503 308 506 313 q 430 276 468 288 q 354 265 392 265 l 354 265 m 360 344 q 453 370 410 344 q 526 436 497 396 q 561 522 556 476 q 551 606 568 568 q 499 668 535 644 q 417 692 464 692 q 322 666 367 692 q 249 601 278 640 q 214 514 221 561 q 225 431 208 469 q 276 368 242 392 q 360 344 311 344 l 360 344 z "},"!":{"ha":332,"x_min":56,"x_max":314,"o":"m 176 17 q 170 3 174 6 q 154 0 167 0 l 74 0 q 60 6 64 0 q 57 19 56 11 l 72 124 q 76 134 74 132 q 83 136 78 136 l 179 136 q 188 132 185 136 q 192 119 192 128 l 176 17 m 182 246 q 177 235 181 238 q 164 232 174 232 l 132 232 q 119 236 124 232 q 117 249 115 240 l 201 1019 q 205 1028 203 1026 q 211 1031 207 1031 l 303 1031 q 311 1026 308 1031 q 314 1017 314 1021 l 182 246 z "},"¡":{"ha":332,"x_min":28,"x_max":276,"o":"m 260 611 q 257 602 258 604 q 249 600 256 600 l 154 600 q 144 605 149 600 q 142 618 140 610 l 157 721 q 161 733 158 731 q 174 736 164 736 l 253 736 q 272 731 267 736 q 275 714 276 725 l 260 611 l 260 611 m 140 -219 q 138 -227 140 -225 q 131 -229 136 -229 l 40 -229 q 31 -225 35 -229 q 29 -214 28 -221 l 151 493 q 155 502 153 500 q 165 504 157 504 l 197 504 q 213 499 207 504 q 215 486 218 494 l 140 -219 l 140 -219 z "},"?":{"ha":721,"x_min":113,"x_max":742,"o":"m 351 17 q 345 3 349 6 q 329 0 342 0 l 249 0 q 235 6 240 0 q 232 19 231 11 l 247 124 q 251 134 249 132 q 258 136 253 136 l 354 136 q 363 132 360 136 q 367 119 367 128 l 351 17 m 122 849 q 115 857 117 851 q 115 869 113 863 q 263 998 172 951 q 458 1044 354 1044 q 616 1013 551 1044 q 711 923 681 981 q 731 789 742 865 q 685 664 722 718 q 598 565 647 610 q 499 474 549 519 q 413 373 450 428 q 365 244 376 318 q 353 235 363 235 l 297 235 q 285 241 290 235 q 283 257 281 247 q 330 394 293 336 q 414 501 367 453 q 509 593 461 549 q 591 686 557 638 q 633 796 625 735 q 596 921 644 875 q 456 967 547 967 q 353 948 406 967 q 260 898 301 929 q 197 828 218 867 q 193 825 196 825 q 183 826 190 825 l 122 849 z "},"¿":{"ha":711,"x_min":-21,"x_max":608,"o":"m 361 719 q 367 733 363 731 q 383 736 371 736 l 463 736 q 476 731 471 736 q 479 717 482 725 l 464 613 q 461 603 463 606 q 453 600 460 600 l 358 600 q 348 605 351 600 q 346 617 344 610 l 361 719 m 599 -47 q 606 -56 603 -50 q 604 -68 608 -61 q 458 -196 550 -149 q 261 -243 367 -243 q 101 -211 165 -243 q 8 -122 38 -179 q -10 13 -21 -64 q 25 110 -1 69 q 88 183 51 150 q 167 244 125 215 q 245 308 208 274 q 309 388 282 343 q 346 493 336 432 q 358 503 349 503 l 414 503 q 426 497 421 503 q 429 482 431 492 q 382 347 417 401 q 301 254 347 293 q 208 181 254 215 q 128 105 163 146 q 86 6 94 64 q 125 -119 76 -74 q 265 -164 174 -164 q 367 -145 315 -164 q 461 -95 419 -126 q 522 -26 503 -64 q 528 -22 526 -22 q 536 -25 529 -22 l 599 -47 z "},",":{"ha":281,"x_min":-21,"x_max":171,"o":"m -10 -193 q -12 -178 -21 -193 l 72 -21 q 74 -6 76 -11 q 61 0 72 0 l 44 0 q 34 3 36 0 q 33 11 32 6 l 49 122 q 53 132 49 128 q 63 136 57 136 l 160 136 q 168 122 171 136 l 154 28 q 151 17 153 22 q 147 10 150 13 l 28 -179 q 19 -190 24 -186 q 6 -193 14 -193 l -10 -193 l -10 -193 z "},".":{"ha":275,"x_min":26,"x_max":163,"o":"m 147 17 q 142 3 146 6 q 125 0 138 0 l 46 0 q 31 6 35 0 q 28 19 26 11 l 43 125 q 47 135 44 132 q 56 138 50 138 l 150 138 q 160 133 157 138 q 163 121 163 129 l 147 17 z "},":":{"ha":275,"x_min":28,"x_max":243,"o":"m 226 581 q 221 567 225 571 q 204 564 217 564 l 125 564 q 110 569 114 564 q 107 583 106 575 l 122 688 q 126 698 124 696 q 135 700 129 700 l 229 700 q 240 696 236 700 q 242 683 243 692 l 226 581 m 149 21 q 142 8 147 11 q 125 4 138 4 l 46 4 q 31 10 35 4 q 29 24 28 15 l 43 128 q 47 138 44 136 q 56 140 50 140 l 150 140 q 160 136 157 140 q 163 124 164 132 l 149 21 z "},";":{"ha":307,"x_min":-18,"x_max":243,"o":"m -6 -194 q -15 -188 -11 -194 q -15 -175 -18 -182 l 71 -17 q 75 -3 75 -7 q 64 0 75 0 l 49 0 q 36 5 40 0 q 33 17 32 10 l 49 128 q 52 135 50 133 q 60 136 54 136 l 157 136 q 165 132 163 136 q 168 122 168 128 l 154 24 q 150 6 153 13 l 31 -185 q 21 -192 26 -190 q 7 -194 15 -194 l -6 -194 l -6 -194 m 124 563 q 110 568 114 563 q 107 582 106 574 l 122 686 q 126 697 124 694 q 133 700 129 700 l 229 700 q 240 696 236 700 q 240 683 243 692 l 226 579 q 220 565 224 568 q 203 563 217 563 l 124 563 l 124 563 z "},"…":{"ha":992,"x_min":-25,"x_max":804,"o":"m 789 17 q 783 3 788 6 q 767 0 779 0 l 688 0 q 672 6 676 0 q 669 19 668 11 l 685 125 q 689 135 686 132 q 697 138 692 138 l 792 138 q 801 133 799 138 q 804 121 804 129 l 789 17 m 96 17 q 90 3 94 6 q 74 0 86 0 l -6 0 q -21 6 -17 0 q -24 19 -25 11 l -8 125 q -4 135 -7 132 q 4 138 -1 138 l 99 138 q 108 133 106 138 q 111 121 111 129 l 96 17 m 442 17 q 436 3 440 6 q 419 0 432 0 l 340 0 q 325 6 329 0 q 322 19 321 11 l 338 125 q 342 135 339 132 q 350 138 344 138 l 444 138 q 454 133 451 138 q 457 121 457 129 l 442 17 z "},"·":{"ha":263,"x_min":75,"x_max":229,"o":"m 214 469 q 209 456 213 458 q 192 453 206 453 l 93 453 q 79 458 83 453 q 76 472 75 464 l 92 572 q 95 583 93 581 q 103 585 97 585 l 217 585 q 226 581 224 585 q 228 569 229 576 l 214 469 z "},"•":{"ha":422,"x_min":110,"x_max":356,"o":"m 221 406 q 161 422 188 406 q 122 467 135 439 q 115 528 110 494 q 138 586 119 561 q 185 626 157 611 q 246 642 214 642 q 304 625 279 642 q 342 581 329 608 q 350 519 356 553 q 327 462 346 488 q 281 421 308 436 q 221 406 253 406 l 221 406 z "},"_":{"ha":710,"x_min":18,"x_max":556,"o":"m 549 -140 q 543 -151 547 -149 q 529 -154 539 -154 l 33 -154 q 22 -150 25 -154 q 19 -139 18 -146 l 26 -87 q 30 -78 28 -81 q 36 -76 32 -76 l 542 -75 q 551 -79 547 -75 q 554 -89 556 -83 l 549 -140 z "},"-":{"ha":529,"x_min":86,"x_max":443,"o":"m 435 343 q 429 332 433 335 q 415 329 425 329 l 103 329 q 90 333 94 329 q 88 344 86 338 l 94 396 q 98 405 96 403 q 104 407 100 407 l 429 408 q 439 404 435 408 q 442 394 443 400 l 435 343 z "},"­":{"ha":529,"x_min":35,"x_max":392,"o":"m 383 343 q 378 332 382 335 q 364 329 374 329 l 51 329 q 39 333 43 329 q 36 344 35 338 l 43 396 q 47 405 44 403 q 53 407 49 407 l 378 408 q 388 404 383 408 q 390 394 392 400 l 383 343 z "},"–":{"ha":765,"x_min":85,"x_max":678,"o":"m 669 333 q 665 323 669 325 q 650 321 660 321 l 100 319 q 88 324 92 319 q 85 336 85 328 l 93 386 q 97 395 94 393 q 103 397 99 397 l 664 399 q 674 394 669 399 q 676 385 678 390 l 669 333 z "},"—":{"ha":1213,"x_min":85,"x_max":1125,"o":"m 1117 333 q 1111 323 1115 325 q 1097 321 1107 321 l 100 319 q 88 324 92 319 q 85 336 85 328 l 93 386 q 97 395 94 393 q 103 397 99 397 l 1111 399 q 1121 394 1117 399 q 1124 385 1125 390 l 1117 333 z "},"'":{"ha":331,"x_min":186,"x_max":324,"o":"m 251 747 q 245 735 249 739 q 232 732 242 732 l 201 732 q 190 737 193 732 q 186 749 186 742 l 193 1021 q 197 1029 194 1028 q 204 1031 200 1031 l 310 1031 q 319 1026 315 1031 q 321 1017 324 1022 l 251 747 z "},"\"":{"ha":546,"x_min":135,"x_max":488,"o":"m 415 747 q 409 735 413 739 q 396 732 406 732 l 365 732 q 353 737 357 732 q 350 749 350 742 l 357 1021 q 361 1029 358 1028 q 368 1031 364 1031 l 474 1031 q 483 1026 479 1031 q 485 1017 488 1022 l 415 747 m 200 747 q 194 735 197 739 q 181 732 190 732 l 150 732 q 138 737 142 732 q 135 749 135 742 l 142 1021 q 146 1029 143 1028 q 153 1031 149 1031 l 258 1031 q 268 1026 264 1031 q 269 1017 272 1022 l 200 747 z "},"‘":{"ha":301,"x_min":181,"x_max":382,"o":"m 372 1031 q 378 1019 382 1031 l 296 889 q 301 864 283 865 l 325 864 q 336 860 335 863 q 338 853 338 858 l 322 742 q 316 732 321 736 q 307 728 311 728 l 189 728 q 182 729 183 728 q 182 736 181 731 l 194 838 q 197 843 196 840 q 200 847 199 846 l 325 1018 q 335 1027 328 1024 q 349 1031 343 1031 l 372 1031 l 372 1031 z "},"’":{"ha":301,"x_min":115,"x_max":318,"o":"m 125 728 q 119 739 115 728 l 201 869 q 194 894 214 893 l 172 896 q 162 898 164 896 q 160 907 160 900 l 175 1017 q 181 1026 176 1022 q 190 1031 185 1031 l 308 1031 q 316 1029 314 1031 q 315 1022 318 1028 l 303 921 q 300 916 301 918 q 297 911 299 914 l 172 740 q 163 731 169 735 q 147 728 156 728 l 125 728 l 125 728 z "},"‚":{"ha":301,"x_min":-12,"x_max":192,"o":"m 0 -168 q -6 -157 -12 -168 l 76 -25 q 69 0 88 -1 l 46 0 q 35 2 38 0 q 35 11 33 4 l 50 121 q 56 131 51 126 q 64 135 60 135 l 182 135 q 190 133 188 135 q 190 126 192 132 l 176 26 q 174 20 175 22 q 171 15 172 18 l 47 -154 q 38 -165 44 -161 q 22 -168 31 -168 l 0 -168 l 0 -168 z "},"“":{"ha":529,"x_min":128,"x_max":560,"o":"m 364 728 q 357 729 358 728 q 356 736 356 731 l 371 838 q 373 843 371 840 q 376 847 375 846 l 500 1018 q 511 1027 504 1024 q 525 1031 518 1031 l 547 1031 q 553 1019 560 1031 l 471 889 q 478 864 460 865 l 501 864 q 512 860 510 863 q 513 853 514 858 l 496 742 q 492 732 496 736 q 482 728 488 728 l 364 728 l 364 728 m 136 728 q 129 729 131 728 q 129 736 128 731 l 143 838 q 145 843 143 840 q 149 847 147 846 l 272 1018 q 283 1027 276 1024 q 297 1031 290 1031 l 319 1031 q 325 1019 332 1031 l 243 889 q 250 864 232 865 l 274 864 q 285 860 283 863 q 285 853 286 858 l 269 742 q 264 732 268 736 q 254 728 260 728 l 136 728 l 136 728 z "},"”":{"ha":531,"x_min":115,"x_max":544,"o":"m 351 728 q 347 739 343 728 l 428 869 q 422 894 440 893 l 399 896 q 390 898 392 896 q 388 907 388 900 l 403 1017 q 408 1026 404 1022 q 418 1031 413 1031 l 536 1031 q 543 1029 542 1031 q 543 1022 544 1028 l 531 921 q 528 916 529 918 q 525 911 526 914 l 400 740 q 390 731 397 735 q 375 728 383 728 l 351 728 l 351 728 m 125 728 q 119 739 115 728 l 201 869 q 194 894 214 893 l 172 896 q 162 898 164 896 q 160 907 160 900 l 175 1017 q 181 1026 176 1022 q 190 1031 185 1031 l 308 1031 q 316 1029 314 1031 q 315 1022 318 1028 l 303 921 q 300 916 301 918 q 297 911 299 914 l 172 740 q 163 731 169 735 q 147 728 156 728 l 125 728 l 125 728 z "},"„":{"ha":479,"x_min":-64,"x_max":368,"o":"m 176 -168 q 171 -157 164 -168 l 253 -25 q 246 0 264 -1 l 222 0 q 212 2 214 0 q 211 11 210 4 l 226 121 q 232 131 228 126 q 240 135 236 135 l 358 135 q 366 133 364 135 q 367 126 368 132 l 353 26 q 350 20 351 22 q 347 15 349 18 l 224 -154 q 214 -165 221 -161 q 199 -168 207 -168 l 176 -168 l 176 -168 m -51 -168 q -57 -157 -64 -168 l 25 -25 q 18 0 36 -1 l -6 0 q -16 2 -14 0 q -17 11 -18 4 l -1 121 q 4 131 0 126 q 13 135 8 135 l 131 135 q 138 133 136 135 q 139 126 140 132 l 125 26 q 122 20 124 22 q 119 15 121 18 l -4 -154 q -14 -165 -7 -161 q -29 -168 -21 -168 l -51 -168 l -51 -168 z "},"ʼ":{"ha":194,"x_min":85,"x_max":244,"o":"m 90 656 q 85 658 85 656 q 86 665 85 661 l 154 829 q 147 847 160 846 l 139 847 q 130 849 132 847 q 129 858 128 851 l 151 1017 q 157 1026 153 1022 q 165 1031 161 1031 l 238 1031 q 243 1029 242 1031 q 243 1024 244 1028 l 219 850 q 217 847 218 849 q 217 843 217 844 l 143 669 q 118 656 138 656 l 90 656 l 90 656 z "},"(":{"ha":386,"x_min":89,"x_max":453,"o":"m 219 -229 q 206 -215 208 -229 q 134 -24 163 -119 q 97 176 106 72 q 106 400 89 281 q 206 733 129 572 q 388 1025 283 893 q 410 1031 397 1031 l 442 1031 q 451 1025 449 1031 q 451 1014 453 1019 q 342 823 393 925 q 253 611 290 721 q 200 390 217 501 q 194 85 178 235 q 261 -222 211 -64 q 256 -229 268 -229 l 219 -229 l 219 -229 z "},")":{"ha":386,"x_min":-57,"x_max":307,"o":"m -44 -229 q -54 -224 -51 -229 q -54 -212 -57 -218 q 56 -22 4 -124 q 144 190 107 81 q 197 411 182 300 q 203 717 219 568 q 136 1024 186 865 q 140 1031 128 1031 l 176 1031 q 190 1017 189 1031 q 263 825 235 921 q 299 625 292 729 q 290 401 307 521 q 190 69 267 229 q 8 -224 113 -92 q -12 -229 0 -229 l -44 -229 l -44 -229 z "},"[":{"ha":388,"x_min":53,"x_max":460,"o":"m 71 -229 q 58 -224 63 -229 q 54 -211 53 -219 l 225 1021 q 229 1029 226 1028 q 240 1031 232 1031 l 446 1031 q 456 1028 453 1031 q 458 1019 460 1025 l 451 971 q 448 965 450 965 q 442 964 446 964 l 321 964 q 308 958 313 964 q 303 946 303 953 l 146 -153 q 147 -161 146 -160 q 156 -162 147 -162 l 276 -162 q 287 -167 283 -162 q 290 -178 290 -171 l 283 -218 q 281 -227 282 -225 q 271 -229 279 -229 l 71 -229 l 71 -229 z "},"]":{"ha":388,"x_min":-62,"x_max":346,"o":"m -49 -229 q -59 -226 -56 -229 q -61 -218 -62 -224 l -54 -169 q -51 -163 -53 -164 q -44 -162 -49 -162 l 76 -162 q 90 -157 85 -162 q 94 -144 94 -151 l 251 954 q 251 963 251 963 q 242 964 250 964 l 121 964 q 111 968 115 964 q 108 979 107 972 l 114 1019 q 117 1029 115 1028 q 126 1031 119 1031 l 326 1031 q 341 1026 336 1031 q 343 1013 346 1021 l 172 -219 q 169 -228 171 -226 q 157 -229 167 -229 l -49 -229 l -49 -229 z "},"{":{"ha":403,"x_min":1,"x_max":474,"o":"m 249 -229 q 176 -219 206 -229 q 126 -190 146 -208 q 100 -145 107 -171 q 97 -89 93 -119 l 142 229 q 134 294 146 263 q 92 348 122 326 q 13 369 63 369 q 5 373 8 369 q 3 383 1 376 l 8 426 q 10 433 10 432 q 13 435 11 435 q 137 480 92 436 q 192 586 182 524 l 236 897 q 266 969 243 939 q 328 1015 289 999 q 418 1031 367 1031 l 461 1031 q 470 1028 467 1031 q 472 1019 474 1025 l 467 971 q 463 965 465 965 q 456 964 461 964 l 424 964 q 367 954 389 964 q 335 928 346 944 q 321 888 325 913 l 278 574 q 246 483 269 519 q 190 429 222 447 q 122 406 158 411 q 109 402 113 406 q 113 397 106 399 q 178 376 149 394 q 222 322 207 358 q 228 228 236 286 l 183 -89 q 194 -145 178 -128 q 263 -162 211 -162 l 292 -162 q 302 -167 299 -162 q 306 -178 306 -171 l 300 -218 q 297 -227 299 -225 q 286 -229 294 -229 l 249 -229 l 249 -229 z "},"}":{"ha":403,"x_min":-62,"x_max":410,"o":"m -49 -229 q -59 -226 -56 -229 q -61 -218 -62 -224 l -54 -169 q -51 -163 -53 -164 q -44 -162 -49 -162 l -11 -162 q 44 -153 22 -162 q 77 -126 65 -143 q 92 -86 89 -110 l 135 228 q 167 319 143 283 q 223 373 190 354 q 289 396 256 392 q 303 399 299 396 q 299 404 307 403 q 235 425 264 407 q 191 480 206 443 q 183 574 176 517 l 228 890 q 218 947 233 931 q 150 964 203 964 l 119 964 q 110 968 114 964 q 107 979 107 972 l 113 1019 q 116 1029 114 1028 q 125 1031 118 1031 l 164 1031 q 236 1020 206 1031 q 286 991 267 1010 q 313 947 306 972 q 314 890 319 921 l 269 572 q 277 507 265 539 q 319 453 289 475 q 399 432 349 432 q 406 428 403 432 q 408 418 410 425 l 403 375 q 401 368 401 369 q 397 367 400 367 q 274 322 318 365 q 219 215 229 278 l 176 -96 q 147 -167 171 -137 q 85 -213 124 -197 q -7 -229 46 -229 l -49 -229 l -49 -229 z "},"«":{"ha":606,"x_min":50,"x_max":574,"o":"m 497 111 q 498 105 500 106 q 488 104 496 104 l 458 104 q 449 108 453 104 q 444 114 444 111 l 297 346 q 292 359 293 353 q 296 371 290 365 l 514 618 q 520 622 518 622 q 526 622 522 622 l 560 622 q 569 618 564 622 q 569 607 574 614 l 389 364 q 384 355 386 360 q 385 344 382 350 l 497 111 m 256 111 q 257 105 258 106 q 247 104 256 104 l 217 104 q 208 108 213 104 q 204 114 204 111 l 56 346 q 51 359 53 353 q 54 371 50 365 l 274 618 q 278 622 276 622 q 285 622 281 622 l 318 622 q 328 618 324 622 q 328 607 332 614 l 149 364 q 142 355 144 360 q 143 344 140 350 l 256 111 z "},"»":{"ha":604,"x_min":32,"x_max":553,"o":"m 211 350 q 217 359 215 354 q 217 369 219 364 l 106 611 q 106 620 104 618 q 111 622 107 622 l 144 622 q 157 613 151 622 l 306 367 q 310 355 310 361 q 304 342 310 349 l 89 108 q 85 106 88 107 q 78 104 82 104 l 47 104 q 36 107 40 104 q 33 115 32 110 l 211 350 l 211 350 m 453 350 q 459 359 457 354 q 458 369 461 364 l 346 611 q 346 620 344 618 q 353 622 347 622 l 386 622 q 397 613 392 622 l 547 367 q 551 355 550 361 q 546 342 553 349 l 329 108 q 326 106 328 107 q 318 104 324 104 l 288 104 q 276 107 281 104 q 274 115 272 110 l 453 350 l 453 350 z "},"‹":{"ha":363,"x_min":50,"x_max":332,"o":"m 256 111 q 257 105 258 106 q 247 104 256 104 l 217 104 q 208 108 213 104 q 204 114 204 111 l 56 346 q 51 359 53 353 q 54 371 50 365 l 274 618 q 278 622 276 622 q 285 622 281 622 l 318 622 q 328 618 324 622 q 328 607 332 614 l 149 364 q 142 355 144 360 q 143 344 140 350 l 256 111 z "},"›":{"ha":364,"x_min":32,"x_max":311,"o":"m 213 350 q 219 359 217 354 q 218 369 221 364 l 106 611 q 106 620 104 618 q 113 622 108 622 l 146 622 q 158 613 153 622 l 307 367 q 311 355 311 361 q 306 342 311 349 l 90 108 q 85 106 88 107 q 78 104 83 104 l 47 104 q 36 107 40 104 q 35 115 32 110 l 213 350 l 213 350 z "},"+":{"ha":765,"x_min":107,"x_max":700,"o":"m 692 493 q 688 483 692 485 q 674 481 683 481 l 122 479 q 111 483 115 479 q 108 496 107 488 l 115 544 q 119 553 117 551 q 125 556 121 556 l 688 556 q 696 551 692 556 q 700 542 700 547 l 692 493 m 343 225 q 331 231 335 225 q 328 247 326 238 l 404 797 q 408 808 406 807 q 418 810 410 810 l 467 810 q 478 806 474 810 q 479 797 482 801 l 403 235 q 399 228 401 231 q 392 225 397 225 l 343 225 z "},"−":{"ha":765,"x_min":107,"x_max":700,"o":"m 692 493 q 688 483 692 485 q 674 481 683 481 l 122 479 q 111 483 115 479 q 108 496 107 488 l 115 544 q 119 553 117 551 q 125 556 121 556 l 688 556 q 696 551 692 556 q 700 542 700 547 l 692 493 z "},"±":{"ha":765,"x_min":54,"x_max":714,"o":"m 639 114 q 634 103 638 106 q 621 101 631 101 l 69 100 q 58 104 61 100 q 56 117 54 108 l 63 165 q 66 174 64 172 q 72 176 68 176 l 633 178 q 642 173 639 178 q 646 163 646 168 l 639 114 m 707 596 q 701 585 704 588 q 688 583 697 583 l 138 582 q 126 586 129 582 q 122 599 122 590 l 131 647 q 133 656 131 654 q 140 658 136 658 l 701 660 q 710 655 707 660 q 714 644 714 650 l 707 596 m 358 328 q 345 334 350 328 q 342 350 340 340 l 419 900 q 423 911 421 910 q 432 913 425 913 l 481 913 q 492 908 488 913 q 494 900 496 904 l 417 338 q 413 331 415 333 q 406 328 411 328 l 358 328 z "},"×":{"ha":736,"x_min":85,"x_max":699,"o":"m 590 247 q 578 244 583 242 q 565 254 572 246 l 151 733 q 146 744 147 740 q 151 754 144 749 l 190 789 q 200 792 196 793 q 207 788 204 790 l 628 299 q 633 291 632 296 q 629 282 635 286 l 590 247 m 90 283 q 85 294 86 289 q 92 308 85 300 l 640 789 q 652 792 647 794 q 660 785 657 790 l 690 750 q 697 742 694 746 q 694 735 699 739 l 136 244 q 128 243 132 242 q 121 249 124 244 l 90 283 z "},"÷":{"ha":765,"x_min":107,"x_max":700,"o":"m 433 232 q 428 219 432 222 q 411 217 424 217 l 311 217 q 298 222 301 217 q 296 235 294 226 l 310 336 q 314 347 311 344 q 321 349 317 349 l 436 349 q 445 345 442 349 q 447 333 449 342 l 433 232 m 692 493 q 688 483 692 485 q 674 481 683 481 l 122 479 q 111 483 115 479 q 108 496 107 488 l 115 544 q 119 553 117 551 q 125 556 121 556 l 688 556 q 696 551 692 556 q 700 542 700 547 l 692 493 m 499 703 q 494 689 497 692 q 478 686 490 686 l 378 686 q 364 692 368 686 q 361 706 360 697 l 376 807 q 380 817 378 815 q 388 819 382 819 l 501 819 q 512 815 508 819 q 514 803 515 811 l 499 703 z "},"=":{"ha":765,"x_min":83,"x_max":719,"o":"m 713 632 q 707 621 711 624 q 693 618 703 618 l 142 617 q 131 622 135 617 q 128 633 126 626 l 135 682 q 138 691 136 689 q 144 693 140 693 l 707 694 q 715 690 711 694 q 718 681 719 686 l 713 632 m 668 321 q 663 310 667 313 q 650 308 660 308 l 100 307 q 88 311 92 307 q 85 324 83 315 l 90 372 q 94 381 93 379 q 101 383 96 383 l 663 383 q 672 379 668 383 q 675 369 676 375 l 668 321 z "},"≠":{"ha":833,"x_min":32,"x_max":668,"o":"m 203 114 q 194 104 197 106 q 183 103 190 103 l 146 103 q 135 107 139 103 q 135 117 132 111 l 582 876 q 589 883 586 882 q 597 885 592 885 l 633 885 q 642 879 640 885 q 642 865 644 874 l 203 114 m 661 632 q 656 621 660 624 q 642 618 651 618 l 90 617 q 79 622 83 617 q 76 633 75 626 l 83 682 q 87 691 85 689 q 93 693 89 693 l 656 694 q 664 690 660 694 q 667 681 668 686 l 661 632 m 617 321 q 612 310 615 313 q 599 308 608 308 l 49 307 q 36 311 40 307 q 33 324 32 315 l 39 372 q 43 381 42 379 q 50 383 44 383 l 611 383 q 621 379 617 383 q 624 369 625 375 l 617 321 z "},"≈":{"ha":774,"x_min":85,"x_max":728,"o":"m 719 628 q 656 586 697 606 q 556 567 615 567 q 484 577 515 567 q 426 601 453 588 q 370 624 399 614 q 304 635 342 635 q 215 615 251 635 q 153 569 179 594 q 143 568 147 565 q 138 579 139 571 l 124 617 q 122 626 122 622 q 128 635 122 631 q 204 683 164 663 q 301 704 244 704 q 373 694 342 704 q 433 670 404 683 q 492 647 463 657 q 557 636 521 636 q 640 655 608 636 q 692 696 671 674 q 704 698 700 701 q 711 686 708 694 l 724 650 q 719 628 728 643 l 719 628 m 682 354 q 618 313 660 332 q 517 293 576 293 q 442 303 474 293 q 384 327 411 314 q 329 351 357 340 q 265 361 301 361 q 176 341 213 361 q 114 296 140 321 q 104 295 108 292 q 99 306 100 299 l 86 343 q 85 353 85 349 q 89 361 85 357 q 166 410 125 389 q 264 431 207 431 q 334 420 303 431 q 394 397 365 410 q 453 373 424 383 q 518 363 483 363 q 601 381 569 363 q 654 422 633 400 q 666 424 661 428 q 672 413 671 421 l 686 376 q 682 354 689 369 l 682 354 z "},"<":{"ha":743,"x_min":90,"x_max":704,"o":"m 632 250 q 623 233 631 236 q 606 235 615 229 l 106 443 q 94 451 99 446 q 92 464 90 457 l 101 531 q 106 542 101 539 q 117 547 110 546 l 675 758 q 697 758 689 764 q 701 739 704 751 l 694 688 q 688 674 693 679 q 668 664 682 669 l 214 494 l 615 325 q 634 313 628 319 q 639 296 640 306 l 632 250 z "},">":{"ha":743,"x_min":76,"x_max":689,"o":"m 85 301 q 93 316 88 311 q 113 326 99 321 l 565 494 l 163 665 q 139 693 138 676 l 147 744 q 175 757 150 767 l 674 547 q 685 540 681 544 q 688 525 689 535 l 678 460 q 674 449 678 451 q 663 442 669 446 l 106 233 q 85 235 94 229 q 79 256 76 242 l 85 301 l 85 301 z "},"≤":{"ha":754,"x_min":42,"x_max":731,"o":"m 658 371 q 650 353 657 357 q 631 356 643 350 l 133 564 q 121 572 125 567 q 117 585 117 578 l 126 651 q 132 663 128 660 q 143 668 136 667 l 700 879 q 723 878 715 885 q 728 860 731 872 l 721 808 q 714 795 719 800 q 694 785 708 790 l 240 615 l 642 446 q 660 433 654 440 q 665 417 667 426 l 658 371 m 625 110 q 622 101 625 103 q 608 99 618 99 l 60 100 q 47 105 51 100 q 43 117 42 110 l 49 165 q 53 174 50 172 q 61 175 56 175 l 624 175 q 631 170 628 175 q 633 160 633 165 l 625 110 z "},"≥":{"ha":754,"x_min":56,"x_max":707,"o":"m 103 422 q 111 437 106 432 q 131 447 117 442 l 583 615 l 181 786 q 157 814 156 797 l 164 865 q 192 878 168 889 l 692 668 q 702 660 697 665 q 706 646 707 656 l 696 581 q 691 569 694 572 q 681 563 688 567 l 122 354 q 103 356 111 350 q 97 376 94 363 l 103 422 l 103 422 m 63 164 q 66 173 64 171 q 72 175 68 175 l 635 175 q 644 171 640 175 q 647 161 647 167 l 640 113 q 635 102 639 104 q 624 100 632 100 l 72 99 q 60 103 64 99 q 57 115 56 107 l 63 164 l 63 164 z "},"¬":{"ha":765,"x_min":107,"x_max":700,"o":"m 692 493 q 688 483 692 485 q 674 481 683 481 l 122 479 q 111 483 115 479 q 108 496 107 488 l 115 544 q 119 553 117 551 q 125 556 121 556 l 688 556 q 696 551 692 556 q 700 542 700 547 l 692 493 m 664 293 q 660 283 663 286 q 650 281 658 281 l 599 281 q 588 285 592 281 q 586 294 585 289 l 617 526 q 620 534 618 532 q 626 536 622 536 l 683 536 q 694 531 692 536 q 696 518 697 526 l 664 293 z "},"/":{"ha":467,"x_min":-43,"x_max":540,"o":"m -31 -69 q -40 -65 -37 -69 q -42 -57 -43 -61 l 460 1022 q 466 1029 463 1028 q 475 1031 469 1031 l 526 1031 q 538 1025 536 1031 q 536 1010 540 1019 l 43 -57 q 34 -67 39 -65 q 22 -69 29 -69 l -31 -69 l -31 -69 z "},"\\":{"ha":467,"x_min":110,"x_max":386,"o":"m 324 -69 q 307 -53 307 -69 l 111 1014 q 111 1027 110 1024 q 121 1031 113 1031 l 174 1031 q 184 1026 179 1031 q 188 1017 189 1022 l 386 -62 q 385 -68 386 -67 q 376 -69 383 -69 l 324 -69 l 324 -69 z "},"⁄":{"ha":340,"x_min":-256,"x_max":643,"o":"m -185 4 q -195 -3 -190 -1 q -210 -6 -200 -6 l -240 -6 q -253 3 -251 -6 q -250 19 -256 11 l 569 1035 q 578 1042 574 1042 q 589 1042 582 1042 l 626 1042 q 638 1038 633 1042 q 636 1025 643 1033 l -185 4 z "},"∕":{"ha":340,"x_min":-256,"x_max":643,"o":"m -185 4 q -195 -3 -190 -1 q -210 -6 -200 -6 l -240 -6 q -253 3 -251 -6 q -250 19 -256 11 l 569 1035 q 578 1042 574 1042 q 589 1042 582 1042 l 626 1042 q 638 1038 633 1042 q 636 1025 643 1033 l -185 4 z "},"%":{"ha":1263,"x_min":124,"x_max":1181,"o":"m 410 1046 q 526 1010 478 1046 q 597 908 575 975 q 604 747 618 840 q 553 589 592 654 q 458 490 515 524 q 335 456 401 456 q 217 491 267 456 q 145 594 167 526 q 136 756 124 661 q 189 913 150 849 q 285 1012 228 978 q 410 1046 342 1046 l 410 1046 m 333 513 q 426 544 385 513 q 494 630 467 575 q 532 754 522 685 q 513 924 546 858 q 408 989 481 989 q 315 958 357 989 q 247 871 274 926 q 208 746 219 815 q 228 578 196 643 q 333 513 260 513 l 333 513 m 971 576 q 1089 540 1040 576 q 1159 438 1138 504 q 1167 276 1181 371 q 1115 119 1153 183 q 1020 20 1076 54 q 897 -14 964 -14 q 778 22 828 -14 q 708 124 729 57 q 700 286 686 192 q 752 444 714 379 q 847 542 790 508 q 971 576 904 576 l 971 576 m 896 43 q 987 75 946 43 q 1057 162 1028 107 q 1094 285 1086 217 q 1092 406 1104 353 q 1049 489 1079 458 q 971 519 1018 519 q 880 487 922 519 q 809 399 838 454 q 771 275 781 344 q 774 157 763 210 q 817 74 786 104 q 896 43 849 43 l 896 43 m 260 4 q 249 -3 254 -1 q 235 -6 244 -6 l 204 -6 q 191 3 193 -6 q 196 19 189 11 l 1014 1035 q 1023 1042 1018 1042 q 1033 1042 1028 1042 l 1072 1042 q 1083 1038 1078 1042 q 1081 1025 1088 1033 l 260 4 z "},"‰":{"ha":1822,"x_min":124,"x_max":1740,"o":"m 410 1046 q 526 1010 478 1046 q 597 908 575 975 q 604 747 618 840 q 553 589 592 654 q 458 490 515 524 q 335 456 401 456 q 217 491 267 456 q 145 594 167 526 q 136 756 124 661 q 189 913 150 849 q 285 1012 228 978 q 410 1046 342 1046 l 410 1046 m 333 513 q 426 544 385 513 q 494 630 467 575 q 532 754 522 685 q 513 924 546 858 q 408 989 481 989 q 315 958 357 989 q 247 871 274 926 q 208 746 219 815 q 228 578 196 643 q 333 513 260 513 l 333 513 m 971 576 q 1089 540 1040 576 q 1159 438 1138 504 q 1167 276 1181 371 q 1115 119 1153 183 q 1020 20 1076 54 q 897 -14 964 -14 q 778 22 828 -14 q 708 124 729 57 q 700 286 686 192 q 752 444 714 379 q 847 542 790 508 q 971 576 904 576 l 971 576 m 896 43 q 987 75 946 43 q 1057 162 1028 107 q 1094 285 1086 217 q 1092 406 1104 353 q 1049 489 1079 458 q 971 519 1018 519 q 880 487 922 519 q 809 399 838 454 q 771 275 781 344 q 774 157 763 210 q 817 74 786 104 q 896 43 849 43 l 896 43 m 1532 576 q 1649 540 1600 576 q 1719 438 1697 504 q 1726 276 1740 371 q 1675 119 1714 183 q 1580 20 1636 54 q 1457 -14 1524 -14 q 1338 22 1388 -14 q 1268 124 1289 57 q 1260 286 1247 192 q 1312 444 1274 379 q 1408 542 1350 508 q 1532 576 1465 576 l 1532 576 m 1456 43 q 1547 75 1506 43 q 1617 162 1588 107 q 1656 285 1646 217 q 1652 406 1664 353 q 1609 489 1640 458 q 1531 519 1578 519 q 1440 487 1482 519 q 1370 399 1399 454 q 1332 275 1342 344 q 1335 157 1322 210 q 1378 74 1347 104 q 1456 43 1408 43 l 1456 43 m 274 4 q 263 -3 268 -1 q 249 -6 258 -6 l 218 -6 q 205 3 207 -6 q 210 19 203 11 l 1028 1035 q 1037 1042 1032 1042 q 1047 1042 1042 1042 l 1086 1042 q 1097 1038 1092 1042 q 1094 1025 1101 1033 l 274 4 z "},"|":{"ha":365,"x_min":63,"x_max":333,"o":"m 79 -229 q 67 -224 71 -229 q 64 -214 63 -219 l 257 1165 q 260 1174 258 1172 q 269 1176 263 1176 l 319 1176 q 331 1171 328 1176 q 332 1158 333 1165 l 139 -218 q 136 -227 138 -225 q 128 -229 135 -229 l 79 -229 z "},"¦":{"ha":365,"x_min":63,"x_max":333,"o":"m 196 611 q 184 616 188 611 q 182 626 181 621 l 257 1165 q 260 1174 258 1172 q 269 1176 263 1176 l 319 1176 q 331 1171 328 1176 q 332 1158 333 1165 l 257 622 q 253 613 256 615 q 244 611 251 611 l 196 611 m 79 -229 q 67 -224 71 -229 q 64 -214 63 -219 l 139 325 q 141 334 139 332 q 150 336 143 336 l 200 336 q 213 331 208 336 q 215 318 217 326 l 139 -218 q 136 -227 138 -225 q 128 -229 135 -229 l 79 -229 z "},"†":{"ha":597,"x_min":38,"x_max":629,"o":"m 614 660 q 625 656 621 660 q 628 647 629 651 l 618 576 q 616 569 618 571 q 608 568 614 567 l 376 581 q 365 577 369 581 q 360 564 361 574 l 268 -221 q 267 -228 268 -226 q 260 -229 265 -229 l 178 -229 q 168 -225 172 -229 q 167 -214 164 -221 l 296 569 q 293 579 296 578 q 281 581 290 581 l 50 567 q 41 571 44 567 q 38 581 38 575 l 49 651 q 51 658 49 656 q 60 660 53 660 l 286 649 q 299 654 296 649 q 304 668 303 660 l 339 1019 q 342 1029 340 1028 q 350 1031 344 1031 l 432 1031 q 441 1026 438 1031 q 443 1017 444 1022 l 379 663 q 380 651 378 654 q 390 650 382 649 l 614 660 l 614 660 z "},"‡":{"ha":597,"x_min":-24,"x_max":628,"o":"m 376 576 q 365 572 369 576 q 358 560 361 568 l 313 228 q 313 218 311 219 q 322 217 314 217 l 556 229 q 565 226 561 231 q 567 215 568 221 l 557 144 q 553 139 556 140 q 544 138 551 138 l 322 147 q 310 143 314 147 q 304 129 306 139 l 268 -221 q 267 -228 268 -226 q 260 -229 265 -229 l 178 -229 q 168 -225 172 -229 q 167 -214 164 -221 l 228 135 q 229 145 231 143 q 218 147 228 147 l -10 136 q -20 141 -17 136 q -22 150 -24 146 l -12 221 q -10 228 -11 226 q -3 229 -8 229 l 226 217 q 242 220 236 215 q 247 232 247 225 l 294 565 q 292 574 294 572 q 281 575 290 575 l 50 563 q 40 567 44 563 q 38 576 36 571 l 47 647 q 50 653 49 651 q 60 654 51 656 l 285 644 q 298 649 294 644 q 303 663 301 654 l 339 1019 q 342 1029 340 1028 q 350 1031 344 1031 l 432 1031 q 441 1026 438 1031 q 443 1017 444 1022 l 379 658 q 378 647 376 650 q 389 644 381 644 l 614 656 q 624 651 621 656 q 626 642 628 646 l 617 571 q 615 564 617 565 q 607 563 613 563 l 376 576 l 376 576 z "},"©":{"ha":1153,"x_min":53,"x_max":1142,"o":"m 526 -14 q 325 27 417 -14 q 171 142 233 68 q 81 312 108 215 q 68 519 53 408 q 138 724 83 628 q 274 891 192 819 q 457 1003 357 963 q 667 1044 557 1044 q 868 1003 776 1044 q 1022 888 960 961 q 1113 717 1085 814 q 1126 511 1142 621 q 1056 306 1111 401 q 919 138 1001 210 q 735 26 836 67 q 526 -14 635 -14 l 526 -14 m 529 60 q 708 92 622 60 q 867 185 794 125 q 987 331 939 246 q 1049 519 1035 415 q 1040 704 1064 621 q 961 847 1015 788 q 831 940 907 907 q 665 972 756 972 q 484 939 571 972 q 326 844 397 906 q 207 699 254 783 q 146 511 160 614 q 154 325 131 408 q 231 183 178 242 q 360 92 283 124 q 529 60 438 60 l 529 60 m 639 818 q 733 799 693 818 q 799 749 772 781 q 844 678 826 717 q 846 673 847 675 q 843 669 844 671 l 785 649 q 778 651 781 647 q 772 661 775 654 q 718 728 750 704 q 643 751 686 751 q 540 722 588 751 q 462 640 493 693 q 419 515 431 588 q 448 350 406 411 q 571 289 490 289 q 673 319 626 289 q 751 399 719 350 q 758 399 754 400 q 767 394 763 397 l 803 378 q 808 361 810 375 q 760 307 786 332 q 703 262 733 282 q 637 231 672 242 q 563 221 601 221 q 427 259 483 221 q 346 365 371 297 q 333 522 321 433 q 390 676 346 610 q 498 781 433 743 q 639 818 563 818 l 639 818 z "},"®":{"ha":757,"x_min":83,"x_max":771,"o":"m 385 382 q 222 427 292 382 q 117 549 151 472 q 96 717 83 625 q 164 882 110 808 q 298 1000 218 956 q 469 1044 378 1044 q 631 999 561 1044 q 736 878 701 954 q 758 708 771 801 q 690 544 746 618 q 555 426 635 469 q 385 382 475 382 l 385 382 m 385 439 q 532 473 465 439 q 644 570 599 507 q 699 717 689 633 q 685 860 711 799 q 605 954 660 921 q 471 988 550 988 q 322 953 389 988 q 210 855 254 918 q 154 708 167 792 q 201 512 138 585 q 385 439 265 439 l 385 439 m 524 551 q 524 547 525 549 q 521 546 524 546 l 478 546 q 474 549 476 546 q 472 553 472 551 l 438 699 q 437 701 436 701 q 429 701 438 701 l 360 701 q 354 699 357 701 q 350 693 351 696 l 331 550 q 331 547 331 547 q 326 546 331 546 l 288 546 q 283 549 285 546 q 282 554 281 551 l 326 871 q 326 875 326 875 q 328 875 326 875 l 468 875 q 546 852 519 875 q 567 788 572 829 q 539 732 563 750 q 493 706 515 714 q 488 704 490 706 q 486 701 485 703 l 524 551 l 524 551 m 442 744 q 490 755 468 744 q 515 792 511 765 q 506 820 517 808 q 454 832 494 832 l 378 832 q 373 831 375 832 q 369 825 371 831 l 358 746 q 358 744 358 744 q 361 744 358 744 l 442 744 l 442 744 z "},"™":{"ha":1265,"x_min":92,"x_max":1269,"o":"m 99 1024 q 107 1031 99 1031 l 568 1031 q 574 1028 572 1031 q 574 1022 575 1026 l 568 986 q 558 979 567 979 l 381 979 q 372 977 374 979 q 368 969 369 975 l 288 396 q 279 386 288 386 l 231 386 q 222 397 222 386 l 303 968 q 294 979 304 979 l 101 979 q 93 986 92 979 l 99 1024 m 593 386 q 585 389 586 386 q 586 399 585 392 l 674 1021 q 676 1029 675 1028 q 683 1031 678 1031 l 743 1031 q 753 1022 753 1031 l 889 489 q 894 482 892 481 q 901 490 897 483 l 1188 1022 q 1200 1031 1192 1031 l 1263 1031 q 1269 1021 1269 1031 l 1182 396 q 1179 388 1181 389 q 1171 386 1178 386 l 1128 386 q 1119 389 1122 386 q 1117 397 1115 392 l 1189 906 q 1188 908 1189 908 q 1185 906 1186 908 l 911 394 q 896 386 907 386 l 858 386 q 846 397 849 386 l 719 903 q 717 907 718 907 q 715 903 717 907 l 643 394 q 633 386 643 386 l 593 386 l 593 386 z "},"°":{"ha":644,"x_min":185,"x_max":632,"o":"m 622 971 q 580 862 614 910 q 494 787 546 814 q 382 760 443 760 q 272 788 318 760 q 206 867 226 817 q 193 981 185 917 q 235 1090 201 1043 q 321 1165 269 1138 q 433 1192 372 1192 q 542 1163 497 1192 q 610 1085 588 1135 q 622 971 632 1036 l 622 971 m 549 979 q 526 1082 558 1043 q 429 1121 494 1121 q 317 1078 364 1121 q 263 969 271 1036 q 285 866 254 906 q 381 826 317 826 q 493 869 447 826 q 549 979 539 911 l 549 979 z "},"*":{"ha":499,"x_min":107,"x_max":539,"o":"m 317 763 q 313 763 314 765 q 310 758 311 760 l 182 593 q 176 592 179 590 q 168 597 172 594 l 131 625 q 125 632 126 629 q 128 640 124 635 l 265 788 q 268 793 268 792 q 265 796 268 794 l 114 840 q 108 847 110 843 q 108 857 107 851 l 131 899 q 135 903 133 903 q 142 901 138 904 l 283 843 q 291 844 288 842 q 296 853 294 847 l 308 1024 q 311 1029 310 1028 q 319 1031 313 1031 l 374 1031 q 383 1026 379 1031 q 383 1018 386 1022 l 350 847 q 351 843 350 843 q 356 844 353 843 l 518 910 q 527 909 525 913 q 531 901 529 906 l 539 861 q 539 852 539 854 q 535 847 539 850 l 372 796 q 365 791 368 794 q 364 783 363 788 l 456 644 q 458 635 458 640 q 451 626 458 631 l 410 600 q 399 599 404 596 q 394 604 393 601 l 317 763 z "},"#":{"ha":838,"x_min":50,"x_max":829,"o":"m 190 13 q 184 1 188 4 q 174 0 181 -1 l 138 6 q 126 11 129 7 q 124 21 124 15 l 417 1021 q 423 1029 421 1026 q 429 1031 425 1032 l 469 1025 q 481 1018 478 1024 q 482 1004 485 1013 l 190 13 m 476 13 q 472 1 475 4 q 460 0 468 -1 l 424 6 q 413 11 417 7 q 410 21 410 15 l 704 1021 q 710 1029 707 1026 q 717 1031 713 1032 l 757 1025 q 768 1018 764 1024 q 769 1004 772 1013 l 476 13 m 736 354 q 731 343 735 346 q 718 340 728 340 l 67 340 q 54 345 58 340 q 51 357 50 350 l 57 396 q 61 405 58 403 q 68 407 64 407 l 731 407 q 739 403 735 407 q 742 393 743 399 l 736 354 m 824 646 q 818 635 822 638 q 804 632 814 632 l 153 632 q 141 637 144 632 q 139 649 138 642 l 144 688 q 149 697 146 694 q 156 699 151 699 l 818 699 q 826 694 822 699 q 829 685 829 690 l 824 646 z "},"&":{"ha":1058,"x_min":24,"x_max":993,"o":"m 547 1046 q 673 1020 619 1046 q 753 948 726 994 q 771 835 781 901 q 731 737 764 786 q 638 642 699 688 q 481 556 578 596 q 468 533 457 550 l 664 257 q 674 251 669 249 q 688 265 678 254 q 753 325 717 289 q 822 401 789 361 q 881 479 856 442 q 919 542 907 517 q 928 548 922 547 q 940 544 933 549 l 981 529 q 990 521 986 528 q 992 506 993 514 q 931 411 972 465 q 840 300 890 357 q 738 194 789 243 q 727 185 729 190 q 731 172 725 181 q 792 128 754 149 q 876 96 831 108 q 963 83 921 83 q 981 78 976 83 q 985 64 986 72 l 978 21 q 972 4 976 8 q 956 0 968 0 q 846 17 904 0 q 737 62 788 35 q 654 118 686 89 q 642 120 647 122 q 629 110 636 118 q 474 23 556 53 q 307 -7 393 -7 q 95 68 167 -7 q 40 267 24 143 q 108 416 51 347 q 285 553 165 485 q 306 567 303 561 q 299 590 310 574 q 241 687 258 636 q 232 794 224 738 q 287 924 242 867 q 400 1013 332 981 q 547 1046 468 1046 l 547 1046 m 547 975 q 440 949 486 975 q 366 880 394 922 q 331 788 338 838 q 334 719 325 753 q 369 650 343 686 l 400 611 q 410 608 403 607 q 424 614 417 608 q 611 723 551 668 q 679 844 671 778 q 649 943 690 911 q 547 975 608 975 l 547 975 m 379 489 q 363 499 372 500 q 342 490 354 497 q 205 394 260 456 q 140 258 150 332 q 181 122 129 174 q 324 69 233 69 q 456 97 390 69 q 571 168 521 125 q 586 183 582 175 q 585 199 590 190 l 379 489 l 379 489 z "},"@":{"ha":1158,"x_min":54,"x_max":1142,"o":"m 850 -67 q 701 -133 781 -108 q 536 -157 622 -157 q 314 -116 408 -157 q 160 -3 219 -75 q 77 164 100 69 q 69 368 54 258 q 139 578 85 479 q 276 754 193 678 q 467 874 360 831 q 697 918 575 918 q 870 892 786 918 q 1018 810 954 865 q 1112 670 1082 756 q 1125 467 1142 585 q 1065 283 1111 363 q 953 158 1019 203 q 813 113 888 113 q 751 121 776 113 q 714 147 726 129 q 699 193 701 165 q 693 199 697 201 q 683 186 689 196 q 596 119 646 146 q 476 93 546 93 q 385 124 425 93 q 325 210 344 154 q 315 343 306 267 q 372 503 328 431 q 481 617 415 575 q 622 660 547 660 q 717 633 681 660 q 772 563 754 606 q 781 565 776 561 q 786 574 785 568 l 804 618 q 808 623 806 622 q 814 624 810 624 l 867 624 q 874 620 871 624 q 876 613 878 617 l 781 300 q 771 210 760 235 q 818 186 782 186 q 915 221 868 186 q 997 319 963 256 q 1043 468 1031 383 q 1033 642 1058 569 q 954 759 1007 714 q 834 825 901 804 q 694 846 767 846 q 488 807 582 846 q 324 700 394 768 q 208 544 253 632 q 150 356 164 456 q 156 185 138 265 q 224 45 174 106 q 356 -50 274 -15 q 556 -85 439 -85 q 660 -74 617 -85 q 740 -43 704 -62 q 813 -1 775 -24 q 829 1 822 4 q 839 -7 836 -1 l 858 -37 q 861 -54 865 -47 q 850 -67 857 -61 l 850 -67 m 403 338 q 415 215 392 260 q 492 169 439 169 q 588 198 542 169 q 669 274 635 226 q 721 378 704 322 q 730 494 740 449 q 690 561 719 539 q 624 583 661 583 q 522 550 568 583 q 444 461 475 517 q 403 338 413 406 l 403 338 z "},"§":{"ha":671,"x_min":14,"x_max":665,"o":"m 467 275 q 555 197 525 240 q 576 92 585 153 q 531 -6 569 38 q 429 -74 492 -49 q 288 -99 367 -99 q 119 -55 193 -99 q 18 58 46 -11 q 15 67 15 64 q 15 71 14 69 l 68 97 q 78 99 74 101 q 85 89 82 96 q 165 6 111 39 q 293 -26 218 -26 q 424 6 369 -26 q 486 94 479 38 q 467 167 493 132 q 357 235 440 201 l 235 285 q 113 372 147 321 q 89 489 79 424 q 146 599 97 553 q 261 671 194 646 q 180 731 207 701 q 146 794 153 761 q 144 860 139 826 q 188 955 151 913 q 285 1021 225 997 q 421 1044 346 1044 q 572 1005 510 1044 q 660 911 633 965 q 665 903 664 907 q 661 897 665 900 l 613 874 q 601 872 606 869 q 594 881 596 875 q 526 946 568 919 q 426 972 485 972 q 292 940 343 972 q 233 858 240 908 q 249 796 229 828 q 342 732 268 764 l 456 683 q 597 583 557 639 q 625 454 636 526 q 569 343 615 383 q 467 275 524 303 l 467 275 m 374 322 q 447 336 411 319 q 507 383 482 353 q 538 449 532 414 q 536 504 542 479 q 507 552 531 529 q 431 596 483 575 l 351 629 q 271 605 310 625 q 207 553 232 585 q 176 489 182 522 q 191 422 171 450 q 286 360 211 394 l 374 322 l 374 322 z "},"¶":{"ha":764,"x_min":108,"x_max":750,"o":"m 668 968 q 661 965 665 968 q 656 957 657 961 l 506 -111 q 505 -116 506 -114 q 499 -118 504 -118 l 451 -118 q 442 -113 446 -118 q 440 -106 439 -108 l 590 964 q 590 967 590 967 q 585 968 589 968 l 536 968 q 528 965 532 968 q 524 957 524 961 l 374 -111 q 371 -117 372 -115 q 365 -118 369 -118 l 317 -118 q 309 -115 313 -118 q 307 -106 306 -111 l 381 419 q 381 423 381 422 q 379 424 381 424 q 222 466 283 425 q 135 575 161 507 q 119 721 108 643 q 176 870 131 800 q 299 985 221 940 q 485 1031 376 1031 l 740 1031 q 747 1028 744 1031 q 749 1021 750 1025 l 743 972 q 741 968 742 968 q 736 968 740 968 l 668 968 z "},"№":{"ha":1494,"x_min":93,"x_max":1494,"o":"m 983 1031 q 996 1014 997 1031 l 856 13 q 840 0 854 0 l 792 0 q 777 2 783 0 q 765 13 771 4 l 319 831 q 308 840 314 842 q 301 826 303 839 l 188 14 q 183 3 186 6 q 171 0 179 0 l 108 0 q 97 5 100 0 q 94 18 93 10 l 236 1017 q 240 1028 238 1026 q 251 1031 243 1031 l 308 1031 q 323 1028 318 1031 q 332 1017 328 1025 l 769 208 q 783 199 776 197 q 792 214 790 200 l 904 1018 q 909 1028 907 1026 q 918 1031 911 1031 l 983 1031 m 1296 1043 q 1410 1013 1365 1043 q 1475 926 1456 982 q 1485 797 1494 871 q 1442 677 1475 729 q 1358 595 1410 625 q 1238 565 1307 565 q 1122 597 1167 565 q 1058 682 1076 628 q 1050 807 1040 736 q 1093 931 1060 878 q 1179 1014 1126 985 q 1296 1043 1232 1043 l 1296 1043 m 1296 985 q 1180 934 1224 985 q 1125 801 1136 883 q 1140 670 1113 718 q 1238 622 1168 622 q 1353 674 1308 622 q 1410 811 1397 725 q 1393 937 1421 889 q 1296 985 1365 985 l 1296 985 z "},"^":{"ha":661,"x_min":50,"x_max":561,"o":"m 372 611 q 365 617 371 619 q 357 607 358 615 l 133 197 q 127 190 131 190 q 117 189 124 189 l 61 189 q 53 195 56 189 q 53 208 50 201 l 324 703 q 362 745 342 735 q 399 744 382 756 q 425 699 417 732 l 560 200 q 560 189 561 192 q 550 186 558 186 l 497 186 q 484 190 490 186 q 478 200 478 194 l 372 611 z "},"~":{"ha":774,"x_min":106,"x_max":711,"o":"m 704 513 q 640 471 682 490 q 539 451 599 451 q 465 462 496 451 q 406 486 433 472 q 351 510 379 500 q 288 519 324 519 q 199 499 235 519 q 136 454 163 479 q 126 453 131 450 q 121 464 122 457 l 108 501 q 106 511 106 507 q 111 519 107 515 q 188 568 147 547 q 286 589 229 589 q 356 578 325 589 q 417 555 388 568 q 476 531 446 542 q 540 521 506 521 q 624 540 592 521 q 675 581 656 558 q 688 583 683 586 q 694 571 693 579 l 707 535 q 704 513 711 526 l 704 513 z "},"Á":{"ha":994,"x_min":14,"x_max":879,"o":"m 26 0 q 17 6 19 0 q 18 21 14 11 l 522 1015 q 532 1028 526 1025 q 549 1031 538 1031 l 632 1031 q 650 1025 644 1031 q 657 1011 656 1019 l 878 17 q 876 5 879 10 q 865 0 874 0 l 793 0 q 775 15 775 0 l 710 300 q 697 310 708 310 l 276 310 q 258 297 264 310 l 111 10 q 106 1 110 3 q 93 0 101 0 l 26 0 l 26 0 m 679 394 q 690 411 694 394 l 579 903 q 572 915 576 917 q 560 900 567 914 l 308 411 q 305 398 304 401 q 313 394 306 394 l 679 394 m 801 1274 q 802 1262 804 1267 q 790 1254 800 1257 l 458 1153 q 446 1153 451 1150 q 440 1164 440 1157 l 433 1190 q 439 1206 432 1204 l 776 1338 q 785 1337 781 1339 q 790 1329 790 1335 l 801 1274 z "},"Ă":{"ha":994,"x_min":14,"x_max":879,"o":"m 26 0 q 17 6 19 0 q 18 21 14 11 l 522 1015 q 532 1028 526 1025 q 549 1031 538 1031 l 632 1031 q 650 1025 644 1031 q 657 1011 656 1019 l 878 17 q 876 5 879 10 q 865 0 874 0 l 793 0 q 775 15 775 0 l 710 300 q 697 310 708 310 l 276 310 q 258 297 264 310 l 111 10 q 106 1 110 3 q 93 0 101 0 l 26 0 l 26 0 m 679 394 q 690 411 694 394 l 579 903 q 572 915 576 917 q 560 900 567 914 l 308 411 q 305 398 304 401 q 313 394 306 394 l 679 394 m 803 1324 q 815 1319 813 1324 q 814 1304 818 1314 q 772 1249 801 1278 q 701 1202 743 1221 q 603 1183 658 1183 q 509 1201 547 1183 q 450 1249 471 1219 q 428 1311 429 1278 q 431 1319 428 1315 q 440 1324 433 1324 l 499 1324 q 508 1319 506 1324 q 517 1308 511 1315 q 533 1285 524 1300 q 560 1261 543 1271 q 610 1251 578 1251 q 685 1274 656 1251 q 732 1317 714 1296 q 741 1323 738 1322 q 750 1324 744 1324 l 803 1324 l 803 1324 z "},"Ắ":{"ha":994,"x_min":14,"x_max":879,"o":"m 26 0 q 17 6 19 0 q 18 21 14 11 l 522 1015 q 532 1028 526 1025 q 549 1031 538 1031 l 632 1031 q 650 1025 644 1031 q 657 1011 656 1019 l 878 17 q 876 5 879 10 q 865 0 874 0 l 793 0 q 775 15 775 0 l 710 300 q 697 310 708 310 l 276 310 q 258 297 264 310 l 111 10 q 106 1 110 3 q 93 0 101 0 l 26 0 l 26 0 m 679 394 q 690 411 694 394 l 579 903 q 572 915 576 917 q 560 900 567 914 l 308 411 q 305 398 304 401 q 313 394 306 394 l 679 394 m 803 1324 q 815 1319 813 1324 q 814 1304 818 1314 q 772 1249 801 1278 q 701 1202 743 1221 q 603 1183 658 1183 q 509 1201 547 1183 q 450 1249 471 1219 q 428 1311 429 1278 q 431 1319 428 1315 q 440 1324 433 1324 l 499 1324 q 508 1319 506 1324 q 517 1308 511 1315 q 533 1285 524 1300 q 560 1261 543 1271 q 610 1251 578 1251 q 685 1274 656 1251 q 732 1317 714 1296 q 741 1323 738 1322 q 750 1324 744 1324 l 803 1324 l 803 1324 m 811 1494 q 812 1483 814 1488 q 800 1475 810 1478 l 468 1374 q 456 1374 461 1371 q 450 1385 450 1378 l 443 1411 q 449 1426 442 1425 l 786 1558 q 795 1558 790 1560 q 800 1550 800 1556 l 811 1494 z "},"Ặ":{"ha":994,"x_min":14,"x_max":879,"o":"m 26 0 q 17 6 19 0 q 18 21 14 11 l 522 1015 q 532 1028 526 1025 q 549 1031 538 1031 l 632 1031 q 650 1025 644 1031 q 657 1011 656 1019 l 878 17 q 876 5 879 10 q 865 0 874 0 l 793 0 q 775 15 775 0 l 710 300 q 697 310 708 310 l 276 310 q 258 297 264 310 l 111 10 q 106 1 110 3 q 93 0 101 0 l 26 0 l 26 0 m 679 394 q 690 411 694 394 l 579 903 q 572 915 576 917 q 560 900 567 914 l 308 411 q 305 398 304 401 q 313 394 306 394 l 679 394 m 463 -212 q 458 -226 461 -224 q 444 -229 456 -229 l 386 -229 q 372 -224 376 -229 q 369 -211 368 -219 l 386 -94 q 390 -83 388 -85 q 399 -81 392 -81 l 465 -81 q 477 -85 474 -81 q 478 -99 481 -90 l 463 -212 m 803 1324 q 815 1319 813 1324 q 814 1304 818 1314 q 772 1249 801 1278 q 701 1202 743 1221 q 603 1183 658 1183 q 509 1201 547 1183 q 450 1249 471 1219 q 428 1311 429 1278 q 431 1319 428 1315 q 440 1324 433 1324 l 499 1324 q 508 1319 506 1324 q 517 1308 511 1315 q 533 1285 524 1300 q 560 1261 543 1271 q 610 1251 578 1251 q 685 1274 656 1251 q 732 1317 714 1296 q 741 1323 738 1322 q 750 1324 744 1324 l 803 1324 l 803 1324 z "},"Ằ":{"ha":994,"x_min":14,"x_max":879,"o":"m 26 0 q 17 6 19 0 q 18 21 14 11 l 522 1015 q 532 1028 526 1025 q 549 1031 538 1031 l 632 1031 q 650 1025 644 1031 q 657 1011 656 1019 l 878 17 q 876 5 879 10 q 865 0 874 0 l 793 0 q 775 15 775 0 l 710 300 q 697 310 708 310 l 276 310 q 258 297 264 310 l 111 10 q 106 1 110 3 q 93 0 101 0 l 26 0 l 26 0 m 679 394 q 690 411 694 394 l 579 903 q 572 915 576 917 q 560 900 567 914 l 308 411 q 305 398 304 401 q 313 394 306 394 l 679 394 m 803 1324 q 815 1319 813 1324 q 814 1304 818 1314 q 772 1249 801 1278 q 701 1202 743 1221 q 603 1183 658 1183 q 509 1201 547 1183 q 450 1249 471 1219 q 428 1311 429 1278 q 431 1319 428 1315 q 440 1324 433 1324 l 499 1324 q 508 1319 506 1324 q 517 1308 511 1315 q 533 1285 524 1300 q 560 1261 543 1271 q 610 1251 578 1251 q 685 1274 656 1251 q 732 1317 714 1296 q 741 1323 738 1322 q 750 1324 744 1324 l 803 1324 l 803 1324 m 461 1551 q 467 1556 463 1556 q 474 1556 471 1557 l 775 1426 q 783 1419 781 1424 q 782 1408 785 1414 l 767 1379 q 762 1373 765 1374 q 749 1374 758 1372 l 447 1474 q 434 1482 436 1476 q 435 1494 432 1488 l 461 1551 l 461 1551 z "},"Ẳ":{"ha":994,"x_min":14,"x_max":879,"o":"m 26 0 q 17 6 19 0 q 18 21 14 11 l 522 1015 q 532 1028 526 1025 q 549 1031 538 1031 l 632 1031 q 650 1025 644 1031 q 657 1011 656 1019 l 878 17 q 876 5 879 10 q 865 0 874 0 l 793 0 q 775 15 775 0 l 710 300 q 697 310 708 310 l 276 310 q 258 297 264 310 l 111 10 q 106 1 110 3 q 93 0 101 0 l 26 0 l 26 0 m 679 394 q 690 411 694 394 l 579 903 q 572 915 576 917 q 560 900 567 914 l 308 411 q 305 398 304 401 q 313 394 306 394 l 679 394 m 803 1324 q 815 1319 813 1324 q 814 1304 818 1314 q 772 1249 801 1278 q 701 1202 743 1221 q 603 1183 658 1183 q 509 1201 547 1183 q 450 1249 471 1219 q 428 1311 429 1278 q 431 1319 428 1315 q 440 1324 433 1324 l 499 1324 q 508 1319 506 1324 q 517 1308 511 1315 q 533 1285 524 1300 q 560 1261 543 1271 q 610 1251 578 1251 q 685 1274 656 1251 q 732 1317 714 1296 q 741 1323 738 1322 q 750 1324 744 1324 l 803 1324 l 803 1324 m 538 1529 q 532 1518 531 1525 l 547 1476 q 556 1472 550 1471 q 635 1501 597 1501 q 667 1492 654 1501 q 675 1460 679 1482 q 651 1422 672 1442 q 601 1375 631 1403 q 597 1369 599 1374 q 597 1363 596 1365 l 618 1332 q 631 1329 622 1324 q 699 1397 669 1367 q 733 1464 728 1428 q 714 1535 740 1508 q 639 1561 688 1561 q 589 1552 617 1561 q 538 1529 561 1543 l 538 1529 z "},"Ẵ":{"ha":994,"x_min":14,"x_max":879,"o":"m 26 0 q 17 6 19 0 q 18 21 14 11 l 522 1015 q 532 1028 526 1025 q 549 1031 538 1031 l 632 1031 q 650 1025 644 1031 q 657 1011 656 1019 l 878 17 q 876 5 879 10 q 865 0 874 0 l 793 0 q 775 15 775 0 l 710 300 q 697 310 708 310 l 276 310 q 258 297 264 310 l 111 10 q 106 1 110 3 q 93 0 101 0 l 26 0 l 26 0 m 679 394 q 690 411 694 394 l 579 903 q 572 915 576 917 q 560 900 567 914 l 308 411 q 305 398 304 401 q 313 394 306 394 l 679 394 m 803 1324 q 815 1319 813 1324 q 814 1304 818 1314 q 772 1249 801 1278 q 701 1202 743 1221 q 603 1183 658 1183 q 509 1201 547 1183 q 450 1249 471 1219 q 428 1311 429 1278 q 431 1319 428 1315 q 440 1324 433 1324 l 499 1324 q 508 1319 506 1324 q 517 1308 511 1315 q 533 1285 524 1300 q 560 1261 543 1271 q 610 1251 578 1251 q 685 1274 656 1251 q 732 1317 714 1296 q 741 1323 738 1322 q 750 1324 744 1324 l 803 1324 l 803 1324 m 826 1461 q 784 1443 810 1451 q 722 1435 758 1435 q 659 1444 685 1435 q 611 1461 633 1453 q 558 1469 589 1469 q 509 1457 526 1469 q 472 1438 492 1444 q 460 1439 464 1436 q 454 1450 457 1442 l 446 1481 q 444 1492 444 1488 q 449 1499 443 1496 q 497 1524 472 1514 q 553 1533 521 1533 q 615 1525 588 1533 q 668 1507 642 1517 q 724 1497 694 1497 q 755 1502 742 1497 q 779 1513 768 1507 q 804 1525 790 1519 q 819 1526 814 1529 q 826 1514 825 1522 l 833 1479 q 835 1469 835 1474 q 826 1461 835 1464 l 826 1461 z "},"Â":{"ha":994,"x_min":14,"x_max":879,"o":"m 26 0 q 17 6 19 0 q 18 21 14 11 l 522 1015 q 532 1028 526 1025 q 549 1031 538 1031 l 632 1031 q 650 1025 644 1031 q 657 1011 656 1019 l 878 17 q 876 5 879 10 q 865 0 874 0 l 793 0 q 775 15 775 0 l 710 300 q 697 310 708 310 l 276 310 q 258 297 264 310 l 111 10 q 106 1 110 3 q 93 0 101 0 l 26 0 l 26 0 m 679 394 q 690 411 694 394 l 579 903 q 572 915 576 917 q 560 900 567 914 l 308 411 q 305 398 304 401 q 313 394 306 394 l 679 394 m 632 1257 q 619 1265 622 1267 q 604 1256 617 1264 l 511 1186 q 497 1179 501 1181 q 486 1178 493 1178 l 419 1178 q 410 1183 411 1178 q 417 1194 408 1189 l 574 1315 q 588 1325 581 1322 q 607 1328 596 1328 l 649 1328 q 663 1322 658 1328 q 672 1313 668 1317 l 794 1192 q 801 1181 801 1185 q 792 1178 800 1178 l 722 1178 q 710 1181 715 1178 q 700 1189 706 1185 l 632 1257 z "},"Ấ":{"ha":994,"x_min":14,"x_max":879,"o":"m 26 0 q 17 6 19 0 q 18 21 14 11 l 522 1015 q 532 1028 526 1025 q 549 1031 538 1031 l 632 1031 q 650 1025 644 1031 q 657 1011 656 1019 l 878 17 q 876 5 879 10 q 865 0 874 0 l 793 0 q 775 15 775 0 l 710 300 q 697 310 708 310 l 276 310 q 258 297 264 310 l 111 10 q 106 1 110 3 q 93 0 101 0 l 26 0 l 26 0 m 679 394 q 690 411 694 394 l 579 903 q 572 915 576 917 q 560 900 567 914 l 308 411 q 305 398 304 401 q 313 394 306 394 l 679 394 m 632 1257 q 619 1265 622 1267 q 604 1256 617 1264 l 511 1186 q 497 1179 501 1181 q 486 1178 493 1178 l 419 1178 q 410 1183 411 1178 q 417 1194 408 1189 l 574 1315 q 588 1325 581 1322 q 607 1328 596 1328 l 649 1328 q 663 1322 658 1328 q 672 1313 668 1317 l 794 1192 q 801 1181 801 1185 q 792 1178 800 1178 l 722 1178 q 710 1181 715 1178 q 700 1189 706 1185 l 632 1257 m 817 1474 q 817 1462 819 1467 q 806 1454 815 1457 l 474 1353 q 461 1353 467 1350 q 456 1364 456 1357 l 449 1390 q 454 1406 447 1404 l 792 1538 q 801 1537 796 1539 q 806 1529 806 1535 l 817 1474 z "},"Ậ":{"ha":994,"x_min":14,"x_max":879,"o":"m 26 0 q 17 6 19 0 q 18 21 14 11 l 522 1015 q 532 1028 526 1025 q 549 1031 538 1031 l 632 1031 q 650 1025 644 1031 q 657 1011 656 1019 l 878 17 q 876 5 879 10 q 865 0 874 0 l 793 0 q 775 15 775 0 l 710 300 q 697 310 708 310 l 276 310 q 258 297 264 310 l 111 10 q 106 1 110 3 q 93 0 101 0 l 26 0 l 26 0 m 679 394 q 690 411 694 394 l 579 903 q 572 915 576 917 q 560 900 567 914 l 308 411 q 305 398 304 401 q 313 394 306 394 l 679 394 m 463 -212 q 458 -226 461 -224 q 444 -229 456 -229 l 386 -229 q 372 -224 376 -229 q 369 -211 368 -219 l 386 -94 q 390 -83 388 -85 q 399 -81 392 -81 l 465 -81 q 477 -85 474 -81 q 478 -99 481 -90 l 463 -212 m 632 1257 q 619 1265 622 1267 q 604 1256 617 1264 l 511 1186 q 497 1179 501 1181 q 486 1178 493 1178 l 419 1178 q 410 1183 411 1178 q 417 1194 408 1189 l 574 1315 q 588 1325 581 1322 q 607 1328 596 1328 l 649 1328 q 663 1322 658 1328 q 672 1313 668 1317 l 794 1192 q 801 1181 801 1185 q 792 1178 800 1178 l 722 1178 q 710 1181 715 1178 q 700 1189 706 1185 l 632 1257 z "},"Ầ":{"ha":994,"x_min":14,"x_max":879,"o":"m 26 0 q 17 6 19 0 q 18 21 14 11 l 522 1015 q 532 1028 526 1025 q 549 1031 538 1031 l 632 1031 q 650 1025 644 1031 q 657 1011 656 1019 l 878 17 q 876 5 879 10 q 865 0 874 0 l 793 0 q 775 15 775 0 l 710 300 q 697 310 708 310 l 276 310 q 258 297 264 310 l 111 10 q 106 1 110 3 q 93 0 101 0 l 26 0 l 26 0 m 679 394 q 690 411 694 394 l 579 903 q 572 915 576 917 q 560 900 567 914 l 308 411 q 305 398 304 401 q 313 394 306 394 l 679 394 m 632 1257 q 619 1265 622 1267 q 604 1256 617 1264 l 511 1186 q 497 1179 501 1181 q 486 1178 493 1178 l 419 1178 q 410 1183 411 1178 q 417 1194 408 1189 l 574 1315 q 588 1325 581 1322 q 607 1328 596 1328 l 649 1328 q 663 1322 658 1328 q 672 1313 668 1317 l 794 1192 q 801 1181 801 1185 q 792 1178 800 1178 l 722 1178 q 710 1181 715 1178 q 700 1189 706 1185 l 632 1257 m 464 1531 q 469 1535 465 1535 q 476 1535 474 1536 l 778 1406 q 785 1398 783 1403 q 785 1388 788 1393 l 769 1358 q 765 1352 768 1353 q 751 1353 761 1351 l 450 1453 q 437 1461 439 1456 q 438 1474 435 1467 l 464 1531 l 464 1531 z "},"Ẩ":{"ha":994,"x_min":14,"x_max":918,"o":"m 26 0 q 17 6 19 0 q 18 21 14 11 l 522 1015 q 532 1028 526 1025 q 549 1031 538 1031 l 632 1031 q 650 1025 644 1031 q 657 1011 656 1019 l 878 17 q 876 5 879 10 q 865 0 874 0 l 793 0 q 775 15 775 0 l 710 300 q 697 310 708 310 l 276 310 q 258 297 264 310 l 111 10 q 106 1 110 3 q 93 0 101 0 l 26 0 l 26 0 m 679 394 q 690 411 694 394 l 579 903 q 572 915 576 917 q 560 900 567 914 l 308 411 q 305 398 304 401 q 313 394 306 394 l 679 394 m 632 1257 q 619 1265 622 1267 q 604 1256 617 1264 l 511 1186 q 497 1179 501 1181 q 486 1178 493 1178 l 419 1178 q 410 1183 411 1178 q 417 1194 408 1189 l 574 1315 q 588 1325 581 1322 q 607 1328 596 1328 l 649 1328 q 663 1322 658 1328 q 672 1313 668 1317 l 794 1192 q 801 1181 801 1185 q 792 1178 800 1178 l 722 1178 q 710 1181 715 1178 q 700 1189 706 1185 l 632 1257 m 714 1461 q 708 1450 707 1457 l 724 1408 q 732 1404 726 1403 q 811 1433 774 1433 q 843 1424 831 1433 q 851 1392 856 1414 q 828 1354 849 1374 q 778 1307 807 1335 q 774 1301 775 1306 q 774 1294 772 1297 l 794 1264 q 807 1261 799 1256 q 875 1329 846 1299 q 910 1396 904 1360 q 890 1467 917 1440 q 815 1493 864 1493 q 765 1484 793 1493 q 714 1461 738 1475 l 714 1461 z "},"Ẫ":{"ha":994,"x_min":14,"x_max":879,"o":"m 26 0 q 17 6 19 0 q 18 21 14 11 l 522 1015 q 532 1028 526 1025 q 549 1031 538 1031 l 632 1031 q 650 1025 644 1031 q 657 1011 656 1019 l 878 17 q 876 5 879 10 q 865 0 874 0 l 793 0 q 775 15 775 0 l 710 300 q 697 310 708 310 l 276 310 q 258 297 264 310 l 111 10 q 106 1 110 3 q 93 0 101 0 l 26 0 l 26 0 m 679 394 q 690 411 694 394 l 579 903 q 572 915 576 917 q 560 900 567 914 l 308 411 q 305 398 304 401 q 313 394 306 394 l 679 394 m 632 1257 q 619 1265 622 1267 q 604 1256 617 1264 l 511 1186 q 497 1179 501 1181 q 486 1178 493 1178 l 419 1178 q 410 1183 411 1178 q 417 1194 408 1189 l 574 1315 q 588 1325 581 1322 q 607 1328 596 1328 l 649 1328 q 663 1322 658 1328 q 672 1313 668 1317 l 794 1192 q 801 1181 801 1185 q 792 1178 800 1178 l 722 1178 q 710 1181 715 1178 q 700 1189 706 1185 l 632 1257 m 833 1440 q 791 1422 817 1431 q 729 1414 765 1414 q 666 1423 692 1414 q 618 1440 640 1432 q 565 1449 596 1449 q 516 1436 533 1449 q 479 1417 499 1424 q 467 1418 471 1415 q 461 1429 464 1421 l 453 1460 q 451 1471 451 1467 q 456 1478 450 1475 q 503 1503 479 1493 q 560 1513 528 1513 q 622 1504 594 1513 q 675 1486 649 1496 q 731 1476 701 1476 q 762 1481 749 1476 q 786 1492 775 1486 q 811 1504 797 1499 q 826 1505 821 1508 q 833 1493 832 1501 l 840 1458 q 842 1448 842 1453 q 833 1440 842 1443 l 833 1440 z "},"Ȁ":{"ha":994,"x_min":14,"x_max":879,"o":"m 26 0 q 17 6 19 0 q 18 21 14 11 l 522 1015 q 532 1028 526 1025 q 549 1031 538 1031 l 632 1031 q 650 1025 644 1031 q 657 1011 656 1019 l 878 17 q 876 5 879 10 q 865 0 874 0 l 793 0 q 775 15 775 0 l 710 300 q 697 310 708 310 l 276 310 q 258 297 264 310 l 111 10 q 106 1 110 3 q 93 0 101 0 l 26 0 l 26 0 m 679 394 q 690 411 694 394 l 579 903 q 572 915 576 917 q 560 900 567 914 l 308 411 q 305 398 304 401 q 313 394 306 394 l 679 394 m 388 1333 q 398 1336 392 1338 q 406 1331 404 1335 l 547 1147 q 551 1140 550 1144 q 549 1131 553 1136 l 526 1107 q 517 1103 522 1101 q 506 1110 511 1106 l 351 1268 q 347 1292 336 1281 l 388 1333 l 388 1333 m 600 1333 q 610 1336 604 1338 q 618 1331 617 1335 l 760 1147 q 763 1140 763 1144 q 761 1131 764 1135 l 739 1107 q 728 1103 733 1101 q 718 1110 724 1106 l 564 1268 q 558 1293 549 1282 l 600 1333 l 600 1333 z "},"Ä":{"ha":994,"x_min":14,"x_max":879,"o":"m 26 0 q 17 6 19 0 q 18 21 14 11 l 522 1015 q 532 1028 526 1025 q 549 1031 538 1031 l 632 1031 q 650 1025 644 1031 q 657 1011 656 1019 l 878 17 q 876 5 879 10 q 865 0 874 0 l 793 0 q 775 15 775 0 l 710 300 q 697 310 708 310 l 276 310 q 258 297 264 310 l 111 10 q 106 1 110 3 q 93 0 101 0 l 26 0 l 26 0 m 679 394 q 690 411 694 394 l 579 903 q 572 915 576 917 q 560 900 567 914 l 308 411 q 305 398 304 401 q 313 394 306 394 l 679 394 m 569 1196 q 565 1182 568 1185 q 549 1179 561 1179 l 490 1179 q 476 1184 479 1179 q 474 1197 472 1189 l 489 1311 q 493 1323 490 1321 q 503 1325 496 1325 l 571 1325 q 583 1320 579 1325 q 585 1307 588 1315 l 569 1196 m 753 1196 q 748 1182 751 1185 q 732 1179 744 1179 l 674 1179 q 659 1184 663 1179 q 657 1197 656 1189 l 672 1311 q 676 1323 674 1321 q 686 1325 679 1325 l 754 1325 q 767 1320 763 1325 q 768 1307 771 1315 l 753 1196 z "},"Ạ":{"ha":994,"x_min":14,"x_max":879,"o":"m 26 0 q 17 6 19 0 q 18 21 14 11 l 522 1015 q 532 1028 526 1025 q 549 1031 538 1031 l 632 1031 q 650 1025 644 1031 q 657 1011 656 1019 l 878 17 q 876 5 879 10 q 865 0 874 0 l 793 0 q 775 15 775 0 l 710 300 q 697 310 708 310 l 276 310 q 258 297 264 310 l 111 10 q 106 1 110 3 q 93 0 101 0 l 26 0 l 26 0 m 679 394 q 690 411 694 394 l 579 903 q 572 915 576 917 q 560 900 567 914 l 308 411 q 305 398 304 401 q 313 394 306 394 l 679 394 m 463 -212 q 458 -226 461 -224 q 444 -229 456 -229 l 386 -229 q 372 -224 376 -229 q 369 -211 368 -219 l 386 -94 q 390 -83 388 -85 q 399 -81 392 -81 l 465 -81 q 477 -85 474 -81 q 478 -99 481 -90 l 463 -212 z "},"À":{"ha":994,"x_min":14,"x_max":879,"o":"m 26 0 q 17 6 19 0 q 18 21 14 11 l 522 1015 q 532 1028 526 1025 q 549 1031 538 1031 l 632 1031 q 650 1025 644 1031 q 657 1011 656 1019 l 878 17 q 876 5 879 10 q 865 0 874 0 l 793 0 q 775 15 775 0 l 710 300 q 697 310 708 310 l 276 310 q 258 297 264 310 l 111 10 q 106 1 110 3 q 93 0 101 0 l 26 0 l 26 0 m 679 394 q 690 411 694 394 l 579 903 q 572 915 576 917 q 560 900 567 914 l 308 411 q 305 398 304 401 q 313 394 306 394 l 679 394 m 450 1331 q 456 1335 451 1335 q 463 1335 460 1336 l 764 1206 q 772 1198 769 1203 q 771 1188 774 1193 l 756 1158 q 751 1152 754 1153 q 738 1153 747 1151 l 436 1253 q 423 1261 425 1256 q 424 1274 421 1267 l 450 1331 l 450 1331 z "},"Ả":{"ha":994,"x_min":14,"x_max":879,"o":"m 26 0 q 17 6 19 0 q 18 21 14 11 l 522 1015 q 532 1028 526 1025 q 549 1031 538 1031 l 632 1031 q 650 1025 644 1031 q 657 1011 656 1019 l 878 17 q 876 5 879 10 q 865 0 874 0 l 793 0 q 775 15 775 0 l 710 300 q 697 310 708 310 l 276 310 q 258 297 264 310 l 111 10 q 106 1 110 3 q 93 0 101 0 l 26 0 l 26 0 m 679 394 q 690 411 694 394 l 579 903 q 572 915 576 917 q 560 900 567 914 l 308 411 q 305 398 304 401 q 313 394 306 394 l 679 394 m 513 1324 q 507 1313 506 1319 l 522 1271 q 531 1267 525 1265 q 610 1296 572 1296 q 642 1286 629 1296 q 650 1254 654 1276 q 626 1217 647 1236 q 576 1169 606 1197 q 572 1164 574 1168 q 572 1157 571 1160 l 593 1126 q 606 1124 597 1118 q 674 1192 644 1161 q 708 1258 703 1222 q 689 1329 715 1303 q 614 1356 663 1356 q 564 1347 592 1356 q 513 1324 536 1338 l 513 1324 z "},"Ȃ":{"ha":994,"x_min":14,"x_max":879,"o":"m 26 0 q 17 6 19 0 q 18 21 14 11 l 522 1015 q 532 1028 526 1025 q 549 1031 538 1031 l 632 1031 q 650 1025 644 1031 q 657 1011 656 1019 l 878 17 q 876 5 879 10 q 865 0 874 0 l 793 0 q 775 15 775 0 l 710 300 q 697 310 708 310 l 276 310 q 258 297 264 310 l 111 10 q 106 1 110 3 q 93 0 101 0 l 26 0 l 26 0 m 679 394 q 690 411 694 394 l 579 903 q 572 915 576 917 q 560 900 567 914 l 308 411 q 305 398 304 401 q 313 394 306 394 l 679 394 m 413 1185 q 400 1190 403 1185 q 401 1204 397 1194 q 441 1260 414 1232 q 510 1306 468 1288 q 607 1325 551 1325 q 701 1307 663 1325 q 762 1260 740 1289 q 788 1197 783 1231 q 785 1189 788 1193 q 775 1185 783 1185 l 717 1185 q 706 1189 710 1185 q 699 1200 703 1193 q 683 1224 693 1210 q 655 1247 672 1238 q 606 1257 638 1257 q 530 1235 560 1257 q 483 1192 500 1214 q 474 1185 478 1186 q 465 1185 471 1185 l 413 1185 l 413 1185 z "},"Ā":{"ha":994,"x_min":14,"x_max":879,"o":"m 26 0 q 17 6 19 0 q 18 21 14 11 l 522 1015 q 532 1028 526 1025 q 549 1031 538 1031 l 632 1031 q 650 1025 644 1031 q 657 1011 656 1019 l 878 17 q 876 5 879 10 q 865 0 874 0 l 793 0 q 775 15 775 0 l 710 300 q 697 310 708 310 l 276 310 q 258 297 264 310 l 111 10 q 106 1 110 3 q 93 0 101 0 l 26 0 l 26 0 m 679 394 q 690 411 694 394 l 579 903 q 572 915 576 917 q 560 900 567 914 l 308 411 q 305 398 304 401 q 313 394 306 394 l 679 394 m 813 1242 q 808 1232 811 1235 q 794 1229 804 1229 l 440 1229 q 428 1234 432 1229 q 426 1247 425 1239 l 432 1292 q 436 1299 435 1297 q 442 1301 438 1301 l 808 1301 q 816 1297 813 1301 q 818 1288 819 1292 l 813 1242 z "},"Ą":{"ha":994,"x_min":14,"x_max":886,"o":"m 26 0 q 17 6 19 0 q 18 21 14 11 l 522 1015 q 532 1028 526 1025 q 549 1031 538 1031 l 632 1031 q 650 1025 644 1031 q 657 1011 656 1019 l 878 17 q 876 5 879 10 q 865 0 874 0 l 793 0 q 775 15 775 0 l 710 300 q 697 310 708 310 l 276 310 q 258 297 264 310 l 111 10 q 106 1 110 3 q 93 0 101 0 l 26 0 l 26 0 m 679 394 q 690 411 694 394 l 579 903 q 572 915 576 917 q 560 900 567 914 l 308 411 q 305 398 304 401 q 313 394 306 394 l 679 394 m 633 -121 q 653 -68 638 -92 q 706 -24 669 -44 q 800 14 742 -4 l 869 0 q 758 -59 794 -31 q 715 -126 721 -87 q 726 -165 713 -153 q 778 -178 740 -178 q 835 -171 811 -178 q 871 -158 860 -164 q 882 -158 878 -156 q 885 -168 886 -161 l 879 -203 q 876 -213 878 -210 q 869 -218 874 -217 q 821 -231 851 -225 q 756 -236 790 -236 q 656 -203 686 -236 q 633 -121 626 -171 l 633 -121 z "},"Å":{"ha":994,"x_min":14,"x_max":879,"o":"m 26 0 q 17 6 19 0 q 18 21 14 11 l 522 1015 q 532 1028 526 1025 q 549 1031 538 1031 l 632 1031 q 650 1025 644 1031 q 657 1011 656 1019 l 878 17 q 876 5 879 10 q 865 0 874 0 l 793 0 q 775 15 775 0 l 710 300 q 697 310 708 310 l 276 310 q 258 297 264 310 l 111 10 q 106 1 110 3 q 93 0 101 0 l 26 0 l 26 0 m 679 394 q 690 411 694 394 l 579 903 q 572 915 576 917 q 560 900 567 914 l 308 411 q 305 398 304 401 q 313 394 306 394 l 679 394 m 746 1193 q 692 1094 738 1133 q 588 1056 646 1056 q 517 1075 547 1056 q 472 1129 486 1094 q 463 1206 457 1164 q 516 1299 469 1261 q 619 1338 563 1338 q 692 1318 661 1338 q 738 1266 722 1299 q 746 1193 753 1233 l 746 1193 m 681 1201 q 667 1255 686 1235 q 618 1275 649 1275 q 556 1251 585 1275 q 522 1192 528 1228 q 538 1140 518 1163 q 588 1117 558 1117 q 649 1142 622 1117 q 681 1201 676 1168 l 681 1201 z "},"Ǻ":{"ha":901,"x_min":-7,"x_max":808,"o":"m 696 1108 q 642 1011 688 1049 q 540 974 597 974 q 443 1015 479 974 q 415 1119 407 1057 q 469 1213 424 1175 q 571 1250 515 1250 q 668 1209 632 1250 q 696 1108 704 1168 l 696 1108 m 633 1115 q 619 1170 638 1150 q 569 1190 601 1190 q 508 1167 538 1190 q 474 1107 479 1143 q 490 1055 469 1078 q 539 1032 510 1032 q 602 1058 575 1032 q 633 1115 629 1083 l 633 1115 m 583 1031 q 603 1025 596 1031 q 610 1011 610 1019 l 807 17 q 806 5 808 10 q 794 0 803 0 l 719 0 q 707 4 713 0 q 701 15 701 8 l 643 301 q 640 308 642 307 q 632 310 639 310 l 242 310 q 232 306 236 310 q 225 296 228 301 l 86 10 q 79 1 82 3 q 68 0 76 0 l 8 0 q -3 6 1 0 q -4 21 -7 13 l 476 1015 q 486 1028 482 1025 q 501 1031 490 1031 l 583 1031 m 529 906 q 522 915 528 918 q 510 899 517 913 l 272 406 q 268 396 268 397 q 275 394 268 394 l 611 394 q 624 400 619 394 q 626 413 629 406 l 529 906 m 649 1339 q 665 1331 661 1339 q 664 1311 668 1324 l 607 1215 l 543 1215 l 582 1319 q 593 1335 586 1332 q 613 1339 600 1339 l 649 1339 z "},"Ã":{"ha":994,"x_min":14,"x_max":879,"o":"m 26 0 q 17 6 19 0 q 18 21 14 11 l 522 1015 q 532 1028 526 1025 q 549 1031 538 1031 l 632 1031 q 650 1025 644 1031 q 657 1011 656 1019 l 878 17 q 876 5 879 10 q 865 0 874 0 l 793 0 q 775 15 775 0 l 710 300 q 697 310 708 310 l 276 310 q 258 297 264 310 l 111 10 q 106 1 110 3 q 93 0 101 0 l 26 0 l 26 0 m 679 394 q 690 411 694 394 l 579 903 q 572 915 576 917 q 560 900 567 914 l 308 411 q 305 398 304 401 q 313 394 306 394 l 679 394 m 810 1240 q 767 1222 793 1231 q 706 1214 742 1214 q 642 1223 668 1214 q 594 1240 617 1232 q 542 1249 572 1249 q 492 1236 510 1249 q 456 1217 475 1224 q 444 1218 447 1215 q 438 1229 440 1221 l 429 1260 q 427 1271 428 1267 q 432 1278 426 1275 q 480 1303 456 1293 q 536 1313 504 1313 q 598 1304 571 1313 q 651 1286 625 1296 q 707 1276 678 1276 q 738 1281 725 1276 q 763 1292 751 1286 q 788 1304 774 1299 q 803 1305 797 1308 q 810 1293 808 1301 l 817 1258 q 818 1248 818 1253 q 810 1240 818 1243 l 810 1240 z "},"Ǽ":{"ha":1375,"x_min":13,"x_max":1381,"o":"m 1250 83 q 1263 80 1258 83 q 1264 68 1267 76 l 1257 11 q 1253 2 1256 4 q 1244 0 1251 0 l 658 0 q 644 5 649 0 q 642 19 640 10 l 682 303 q 681 308 682 307 q 675 310 679 310 l 335 310 q 324 306 329 310 q 315 296 319 303 l 111 10 q 90 0 104 0 l 28 0 q 17 6 21 0 q 18 21 13 13 l 721 1015 q 732 1028 726 1025 q 749 1031 738 1031 l 1367 1031 q 1376 1026 1372 1031 q 1378 1015 1381 1022 l 1369 958 q 1366 949 1368 951 q 1356 947 1364 947 l 894 947 q 881 943 886 947 q 874 929 876 939 l 824 572 q 825 563 822 565 q 835 561 828 561 l 1189 561 q 1199 557 1196 561 q 1201 546 1203 553 l 1193 489 q 1191 481 1193 482 q 1181 479 1189 479 l 828 479 q 815 475 821 479 q 808 463 810 471 l 757 94 q 757 85 756 86 q 767 83 758 83 l 1250 83 l 1250 83 m 679 394 q 691 399 686 394 q 697 411 696 404 l 767 913 q 762 927 769 929 q 742 907 754 925 l 383 406 q 376 396 376 397 q 383 394 376 394 l 679 394 l 679 394 m 1261 1274 q 1262 1262 1264 1267 q 1250 1254 1260 1257 l 918 1153 q 906 1153 911 1150 q 900 1164 900 1157 l 893 1190 q 899 1206 892 1204 l 1236 1338 q 1245 1337 1240 1339 q 1250 1329 1250 1335 l 1261 1274 z "},"Ć":{"ha":975,"x_min":110,"x_max":946,"o":"m 617 1044 q 783 1005 708 1044 q 901 901 857 965 q 944 760 946 836 q 933 746 946 746 l 856 740 q 843 758 844 740 q 772 905 835 849 q 613 961 710 961 q 459 926 525 961 q 347 831 393 890 q 272 696 300 771 q 230 540 243 621 q 217 382 217 458 q 283 151 217 229 q 488 72 350 72 q 669 122 592 72 q 800 279 746 172 q 817 283 804 288 l 882 264 q 886 244 892 260 q 836 164 865 203 q 769 93 807 125 q 686 37 732 61 q 588 -1 640 13 q 479 -14 536 -14 q 278 35 361 -14 q 152 174 194 83 q 110 393 110 265 q 128 576 110 483 q 184 753 146 669 q 283 903 222 836 q 426 1007 343 969 q 617 1044 508 1044 l 617 1044 m 829 1274 q 830 1262 832 1267 q 818 1254 828 1257 l 486 1153 q 474 1153 479 1150 q 468 1164 468 1157 l 461 1190 q 467 1206 460 1204 l 804 1338 q 813 1337 808 1339 q 818 1329 818 1335 l 829 1274 z "},"Č":{"ha":975,"x_min":110,"x_max":946,"o":"m 617 1044 q 783 1005 708 1044 q 901 901 857 965 q 944 760 946 836 q 933 746 946 746 l 856 740 q 843 758 844 740 q 772 905 835 849 q 613 961 710 961 q 459 926 525 961 q 347 831 393 890 q 272 696 300 771 q 230 540 243 621 q 217 382 217 458 q 283 151 217 229 q 488 72 350 72 q 669 122 592 72 q 800 279 746 172 q 817 283 804 288 l 882 264 q 886 244 892 260 q 836 164 865 203 q 769 93 807 125 q 686 37 732 61 q 588 -1 640 13 q 479 -14 536 -14 q 278 35 361 -14 q 152 174 194 83 q 110 393 110 265 q 128 576 110 483 q 184 753 146 669 q 283 903 222 836 q 426 1007 343 969 q 617 1044 508 1044 l 617 1044 m 747 1318 q 759 1324 754 1324 q 771 1325 764 1325 l 843 1325 q 853 1320 851 1325 q 846 1307 854 1315 l 689 1186 q 678 1178 685 1182 q 663 1175 672 1175 l 621 1175 q 603 1180 610 1175 q 592 1192 597 1185 l 468 1311 q 462 1322 463 1318 q 468 1325 461 1325 l 533 1325 q 546 1323 542 1325 q 556 1314 550 1321 l 629 1246 q 644 1238 640 1236 q 660 1250 647 1240 l 747 1318 l 747 1318 z "},"Ç":{"ha":975,"x_min":110,"x_max":946,"o":"m 617 1044 q 783 1005 708 1044 q 901 901 857 965 q 944 760 946 836 q 933 746 946 746 l 856 740 q 843 758 844 740 q 772 905 835 849 q 613 961 710 961 q 459 926 525 961 q 347 831 393 890 q 272 696 300 771 q 230 540 243 621 q 217 382 217 458 q 283 151 217 229 q 488 72 350 72 q 669 122 592 72 q 800 279 746 172 q 817 283 804 288 l 882 264 q 886 244 892 260 q 836 164 865 203 q 769 93 807 125 q 686 37 732 61 q 588 -1 640 13 q 479 -14 536 -14 q 278 35 361 -14 q 152 174 194 83 q 110 393 110 265 q 128 576 110 483 q 184 753 146 669 q 283 903 222 836 q 426 1007 343 969 q 617 1044 508 1044 l 617 1044 m 568 -186 q 516 -262 561 -237 q 411 -287 471 -287 q 351 -279 378 -287 q 301 -256 324 -271 q 296 -252 299 -256 q 293 -244 293 -249 l 314 -212 q 317 -212 315 -210 q 322 -217 319 -214 q 353 -233 336 -226 q 400 -239 371 -239 q 465 -223 442 -239 q 493 -178 489 -207 q 474 -133 497 -147 q 394 -118 450 -119 q 386 -115 389 -118 q 385 -108 383 -111 l 451 7 l 510 7 l 467 -76 q 465 -78 465 -78 q 467 -79 465 -79 q 534 -99 511 -83 q 565 -138 557 -115 q 568 -186 572 -161 l 568 -186 z "},"Ĉ":{"ha":975,"x_min":110,"x_max":946,"o":"m 617 1044 q 783 1005 708 1044 q 901 901 857 965 q 944 760 946 836 q 933 746 946 746 l 856 740 q 843 758 844 740 q 772 905 835 849 q 613 961 710 961 q 459 926 525 961 q 347 831 393 890 q 272 696 300 771 q 230 540 243 621 q 217 382 217 458 q 283 151 217 229 q 488 72 350 72 q 669 122 592 72 q 800 279 746 172 q 817 283 804 288 l 882 264 q 886 244 892 260 q 836 164 865 203 q 769 93 807 125 q 686 37 732 61 q 588 -1 640 13 q 479 -14 536 -14 q 278 35 361 -14 q 152 174 194 83 q 110 393 110 265 q 128 576 110 483 q 184 753 146 669 q 283 903 222 836 q 426 1007 343 969 q 617 1044 508 1044 l 617 1044 m 658 1257 q 646 1265 649 1267 q 631 1256 643 1264 l 538 1186 q 524 1179 528 1181 q 513 1178 519 1178 l 446 1178 q 436 1183 438 1178 q 443 1194 435 1189 l 600 1315 q 615 1325 607 1322 q 633 1328 622 1328 l 675 1328 q 690 1322 685 1328 q 699 1313 694 1317 l 821 1192 q 827 1181 828 1185 q 818 1178 826 1178 l 749 1178 q 737 1181 742 1178 q 726 1189 732 1185 l 658 1257 z "},"Ċ":{"ha":975,"x_min":110,"x_max":946,"o":"m 617 1044 q 783 1005 708 1044 q 901 901 857 965 q 944 760 946 836 q 933 746 946 746 l 856 740 q 843 758 844 740 q 772 905 835 849 q 613 961 710 961 q 459 926 525 961 q 347 831 393 890 q 272 696 300 771 q 230 540 243 621 q 217 382 217 458 q 283 151 217 229 q 488 72 350 72 q 669 122 592 72 q 800 279 746 172 q 817 283 804 288 l 882 264 q 886 244 892 260 q 836 164 865 203 q 769 93 807 125 q 686 37 732 61 q 588 -1 640 13 q 479 -14 536 -14 q 278 35 361 -14 q 152 174 194 83 q 110 393 110 265 q 128 576 110 483 q 184 753 146 669 q 283 903 222 836 q 426 1007 343 969 q 617 1044 508 1044 l 617 1044 m 692 1192 q 686 1176 690 1179 q 668 1174 682 1174 l 606 1174 q 590 1178 594 1174 q 588 1193 586 1183 l 604 1311 q 609 1323 607 1321 q 619 1325 611 1325 l 693 1325 q 706 1320 701 1325 q 707 1306 710 1315 l 692 1192 z "},"Ď":{"ha":992,"x_min":93,"x_max":925,"o":"m 113 0 q 99 6 104 0 q 96 21 93 11 l 236 1018 q 242 1028 238 1025 q 254 1031 246 1031 l 442 1031 q 715 986 608 1031 q 874 855 822 942 q 925 638 925 768 q 856 292 925 435 q 648 75 788 150 q 299 0 508 0 l 113 0 l 113 0 m 301 82 q 599 147 486 82 q 763 336 711 211 q 815 640 815 461 q 774 823 815 756 q 647 919 732 890 q 432 947 561 947 l 344 947 q 328 931 329 947 l 213 101 q 215 86 211 90 q 228 82 218 82 l 301 82 m 689 1318 q 701 1324 696 1324 q 713 1325 706 1325 l 785 1325 q 794 1320 793 1325 q 788 1307 796 1315 l 631 1186 q 620 1178 626 1182 q 604 1175 614 1175 l 563 1175 q 545 1180 551 1175 q 533 1192 539 1185 l 410 1311 q 403 1322 404 1318 q 410 1325 403 1325 l 475 1325 q 488 1323 483 1325 q 497 1314 492 1321 l 571 1246 q 585 1238 582 1236 q 601 1250 589 1240 l 689 1318 l 689 1318 z "},"Đ":{"ha":944,"x_min":35,"x_max":878,"o":"m 485 493 q 478 480 483 483 q 463 476 474 476 l 53 476 q 39 482 43 476 q 36 497 35 488 l 43 544 q 47 555 44 553 q 56 557 49 557 l 479 557 q 490 552 486 557 q 492 542 493 547 l 485 493 m 65 0 q 52 6 57 0 q 49 21 47 11 l 189 1018 q 195 1028 190 1025 q 207 1031 200 1031 l 394 1031 q 669 986 563 1031 q 826 855 775 942 q 878 638 878 768 q 809 292 878 435 q 601 75 740 150 q 251 0 463 0 l 65 0 l 65 0 m 256 82 q 552 147 439 82 q 717 336 665 211 q 769 640 769 461 q 727 823 769 756 q 599 919 685 890 q 385 947 514 947 l 297 947 q 281 931 282 947 l 167 101 q 169 86 165 90 q 181 82 172 82 l 256 82 z "},"É":{"ha":864,"x_min":93,"x_max":871,"o":"m 236 1017 q 240 1028 238 1026 q 250 1031 242 1031 l 858 1031 q 867 1015 871 1031 l 860 961 q 855 951 858 954 q 842 947 851 947 l 344 947 q 333 944 336 947 q 328 933 331 942 l 278 572 q 278 564 276 567 q 288 561 281 561 l 669 561 q 678 558 676 561 q 678 549 681 556 l 669 490 q 656 479 668 479 l 278 479 q 263 464 264 479 l 211 96 q 219 83 210 83 l 740 83 q 751 81 749 83 q 753 69 754 78 l 746 11 q 742 2 744 4 q 732 0 740 0 l 111 0 q 94 19 93 0 l 236 1017 l 236 1017 m 782 1274 q 783 1262 785 1267 q 771 1254 781 1257 l 439 1153 q 426 1153 432 1150 q 421 1164 421 1157 l 414 1190 q 419 1206 413 1204 l 757 1338 q 766 1337 761 1339 q 771 1329 771 1335 l 782 1274 z "},"Ĕ":{"ha":864,"x_min":93,"x_max":871,"o":"m 236 1017 q 240 1028 238 1026 q 250 1031 242 1031 l 858 1031 q 867 1015 871 1031 l 860 961 q 855 951 858 954 q 842 947 851 947 l 344 947 q 333 944 336 947 q 328 933 331 942 l 278 572 q 278 564 276 567 q 288 561 281 561 l 669 561 q 678 558 676 561 q 678 549 681 556 l 669 490 q 656 479 668 479 l 278 479 q 263 464 264 479 l 211 96 q 219 83 210 83 l 740 83 q 751 81 749 83 q 753 69 754 78 l 746 11 q 742 2 744 4 q 732 0 740 0 l 111 0 q 94 19 93 0 l 236 1017 l 236 1017 m 783 1324 q 796 1319 793 1324 q 794 1304 799 1314 q 753 1249 782 1278 q 681 1202 724 1221 q 583 1183 639 1183 q 490 1201 528 1183 q 431 1249 451 1219 q 408 1311 410 1278 q 411 1319 408 1315 q 421 1324 414 1324 l 479 1324 q 489 1319 486 1324 q 497 1308 492 1315 q 514 1285 504 1300 q 541 1261 524 1271 q 590 1251 558 1251 q 665 1274 636 1251 q 713 1317 694 1296 q 722 1323 718 1322 q 731 1324 725 1324 l 783 1324 l 783 1324 z "},"Ě":{"ha":864,"x_min":93,"x_max":871,"o":"m 236 1017 q 240 1028 238 1026 q 250 1031 242 1031 l 858 1031 q 867 1015 871 1031 l 860 961 q 855 951 858 954 q 842 947 851 947 l 344 947 q 333 944 336 947 q 328 933 331 942 l 278 572 q 278 564 276 567 q 288 561 281 561 l 669 561 q 678 558 676 561 q 678 549 681 556 l 669 490 q 656 479 668 479 l 278 479 q 263 464 264 479 l 211 96 q 219 83 210 83 l 740 83 q 751 81 749 83 q 753 69 754 78 l 746 11 q 742 2 744 4 q 732 0 740 0 l 111 0 q 94 19 93 0 l 236 1017 l 236 1017 m 701 1318 q 713 1324 708 1324 q 725 1325 718 1325 l 797 1325 q 807 1320 806 1325 q 800 1307 808 1315 l 643 1186 q 633 1178 639 1182 q 617 1175 626 1175 l 575 1175 q 558 1180 564 1175 q 546 1192 551 1185 l 422 1311 q 416 1322 417 1318 q 422 1325 415 1325 l 488 1325 q 500 1323 496 1325 q 510 1314 504 1321 l 583 1246 q 598 1238 594 1236 q 614 1250 601 1240 l 701 1318 l 701 1318 z "},"Ê":{"ha":864,"x_min":93,"x_max":871,"o":"m 236 1017 q 240 1028 238 1026 q 250 1031 242 1031 l 858 1031 q 867 1015 871 1031 l 860 961 q 855 951 858 954 q 842 947 851 947 l 344 947 q 333 944 336 947 q 328 933 331 942 l 278 572 q 278 564 276 567 q 288 561 281 561 l 669 561 q 678 558 676 561 q 678 549 681 556 l 669 490 q 656 479 668 479 l 278 479 q 263 464 264 479 l 211 96 q 219 83 210 83 l 740 83 q 751 81 749 83 q 753 69 754 78 l 746 11 q 742 2 744 4 q 732 0 740 0 l 111 0 q 94 19 93 0 l 236 1017 l 236 1017 m 613 1257 q 600 1265 603 1267 q 585 1256 597 1264 l 492 1186 q 478 1179 482 1181 q 467 1178 474 1178 l 400 1178 q 390 1183 392 1178 q 397 1194 389 1189 l 554 1315 q 569 1325 561 1322 q 588 1328 576 1328 l 629 1328 q 644 1322 639 1328 q 653 1313 649 1317 l 775 1192 q 781 1181 782 1185 q 772 1178 781 1178 l 703 1178 q 691 1181 696 1178 q 681 1189 686 1185 l 613 1257 z "},"Ế":{"ha":864,"x_min":93,"x_max":871,"o":"m 236 1017 q 240 1028 238 1026 q 250 1031 242 1031 l 858 1031 q 867 1015 871 1031 l 860 961 q 855 951 858 954 q 842 947 851 947 l 344 947 q 333 944 336 947 q 328 933 331 942 l 278 572 q 278 564 276 567 q 288 561 281 561 l 669 561 q 678 558 676 561 q 678 549 681 556 l 669 490 q 656 479 668 479 l 278 479 q 263 464 264 479 l 211 96 q 219 83 210 83 l 740 83 q 751 81 749 83 q 753 69 754 78 l 746 11 q 742 2 744 4 q 732 0 740 0 l 111 0 q 94 19 93 0 l 236 1017 l 236 1017 m 613 1257 q 600 1265 603 1267 q 585 1256 597 1264 l 492 1186 q 478 1179 482 1181 q 467 1178 474 1178 l 400 1178 q 390 1183 392 1178 q 397 1194 389 1189 l 554 1315 q 569 1325 561 1322 q 588 1328 576 1328 l 629 1328 q 644 1322 639 1328 q 653 1313 649 1317 l 775 1192 q 781 1181 782 1185 q 772 1178 781 1178 l 703 1178 q 691 1181 696 1178 q 681 1189 686 1185 l 613 1257 m 797 1474 q 798 1462 800 1467 q 786 1454 796 1457 l 454 1353 q 442 1353 447 1350 q 436 1364 436 1357 l 429 1390 q 435 1406 428 1404 l 772 1538 q 781 1537 776 1539 q 786 1529 786 1535 l 797 1474 z "},"Ệ":{"ha":864,"x_min":93,"x_max":871,"o":"m 236 1017 q 240 1028 238 1026 q 250 1031 242 1031 l 858 1031 q 867 1015 871 1031 l 860 961 q 855 951 858 954 q 842 947 851 947 l 344 947 q 333 944 336 947 q 328 933 331 942 l 278 572 q 278 564 276 567 q 288 561 281 561 l 669 561 q 678 558 676 561 q 678 549 681 556 l 669 490 q 656 479 668 479 l 278 479 q 263 464 264 479 l 211 96 q 219 83 210 83 l 740 83 q 751 81 749 83 q 753 69 754 78 l 746 11 q 742 2 744 4 q 732 0 740 0 l 111 0 q 94 19 93 0 l 236 1017 l 236 1017 m 464 -212 q 460 -226 463 -224 q 446 -229 457 -229 l 388 -229 q 374 -224 378 -229 q 371 -211 369 -219 l 388 -94 q 391 -83 389 -85 q 400 -81 393 -81 l 467 -81 q 478 -85 475 -81 q 479 -99 482 -90 l 464 -212 m 613 1257 q 600 1265 603 1267 q 585 1256 597 1264 l 492 1186 q 478 1179 482 1181 q 467 1178 474 1178 l 400 1178 q 390 1183 392 1178 q 397 1194 389 1189 l 554 1315 q 569 1325 561 1322 q 588 1328 576 1328 l 629 1328 q 644 1322 639 1328 q 653 1313 649 1317 l 775 1192 q 781 1181 782 1185 q 772 1178 781 1178 l 703 1178 q 691 1181 696 1178 q 681 1189 686 1185 l 613 1257 z "},"Ề":{"ha":864,"x_min":93,"x_max":871,"o":"m 236 1017 q 240 1028 238 1026 q 250 1031 242 1031 l 858 1031 q 867 1015 871 1031 l 860 961 q 855 951 858 954 q 842 947 851 947 l 344 947 q 333 944 336 947 q 328 933 331 942 l 278 572 q 278 564 276 567 q 288 561 281 561 l 669 561 q 678 558 676 561 q 678 549 681 556 l 669 490 q 656 479 668 479 l 278 479 q 263 464 264 479 l 211 96 q 219 83 210 83 l 740 83 q 751 81 749 83 q 753 69 754 78 l 746 11 q 742 2 744 4 q 732 0 740 0 l 111 0 q 94 19 93 0 l 236 1017 l 236 1017 m 613 1257 q 600 1265 603 1267 q 585 1256 597 1264 l 492 1186 q 478 1179 482 1181 q 467 1178 474 1178 l 400 1178 q 390 1183 392 1178 q 397 1194 389 1189 l 554 1315 q 569 1325 561 1322 q 588 1328 576 1328 l 629 1328 q 644 1322 639 1328 q 653 1313 649 1317 l 775 1192 q 781 1181 782 1185 q 772 1178 781 1178 l 703 1178 q 691 1181 696 1178 q 681 1189 686 1185 l 613 1257 m 444 1531 q 450 1535 446 1535 q 457 1535 454 1536 l 758 1406 q 766 1398 764 1403 q 765 1388 768 1393 l 750 1358 q 745 1352 749 1353 q 732 1353 742 1351 l 431 1453 q 417 1461 419 1456 q 418 1474 415 1467 l 444 1531 l 444 1531 z "},"Ể":{"ha":864,"x_min":93,"x_max":899,"o":"m 236 1017 q 240 1028 238 1026 q 250 1031 242 1031 l 858 1031 q 867 1015 871 1031 l 860 961 q 855 951 858 954 q 842 947 851 947 l 344 947 q 333 944 336 947 q 328 933 331 942 l 278 572 q 278 564 276 567 q 288 561 281 561 l 669 561 q 678 558 676 561 q 678 549 681 556 l 669 490 q 656 479 668 479 l 278 479 q 263 464 264 479 l 211 96 q 219 83 210 83 l 740 83 q 751 81 749 83 q 753 69 754 78 l 746 11 q 742 2 744 4 q 732 0 740 0 l 111 0 q 94 19 93 0 l 236 1017 l 236 1017 m 613 1257 q 600 1265 603 1267 q 585 1256 597 1264 l 492 1186 q 478 1179 482 1181 q 467 1178 474 1178 l 400 1178 q 390 1183 392 1178 q 397 1194 389 1189 l 554 1315 q 569 1325 561 1322 q 588 1328 576 1328 l 629 1328 q 644 1322 639 1328 q 653 1313 649 1317 l 775 1192 q 781 1181 782 1185 q 772 1178 781 1178 l 703 1178 q 691 1181 696 1178 q 681 1189 686 1185 l 613 1257 m 696 1461 q 690 1450 689 1457 l 706 1408 q 714 1404 708 1403 q 793 1433 756 1433 q 825 1424 813 1433 q 833 1392 838 1414 q 810 1354 831 1374 q 760 1307 789 1335 q 756 1301 757 1306 q 756 1294 754 1297 l 776 1264 q 789 1261 781 1256 q 857 1329 828 1299 q 892 1396 886 1360 q 872 1467 899 1440 q 797 1493 846 1493 q 747 1484 775 1493 q 696 1461 719 1475 l 696 1461 z "},"Ễ":{"ha":864,"x_min":93,"x_max":871,"o":"m 236 1017 q 240 1028 238 1026 q 250 1031 242 1031 l 858 1031 q 867 1015 871 1031 l 860 961 q 855 951 858 954 q 842 947 851 947 l 344 947 q 333 944 336 947 q 328 933 331 942 l 278 572 q 278 564 276 567 q 288 561 281 561 l 669 561 q 678 558 676 561 q 678 549 681 556 l 669 490 q 656 479 668 479 l 278 479 q 263 464 264 479 l 211 96 q 219 83 210 83 l 740 83 q 751 81 749 83 q 753 69 754 78 l 746 11 q 742 2 744 4 q 732 0 740 0 l 111 0 q 94 19 93 0 l 236 1017 l 236 1017 m 613 1257 q 600 1265 603 1267 q 585 1256 597 1264 l 492 1186 q 478 1179 482 1181 q 467 1178 474 1178 l 400 1178 q 390 1183 392 1178 q 397 1194 389 1189 l 554 1315 q 569 1325 561 1322 q 588 1328 576 1328 l 629 1328 q 644 1322 639 1328 q 653 1313 649 1317 l 775 1192 q 781 1181 782 1185 q 772 1178 781 1178 l 703 1178 q 691 1181 696 1178 q 681 1189 686 1185 l 613 1257 m 814 1440 q 772 1422 797 1431 q 710 1414 746 1414 q 647 1423 672 1414 q 599 1440 621 1432 q 546 1449 576 1449 q 497 1436 514 1449 q 460 1417 479 1424 q 448 1418 451 1415 q 442 1429 444 1421 l 433 1460 q 431 1471 432 1467 q 436 1478 431 1475 q 484 1503 460 1493 q 540 1513 508 1513 q 602 1504 575 1513 q 656 1486 629 1496 q 711 1476 682 1476 q 742 1481 729 1476 q 767 1492 756 1486 q 792 1504 778 1499 q 807 1505 801 1508 q 814 1493 813 1501 l 821 1458 q 822 1448 822 1453 q 814 1440 822 1443 l 814 1440 z "},"Ȅ":{"ha":864,"x_min":93,"x_max":871,"o":"m 236 1017 q 240 1028 238 1026 q 250 1031 242 1031 l 858 1031 q 867 1015 871 1031 l 860 961 q 855 951 858 954 q 842 947 851 947 l 344 947 q 333 944 336 947 q 328 933 331 942 l 278 572 q 278 564 276 567 q 288 561 281 561 l 669 561 q 678 558 676 561 q 678 549 681 556 l 669 490 q 656 479 668 479 l 278 479 q 263 464 264 479 l 211 96 q 219 83 210 83 l 740 83 q 751 81 749 83 q 753 69 754 78 l 746 11 q 742 2 744 4 q 732 0 740 0 l 111 0 q 94 19 93 0 l 236 1017 l 236 1017 m 369 1333 q 380 1336 374 1338 q 388 1331 386 1335 l 529 1147 q 533 1140 532 1144 q 531 1131 535 1136 l 508 1107 q 499 1103 504 1101 q 488 1110 493 1106 l 333 1268 q 329 1292 318 1281 l 369 1333 l 369 1333 m 582 1333 q 592 1336 586 1338 q 600 1331 599 1335 l 742 1147 q 745 1140 744 1144 q 743 1131 746 1135 l 721 1107 q 710 1103 715 1101 q 700 1110 706 1106 l 546 1268 q 540 1293 531 1282 l 582 1333 l 582 1333 z "},"Ë":{"ha":864,"x_min":93,"x_max":871,"o":"m 236 1017 q 240 1028 238 1026 q 250 1031 242 1031 l 858 1031 q 867 1015 871 1031 l 860 961 q 855 951 858 954 q 842 947 851 947 l 344 947 q 333 944 336 947 q 328 933 331 942 l 278 572 q 278 564 276 567 q 288 561 281 561 l 669 561 q 678 558 676 561 q 678 549 681 556 l 669 490 q 656 479 668 479 l 278 479 q 263 464 264 479 l 211 96 q 219 83 210 83 l 740 83 q 751 81 749 83 q 753 69 754 78 l 746 11 q 742 2 744 4 q 732 0 740 0 l 111 0 q 94 19 93 0 l 236 1017 l 236 1017 m 550 1196 q 545 1182 549 1185 q 529 1179 542 1179 l 471 1179 q 456 1184 460 1179 q 454 1197 453 1189 l 469 1311 q 474 1323 471 1321 q 483 1325 476 1325 l 551 1325 q 564 1320 560 1325 q 565 1307 568 1315 l 550 1196 m 733 1196 q 728 1182 732 1185 q 713 1179 725 1179 l 654 1179 q 640 1184 643 1179 q 638 1197 636 1189 l 653 1311 q 657 1323 654 1321 q 667 1325 660 1325 l 735 1325 q 747 1320 743 1325 q 749 1307 751 1315 l 733 1196 z "},"Ė":{"ha":864,"x_min":93,"x_max":871,"o":"m 236 1017 q 240 1028 238 1026 q 250 1031 242 1031 l 858 1031 q 867 1015 871 1031 l 860 961 q 855 951 858 954 q 842 947 851 947 l 344 947 q 333 944 336 947 q 328 933 331 942 l 278 572 q 278 564 276 567 q 288 561 281 561 l 669 561 q 678 558 676 561 q 678 549 681 556 l 669 490 q 656 479 668 479 l 278 479 q 263 464 264 479 l 211 96 q 219 83 210 83 l 740 83 q 751 81 749 83 q 753 69 754 78 l 746 11 q 742 2 744 4 q 732 0 740 0 l 111 0 q 94 19 93 0 l 236 1017 l 236 1017 m 646 1192 q 640 1176 644 1179 q 622 1174 636 1174 l 560 1174 q 544 1178 549 1174 q 542 1193 540 1183 l 558 1311 q 563 1323 561 1321 q 574 1325 565 1325 l 647 1325 q 660 1320 656 1325 q 661 1306 664 1315 l 646 1192 z "},"Ẹ":{"ha":864,"x_min":93,"x_max":871,"o":"m 236 1017 q 240 1028 238 1026 q 250 1031 242 1031 l 858 1031 q 867 1015 871 1031 l 860 961 q 855 951 858 954 q 842 947 851 947 l 344 947 q 333 944 336 947 q 328 933 331 942 l 278 572 q 278 564 276 567 q 288 561 281 561 l 669 561 q 678 558 676 561 q 678 549 681 556 l 669 490 q 656 479 668 479 l 278 479 q 263 464 264 479 l 211 96 q 219 83 210 83 l 740 83 q 751 81 749 83 q 753 69 754 78 l 746 11 q 742 2 744 4 q 732 0 740 0 l 111 0 q 94 19 93 0 l 236 1017 l 236 1017 m 396 -212 q 392 -226 394 -224 q 378 -229 389 -229 l 319 -229 q 306 -224 310 -229 q 303 -211 301 -219 l 319 -94 q 323 -83 321 -85 q 332 -81 325 -81 l 399 -81 q 410 -85 407 -81 q 411 -99 414 -90 l 396 -212 z "},"È":{"ha":864,"x_min":93,"x_max":871,"o":"m 236 1017 q 240 1028 238 1026 q 250 1031 242 1031 l 858 1031 q 867 1015 871 1031 l 860 961 q 855 951 858 954 q 842 947 851 947 l 344 947 q 333 944 336 947 q 328 933 331 942 l 278 572 q 278 564 276 567 q 288 561 281 561 l 669 561 q 678 558 676 561 q 678 549 681 556 l 669 490 q 656 479 668 479 l 278 479 q 263 464 264 479 l 211 96 q 219 83 210 83 l 740 83 q 751 81 749 83 q 753 69 754 78 l 746 11 q 742 2 744 4 q 732 0 740 0 l 111 0 q 94 19 93 0 l 236 1017 l 236 1017 m 431 1331 q 436 1335 432 1335 q 443 1335 440 1336 l 744 1206 q 752 1198 750 1203 q 751 1188 754 1193 l 736 1158 q 731 1152 735 1153 q 718 1153 728 1151 l 417 1253 q 403 1261 406 1256 q 404 1274 401 1267 l 431 1331 l 431 1331 z "},"Ẻ":{"ha":864,"x_min":93,"x_max":871,"o":"m 236 1017 q 240 1028 238 1026 q 250 1031 242 1031 l 858 1031 q 867 1015 871 1031 l 860 961 q 855 951 858 954 q 842 947 851 947 l 344 947 q 333 944 336 947 q 328 933 331 942 l 278 572 q 278 564 276 567 q 288 561 281 561 l 669 561 q 678 558 676 561 q 678 549 681 556 l 669 490 q 656 479 668 479 l 278 479 q 263 464 264 479 l 211 96 q 219 83 210 83 l 740 83 q 751 81 749 83 q 753 69 754 78 l 746 11 q 742 2 744 4 q 732 0 740 0 l 111 0 q 94 19 93 0 l 236 1017 l 236 1017 m 493 1324 q 488 1313 486 1319 l 503 1271 q 511 1267 506 1265 q 590 1296 553 1296 q 622 1286 610 1296 q 631 1254 635 1276 q 607 1217 628 1236 q 557 1169 586 1197 q 553 1164 554 1168 q 553 1157 551 1160 l 574 1126 q 586 1124 578 1118 q 654 1192 625 1161 q 689 1258 683 1222 q 669 1329 696 1303 q 594 1356 643 1356 q 544 1347 572 1356 q 493 1324 517 1338 l 493 1324 z "},"Ȇ":{"ha":864,"x_min":93,"x_max":871,"o":"m 236 1017 q 240 1028 238 1026 q 250 1031 242 1031 l 858 1031 q 867 1015 871 1031 l 860 961 q 855 951 858 954 q 842 947 851 947 l 344 947 q 333 944 336 947 q 328 933 331 942 l 278 572 q 278 564 276 567 q 288 561 281 561 l 669 561 q 678 558 676 561 q 678 549 681 556 l 669 490 q 656 479 668 479 l 278 479 q 263 464 264 479 l 211 96 q 219 83 210 83 l 740 83 q 751 81 749 83 q 753 69 754 78 l 746 11 q 742 2 744 4 q 732 0 740 0 l 111 0 q 94 19 93 0 l 236 1017 l 236 1017 m 393 1185 q 381 1190 383 1185 q 382 1204 378 1194 q 422 1260 394 1232 q 490 1306 449 1288 q 588 1325 532 1325 q 682 1307 643 1325 q 742 1260 721 1289 q 768 1197 764 1231 q 766 1189 768 1193 q 756 1185 764 1185 l 697 1185 q 687 1189 690 1185 q 679 1200 683 1193 q 663 1224 674 1210 q 635 1247 653 1238 q 586 1257 618 1257 q 510 1235 540 1257 q 464 1192 481 1214 q 455 1185 458 1186 q 446 1185 451 1185 l 393 1185 l 393 1185 z "},"Ē":{"ha":864,"x_min":93,"x_max":871,"o":"m 236 1017 q 240 1028 238 1026 q 250 1031 242 1031 l 858 1031 q 867 1015 871 1031 l 860 961 q 855 951 858 954 q 842 947 851 947 l 344 947 q 333 944 336 947 q 328 933 331 942 l 278 572 q 278 564 276 567 q 288 561 281 561 l 669 561 q 678 558 676 561 q 678 549 681 556 l 669 490 q 656 479 668 479 l 278 479 q 263 464 264 479 l 211 96 q 219 83 210 83 l 740 83 q 751 81 749 83 q 753 69 754 78 l 746 11 q 742 2 744 4 q 732 0 740 0 l 111 0 q 94 19 93 0 l 236 1017 l 236 1017 m 793 1242 q 788 1232 792 1235 q 775 1229 785 1229 l 421 1229 q 409 1234 413 1229 q 407 1247 406 1239 l 413 1292 q 417 1299 415 1297 q 422 1301 418 1301 l 789 1301 q 797 1297 793 1301 q 799 1288 800 1292 l 793 1242 z "},"Ŋ":{"ha":1050,"x_min":93,"x_max":1000,"o":"m 983 1031 q 996 1013 1000 1031 l 847 -46 q 782 -192 835 -140 q 624 -243 729 -243 q 547 -235 579 -243 q 503 -221 515 -228 q 490 -200 488 -215 l 503 -149 q 508 -141 506 -142 q 514 -143 510 -140 q 543 -150 526 -146 q 579 -157 560 -154 q 617 -160 599 -160 q 707 -131 674 -160 q 750 -32 740 -103 l 758 31 l 318 835 q 308 842 313 844 q 303 829 304 839 l 188 13 q 183 3 186 6 q 171 0 181 0 l 111 0 q 98 5 103 0 q 94 18 93 10 l 236 1017 q 240 1028 238 1025 q 251 1031 243 1031 l 311 1031 q 325 1028 319 1031 q 335 1017 331 1025 l 771 215 q 785 211 778 206 q 794 225 793 217 l 906 1018 q 910 1028 907 1026 q 919 1031 913 1031 l 983 1031 l 983 1031 z "},"Ę":{"ha":864,"x_min":93,"x_max":871,"o":"m 236 1017 q 240 1028 238 1026 q 250 1031 242 1031 l 858 1031 q 867 1015 871 1031 l 860 961 q 855 951 858 954 q 842 947 851 947 l 344 947 q 333 944 336 947 q 328 933 331 942 l 278 572 q 278 564 276 567 q 288 561 281 561 l 669 561 q 678 558 676 561 q 678 549 681 556 l 669 490 q 656 479 668 479 l 278 479 q 263 464 264 479 l 211 96 q 219 83 210 83 l 740 83 q 751 81 749 83 q 753 69 754 78 l 746 11 q 742 2 744 4 q 732 0 740 0 l 111 0 q 94 19 93 0 l 236 1017 l 236 1017 m 497 -122 q 517 -69 501 -93 q 569 -26 533 -46 q 664 13 606 -6 l 733 -1 q 622 -60 658 -32 q 579 -128 585 -89 q 590 -167 576 -154 q 642 -179 604 -179 q 699 -172 675 -179 q 735 -160 724 -165 q 746 -160 742 -157 q 749 -169 750 -162 l 743 -204 q 740 -215 742 -211 q 733 -219 738 -218 q 685 -232 715 -226 q 619 -237 654 -237 q 520 -205 550 -237 q 497 -122 490 -172 l 497 -122 z "},"Ð":{"ha":944,"x_min":35,"x_max":878,"o":"m 485 493 q 478 480 483 483 q 463 476 474 476 l 53 476 q 39 482 43 476 q 36 497 35 488 l 43 544 q 47 555 44 553 q 56 557 49 557 l 479 557 q 490 552 486 557 q 492 542 493 547 l 485 493 m 65 0 q 52 6 57 0 q 49 21 47 11 l 189 1018 q 195 1028 190 1025 q 207 1031 200 1031 l 394 1031 q 669 986 563 1031 q 826 855 775 942 q 878 638 878 768 q 809 292 878 435 q 601 75 740 150 q 251 0 463 0 l 65 0 l 65 0 m 256 82 q 552 147 439 82 q 717 336 665 211 q 769 640 769 461 q 727 823 769 756 q 599 919 685 890 q 385 947 514 947 l 297 947 q 281 931 282 947 l 167 101 q 169 86 165 90 q 181 82 172 82 l 256 82 z "},"Ẽ":{"ha":864,"x_min":93,"x_max":871,"o":"m 236 1017 q 240 1028 238 1026 q 250 1031 242 1031 l 858 1031 q 867 1015 871 1031 l 860 961 q 855 951 858 954 q 842 947 851 947 l 344 947 q 333 944 336 947 q 328 933 331 942 l 278 572 q 278 564 276 567 q 288 561 281 561 l 669 561 q 678 558 676 561 q 678 549 681 556 l 669 490 q 656 479 668 479 l 278 479 q 263 464 264 479 l 211 96 q 219 83 210 83 l 740 83 q 751 81 749 83 q 753 69 754 78 l 746 11 q 742 2 744 4 q 732 0 740 0 l 111 0 q 94 19 93 0 l 236 1017 l 236 1017 m 790 1240 q 748 1222 774 1231 q 686 1214 722 1214 q 623 1223 649 1214 q 575 1240 597 1232 q 522 1249 553 1249 q 473 1236 490 1249 q 436 1217 456 1224 q 424 1218 428 1215 q 418 1229 421 1221 l 410 1260 q 408 1271 408 1267 q 413 1278 407 1275 q 460 1303 436 1293 q 517 1313 485 1313 q 578 1304 551 1313 q 632 1286 606 1296 q 688 1276 658 1276 q 719 1281 706 1276 q 743 1292 732 1286 q 768 1304 754 1299 q 783 1305 778 1308 q 790 1293 789 1301 l 797 1258 q 799 1248 799 1253 q 790 1240 799 1243 l 790 1240 z "},"Ğ":{"ha":1021,"x_min":110,"x_max":947,"o":"m 469 -14 q 274 34 356 -14 q 151 173 193 82 q 110 390 110 264 q 142 638 110 519 q 240 847 175 756 q 398 992 304 939 q 614 1044 492 1044 q 783 1006 707 1044 q 903 903 858 967 q 946 765 947 840 q 939 751 946 753 l 856 738 q 848 741 850 736 q 844 757 846 746 q 813 860 843 814 q 732 933 783 906 q 611 961 681 961 q 436 912 510 961 q 314 781 363 863 q 242 595 265 699 q 218 382 218 492 q 284 149 218 228 q 478 71 350 71 q 611 97 553 71 q 712 164 669 122 q 780 254 754 206 q 814 347 806 303 l 828 440 q 814 453 831 453 l 574 453 q 563 464 561 453 l 569 515 q 578 524 571 524 l 921 524 q 931 520 928 524 q 933 510 935 517 l 863 15 q 844 0 861 0 l 817 0 q 799 15 799 0 l 810 153 q 806 160 810 160 q 794 151 801 160 q 718 69 765 107 q 608 8 671 31 q 469 -14 546 -14 l 469 -14 m 828 1324 q 840 1319 838 1324 q 839 1304 843 1314 q 797 1249 826 1278 q 726 1202 768 1221 q 628 1183 683 1183 q 534 1201 572 1183 q 475 1249 496 1219 q 453 1311 454 1278 q 456 1319 453 1315 q 465 1324 458 1324 l 524 1324 q 533 1319 531 1324 q 542 1308 536 1315 q 558 1285 549 1300 q 585 1261 568 1271 q 635 1251 603 1251 q 710 1274 681 1251 q 757 1317 739 1296 q 766 1323 763 1322 q 775 1324 769 1324 l 828 1324 l 828 1324 z "},"Ĝ":{"ha":1021,"x_min":110,"x_max":947,"o":"m 469 -14 q 274 34 356 -14 q 151 173 193 82 q 110 390 110 264 q 142 638 110 519 q 240 847 175 756 q 398 992 304 939 q 614 1044 492 1044 q 783 1006 707 1044 q 903 903 858 967 q 946 765 947 840 q 939 751 946 753 l 856 738 q 848 741 850 736 q 844 757 846 746 q 813 860 843 814 q 732 933 783 906 q 611 961 681 961 q 436 912 510 961 q 314 781 363 863 q 242 595 265 699 q 218 382 218 492 q 284 149 218 228 q 478 71 350 71 q 611 97 553 71 q 712 164 669 122 q 780 254 754 206 q 814 347 806 303 l 828 440 q 814 453 831 453 l 574 453 q 563 464 561 453 l 569 515 q 578 524 571 524 l 921 524 q 931 520 928 524 q 933 510 935 517 l 863 15 q 844 0 861 0 l 817 0 q 799 15 799 0 l 810 153 q 806 160 810 160 q 794 151 801 160 q 718 69 765 107 q 608 8 671 31 q 469 -14 546 -14 l 469 -14 m 657 1257 q 644 1265 647 1267 q 629 1256 642 1264 l 536 1186 q 522 1179 526 1181 q 511 1178 518 1178 l 444 1178 q 435 1183 436 1178 q 442 1194 433 1189 l 599 1315 q 613 1325 606 1322 q 632 1328 621 1328 l 674 1328 q 688 1322 683 1328 q 697 1313 693 1317 l 819 1192 q 826 1181 826 1185 q 817 1178 825 1178 l 747 1178 q 735 1181 740 1178 q 725 1189 731 1185 l 657 1257 z "},"Ģ":{"ha":1021,"x_min":110,"x_max":947,"o":"m 469 -14 q 274 34 356 -14 q 151 173 193 82 q 110 390 110 264 q 142 638 110 519 q 240 847 175 756 q 398 992 304 939 q 614 1044 492 1044 q 783 1006 707 1044 q 903 903 858 967 q 946 765 947 840 q 939 751 946 753 l 856 738 q 848 741 850 736 q 844 757 846 746 q 813 860 843 814 q 732 933 783 906 q 611 961 681 961 q 436 912 510 961 q 314 781 363 863 q 242 595 265 699 q 218 382 218 492 q 284 149 218 228 q 478 71 350 71 q 611 97 553 71 q 712 164 669 122 q 780 254 754 206 q 814 347 806 303 l 828 440 q 814 453 831 453 l 574 453 q 563 464 561 453 l 569 515 q 578 524 571 524 l 921 524 q 931 520 928 524 q 933 510 935 517 l 863 15 q 844 0 861 0 l 817 0 q 799 15 799 0 l 810 153 q 806 160 810 160 q 794 151 801 160 q 718 69 765 107 q 608 8 671 31 q 469 -14 546 -14 l 469 -14 m 386 -331 q 380 -327 381 -331 q 383 -318 379 -324 l 432 -243 q 435 -231 436 -236 q 426 -226 433 -226 l 411 -226 q 402 -224 404 -226 q 401 -212 400 -221 l 414 -121 q 428 -107 417 -107 l 503 -107 q 511 -117 513 -107 l 496 -224 q 492 -236 493 -231 l 431 -318 q 422 -327 426 -324 q 407 -331 417 -331 l 386 -331 l 386 -331 z "},"Ġ":{"ha":1021,"x_min":110,"x_max":947,"o":"m 469 -14 q 274 34 356 -14 q 151 173 193 82 q 110 390 110 264 q 142 638 110 519 q 240 847 175 756 q 398 992 304 939 q 614 1044 492 1044 q 783 1006 707 1044 q 903 903 858 967 q 946 765 947 840 q 939 751 946 753 l 856 738 q 848 741 850 736 q 844 757 846 746 q 813 860 843 814 q 732 933 783 906 q 611 961 681 961 q 436 912 510 961 q 314 781 363 863 q 242 595 265 699 q 218 382 218 492 q 284 149 218 228 q 478 71 350 71 q 611 97 553 71 q 712 164 669 122 q 780 254 754 206 q 814 347 806 303 l 828 440 q 814 453 831 453 l 574 453 q 563 464 561 453 l 569 515 q 578 524 571 524 l 921 524 q 931 520 928 524 q 933 510 935 517 l 863 15 q 844 0 861 0 l 817 0 q 799 15 799 0 l 810 153 q 806 160 810 160 q 794 151 801 160 q 718 69 765 107 q 608 8 671 31 q 469 -14 546 -14 l 469 -14 m 689 1192 q 683 1176 688 1179 q 665 1174 679 1174 l 603 1174 q 588 1178 592 1174 q 585 1193 583 1183 l 601 1311 q 606 1323 604 1321 q 617 1325 608 1325 l 690 1325 q 703 1320 699 1325 q 704 1306 707 1315 l 689 1192 z "},"Ħ":{"ha":1003,"x_min":46,"x_max":1065,"o":"m 1058 814 q 1053 800 1057 803 q 1038 797 1049 797 l 85 797 q 72 803 75 797 q 69 817 68 808 l 74 856 q 77 865 75 863 q 86 867 79 867 l 1054 867 q 1063 863 1060 867 q 1064 851 1065 858 l 1058 814 m 231 493 q 223 489 226 493 q 218 481 219 485 l 153 14 q 147 3 151 6 q 133 0 143 0 l 63 0 q 49 4 53 0 q 47 18 46 8 l 189 1017 q 193 1028 190 1026 q 203 1031 196 1031 l 281 1031 q 292 1027 289 1031 q 292 1014 294 1024 l 233 592 q 235 580 232 582 q 244 578 238 578 l 736 578 q 747 583 743 578 q 751 594 750 588 l 811 1018 q 815 1028 813 1026 q 824 1031 818 1031 l 903 1031 q 913 1026 910 1031 q 914 1011 917 1022 l 774 15 q 770 3 772 6 q 758 0 768 0 l 688 0 q 673 4 678 0 q 669 18 668 8 l 735 483 q 726 493 736 493 l 231 493 z "},"Ĥ":{"ha":1015,"x_min":93,"x_max":964,"o":"m 278 493 q 270 489 274 493 q 265 481 267 485 l 200 14 q 194 3 197 6 q 181 0 190 0 l 110 0 q 97 4 100 0 q 94 18 93 8 l 236 1017 q 240 1028 238 1026 q 250 1031 243 1031 l 328 1031 q 338 1027 335 1031 q 339 1014 342 1024 l 281 592 q 281 580 279 582 q 292 578 283 578 l 782 578 q 793 583 790 578 q 797 594 796 588 l 858 1018 q 862 1028 860 1026 q 871 1031 864 1031 l 949 1031 q 960 1026 957 1031 q 961 1011 964 1022 l 821 15 q 817 3 819 6 q 806 0 814 0 l 735 0 q 720 4 725 0 q 717 18 715 8 l 782 483 q 772 493 783 493 l 278 493 m 643 1257 q 631 1265 633 1267 q 615 1256 628 1264 l 522 1186 q 508 1179 513 1181 q 497 1178 504 1178 l 431 1178 q 421 1183 422 1178 q 428 1194 419 1189 l 585 1315 q 599 1325 592 1322 q 618 1328 607 1328 l 660 1328 q 674 1322 669 1328 q 683 1313 679 1317 l 806 1192 q 812 1181 813 1185 q 803 1178 811 1178 l 733 1178 q 722 1181 726 1178 q 711 1189 717 1185 l 643 1257 z "},"Í":{"ha":393,"x_min":93,"x_max":508,"o":"m 326 1031 q 339 1011 343 1031 l 200 18 q 194 3 197 6 q 178 0 192 0 l 113 0 q 97 5 100 0 q 94 19 93 10 l 236 1017 q 240 1028 238 1026 q 250 1031 243 1031 l 326 1031 m 506 1274 q 506 1262 508 1267 q 494 1254 504 1257 l 163 1153 q 150 1153 156 1150 q 144 1164 144 1157 l 138 1190 q 143 1206 136 1204 l 481 1338 q 490 1337 485 1339 q 494 1329 494 1335 l 506 1274 z "},"Ĭ":{"ha":393,"x_min":93,"x_max":522,"o":"m 326 1031 q 339 1011 343 1031 l 200 18 q 194 3 197 6 q 178 0 192 0 l 113 0 q 97 5 100 0 q 94 19 93 10 l 236 1017 q 240 1028 238 1026 q 250 1031 243 1031 l 326 1031 m 507 1324 q 519 1319 517 1324 q 518 1304 522 1314 q 476 1249 506 1278 q 405 1202 447 1221 q 307 1183 363 1183 q 213 1201 251 1183 q 154 1249 175 1219 q 132 1311 133 1278 q 135 1319 132 1315 q 144 1324 138 1324 l 203 1324 q 213 1319 210 1324 q 221 1308 215 1315 q 238 1285 228 1300 q 265 1261 247 1271 q 314 1251 282 1251 q 389 1274 360 1251 q 436 1317 418 1296 q 445 1323 442 1322 q 454 1324 449 1324 l 507 1324 l 507 1324 z "},"Î":{"ha":393,"x_min":93,"x_max":506,"o":"m 326 1031 q 339 1011 343 1031 l 200 18 q 194 3 197 6 q 178 0 192 0 l 113 0 q 97 5 100 0 q 94 19 93 10 l 236 1017 q 240 1028 238 1026 q 250 1031 243 1031 l 326 1031 m 336 1257 q 324 1265 326 1267 q 308 1256 321 1264 l 215 1186 q 201 1179 206 1181 q 190 1178 197 1178 l 124 1178 q 114 1183 115 1178 q 121 1194 113 1189 l 278 1315 q 292 1325 285 1322 q 311 1328 300 1328 l 353 1328 q 367 1322 363 1328 q 376 1313 372 1317 l 499 1192 q 505 1181 506 1185 q 496 1178 504 1178 l 426 1178 q 415 1181 419 1178 q 404 1189 410 1185 l 336 1257 z "},"Ȉ":{"ha":393,"x_min":40,"x_max":469,"o":"m 326 1031 q 339 1011 343 1031 l 200 18 q 194 3 197 6 q 178 0 192 0 l 113 0 q 97 5 100 0 q 94 19 93 10 l 236 1017 q 240 1028 238 1026 q 250 1031 243 1031 l 326 1031 m 92 1333 q 102 1336 96 1338 q 110 1331 108 1335 l 251 1147 q 256 1140 254 1144 q 253 1131 257 1136 l 231 1107 q 221 1103 226 1101 q 210 1110 215 1106 l 56 1268 q 51 1292 40 1281 l 92 1333 l 92 1333 m 304 1333 q 315 1336 308 1338 q 322 1331 321 1335 l 464 1147 q 467 1140 467 1144 q 465 1131 468 1135 l 443 1107 q 433 1103 438 1101 q 422 1110 428 1106 l 268 1268 q 263 1293 253 1282 l 304 1333 l 304 1333 z "},"Ï":{"ha":393,"x_min":93,"x_max":474,"o":"m 326 1031 q 339 1011 343 1031 l 200 18 q 194 3 197 6 q 178 0 192 0 l 113 0 q 97 5 100 0 q 94 19 93 10 l 236 1017 q 240 1028 238 1026 q 250 1031 243 1031 l 326 1031 m 274 1196 q 269 1182 272 1185 q 253 1179 265 1179 l 194 1179 q 180 1184 183 1179 q 178 1197 176 1189 l 193 1311 q 197 1323 194 1321 q 207 1325 200 1325 l 275 1325 q 288 1320 283 1325 q 289 1307 292 1315 l 274 1196 m 457 1196 q 452 1182 456 1185 q 436 1179 449 1179 l 378 1179 q 363 1184 367 1179 q 361 1197 360 1189 l 376 1311 q 381 1323 378 1321 q 390 1325 383 1325 l 458 1325 q 471 1320 467 1325 q 472 1307 475 1315 l 457 1196 z "},"İ":{"ha":393,"x_min":93,"x_max":386,"o":"m 326 1031 q 339 1011 343 1031 l 200 18 q 194 3 197 6 q 178 0 192 0 l 113 0 q 97 5 100 0 q 94 19 93 10 l 236 1017 q 240 1028 238 1026 q 250 1031 243 1031 l 326 1031 m 368 1192 q 363 1176 367 1179 q 344 1174 358 1174 l 282 1174 q 267 1178 271 1174 q 264 1193 263 1183 l 281 1311 q 285 1323 283 1321 q 296 1325 288 1325 l 369 1325 q 382 1320 378 1325 q 383 1306 386 1315 l 368 1192 z "},"Ị":{"ha":393,"x_min":67,"x_max":343,"o":"m 326 1031 q 339 1011 343 1031 l 200 18 q 194 3 197 6 q 178 0 192 0 l 113 0 q 97 5 100 0 q 94 19 93 10 l 236 1017 q 240 1028 238 1026 q 250 1031 243 1031 l 326 1031 m 161 -212 q 157 -226 160 -224 q 143 -229 154 -229 l 85 -229 q 71 -224 75 -229 q 68 -211 67 -219 l 85 -94 q 88 -83 86 -85 q 97 -81 90 -81 l 164 -81 q 176 -85 172 -81 q 176 -99 179 -90 l 161 -212 z "},"Ì":{"ha":393,"x_min":93,"x_max":478,"o":"m 326 1031 q 339 1011 343 1031 l 200 18 q 194 3 197 6 q 178 0 192 0 l 113 0 q 97 5 100 0 q 94 19 93 10 l 236 1017 q 240 1028 238 1026 q 250 1031 243 1031 l 326 1031 m 154 1331 q 160 1335 156 1335 q 167 1335 164 1336 l 468 1206 q 476 1198 474 1203 q 475 1188 478 1193 l 460 1158 q 455 1152 458 1153 q 442 1153 451 1151 l 140 1253 q 127 1261 129 1256 q 128 1274 125 1267 l 154 1331 l 154 1331 z "},"Ỉ":{"ha":393,"x_min":93,"x_max":419,"o":"m 326 1031 q 339 1011 343 1031 l 200 18 q 194 3 197 6 q 178 0 192 0 l 113 0 q 97 5 100 0 q 94 19 93 10 l 236 1017 q 240 1028 238 1026 q 250 1031 243 1031 l 326 1031 m 215 1324 q 210 1313 208 1319 l 225 1271 q 233 1267 228 1265 q 313 1296 275 1296 q 344 1286 332 1296 q 353 1254 357 1276 q 329 1217 350 1236 q 279 1169 308 1197 q 275 1164 276 1168 q 275 1157 274 1160 l 296 1126 q 308 1124 300 1118 q 376 1192 347 1161 q 411 1258 406 1222 q 392 1329 418 1303 q 317 1356 365 1356 q 267 1347 294 1356 q 215 1324 239 1338 l 215 1324 z "},"Ȋ":{"ha":393,"x_min":93,"x_max":492,"o":"m 326 1031 q 339 1011 343 1031 l 200 18 q 194 3 197 6 q 178 0 192 0 l 113 0 q 97 5 100 0 q 94 19 93 10 l 236 1017 q 240 1028 238 1026 q 250 1031 243 1031 l 326 1031 m 115 1185 q 103 1190 106 1185 q 104 1204 100 1194 q 144 1260 117 1232 q 213 1306 171 1288 q 310 1325 254 1325 q 404 1307 365 1325 q 465 1260 443 1289 q 490 1197 486 1231 q 488 1189 490 1193 q 478 1185 486 1185 l 419 1185 q 409 1189 413 1185 q 401 1200 406 1193 q 385 1224 396 1210 q 358 1247 375 1238 q 308 1257 340 1257 q 233 1235 263 1257 q 186 1192 203 1214 q 177 1185 181 1186 q 168 1185 174 1185 l 115 1185 l 115 1185 z "},"Ī":{"ha":393,"x_min":93,"x_max":524,"o":"m 326 1031 q 339 1011 343 1031 l 200 18 q 194 3 197 6 q 178 0 192 0 l 113 0 q 97 5 100 0 q 94 19 93 10 l 236 1017 q 240 1028 238 1026 q 250 1031 243 1031 l 326 1031 m 517 1242 q 512 1232 515 1235 q 499 1229 508 1229 l 144 1229 q 133 1234 136 1229 q 131 1247 129 1239 l 136 1292 q 140 1299 139 1297 q 146 1301 142 1301 l 513 1301 q 520 1297 517 1301 q 522 1288 524 1292 l 517 1242 z "},"Į":{"ha":393,"x_min":-54,"x_max":343,"o":"m 326 1031 q 339 1011 343 1031 l 200 18 q 194 3 197 6 q 178 0 192 0 l 113 0 q 97 5 100 0 q 94 19 93 10 l 236 1017 q 240 1028 238 1026 q 250 1031 243 1031 l 326 1031 m -47 -121 q -27 -68 -43 -92 q 25 -24 -11 -44 q 119 14 61 -4 l 189 0 q 77 -59 114 -31 q 35 -126 40 -87 q 46 -165 32 -153 q 97 -178 60 -178 q 155 -171 131 -178 q 190 -158 179 -164 q 201 -158 197 -156 q 204 -168 206 -161 l 199 -203 q 195 -213 197 -210 q 189 -218 193 -217 q 140 -231 171 -225 q 75 -236 110 -236 q -24 -203 6 -236 q -47 -121 -54 -171 l -47 -121 z "},"Ĩ":{"ha":393,"x_min":93,"x_max":522,"o":"m 326 1031 q 339 1011 343 1031 l 200 18 q 194 3 197 6 q 178 0 192 0 l 113 0 q 97 5 100 0 q 94 19 93 10 l 236 1017 q 240 1028 238 1026 q 250 1031 243 1031 l 326 1031 m 514 1240 q 472 1222 497 1231 q 410 1214 446 1214 q 347 1223 372 1214 q 299 1240 321 1232 q 246 1249 276 1249 q 197 1236 214 1249 q 160 1217 179 1224 q 148 1218 151 1215 q 142 1229 144 1221 l 133 1260 q 131 1271 132 1267 q 136 1278 131 1275 q 184 1303 160 1293 q 240 1313 208 1313 q 302 1304 275 1313 q 356 1286 329 1296 q 411 1276 382 1276 q 442 1281 429 1276 q 467 1292 456 1286 q 492 1304 478 1299 q 507 1305 501 1308 q 514 1293 513 1301 l 521 1258 q 522 1248 522 1253 q 514 1240 522 1243 l 514 1240 z "},"Ĵ":{"ha":569,"x_min":11,"x_max":685,"o":"m 410 213 q 372 89 400 140 q 296 12 344 38 q 175 -14 247 -14 q 78 0 117 -14 q 26 18 39 14 q 14 26 17 22 q 13 36 11 31 l 36 100 q 42 107 38 106 q 56 103 46 108 q 99 88 72 97 q 165 79 126 79 q 265 117 233 79 q 308 242 296 154 l 418 1018 q 422 1028 419 1026 q 431 1031 425 1031 l 510 1031 q 521 1011 524 1031 l 410 213 l 410 213 m 514 1257 q 501 1265 504 1267 q 486 1256 499 1264 l 393 1186 q 379 1179 383 1181 q 368 1178 375 1178 l 301 1178 q 292 1183 293 1178 q 299 1194 290 1189 l 456 1315 q 470 1325 463 1322 q 489 1328 478 1328 l 531 1328 q 545 1322 540 1328 q 554 1313 550 1317 l 676 1192 q 683 1181 683 1185 q 674 1178 682 1178 l 604 1178 q 592 1181 597 1178 q 582 1189 588 1185 l 514 1257 z "},"Ķ":{"ha":958,"x_min":93,"x_max":957,"o":"m 839 18 q 835 0 849 0 l 744 0 q 728 13 732 0 l 474 546 q 467 549 471 553 q 456 540 463 546 l 260 350 q 249 339 253 344 q 243 324 244 333 l 200 14 q 194 3 199 7 q 181 0 190 0 l 111 0 q 97 5 101 0 q 94 18 93 10 l 236 1018 q 240 1028 238 1026 q 249 1031 243 1031 l 326 1031 q 338 1026 333 1031 q 340 1014 342 1022 l 265 479 q 265 473 263 471 q 275 482 268 475 l 836 1021 q 848 1029 842 1028 q 864 1031 854 1031 l 946 1031 q 956 1026 956 1031 q 951 1015 957 1021 l 558 638 q 553 632 556 635 q 551 624 550 629 l 839 18 l 839 18 m 338 -331 q 331 -327 332 -331 q 335 -318 331 -324 l 383 -243 q 386 -231 388 -236 q 378 -226 385 -226 l 363 -226 q 353 -224 356 -226 q 353 -212 351 -221 l 365 -121 q 379 -107 368 -107 l 454 -107 q 463 -117 464 -107 l 447 -224 q 443 -236 444 -231 l 382 -318 q 373 -327 378 -324 q 358 -331 368 -331 l 338 -331 l 338 -331 z "},"Ĺ":{"ha":828,"x_min":92,"x_max":726,"o":"m 236 1015 q 253 1031 238 1031 l 329 1031 q 339 1011 342 1031 l 211 97 q 221 83 208 83 l 711 83 q 725 68 726 83 l 717 11 q 713 2 715 4 q 704 0 711 0 l 111 0 q 94 19 92 0 l 236 1015 l 236 1015 m 688 1274 q 688 1262 690 1267 q 676 1254 686 1257 l 344 1153 q 332 1153 338 1150 q 326 1164 326 1157 l 319 1190 q 325 1206 318 1204 l 663 1338 q 672 1337 667 1339 q 676 1329 676 1335 l 688 1274 z "},"Ľ":{"ha":828,"x_min":92,"x_max":726,"o":"m 236 1015 q 253 1031 238 1031 l 329 1031 q 339 1011 342 1031 l 211 97 q 221 83 208 83 l 711 83 q 725 68 726 83 l 717 11 q 713 2 715 4 q 704 0 711 0 l 111 0 q 94 19 92 0 l 236 1015 l 236 1015 m 592 771 q 585 776 588 771 q 583 785 582 782 l 640 885 q 644 894 643 892 q 640 897 644 896 l 632 899 q 621 903 625 900 q 618 914 617 907 l 633 1021 q 636 1029 635 1028 q 642 1031 638 1031 l 714 1031 q 722 1027 718 1031 q 724 1018 725 1024 l 707 896 q 705 892 706 894 q 703 889 704 890 l 642 781 q 634 772 639 774 q 619 771 629 771 l 592 771 l 592 771 z "},"Ļ":{"ha":828,"x_min":92,"x_max":726,"o":"m 236 1015 q 253 1031 238 1031 l 329 1031 q 339 1011 342 1031 l 211 97 q 221 83 208 83 l 711 83 q 725 68 726 83 l 717 11 q 713 2 715 4 q 704 0 711 0 l 111 0 q 94 19 92 0 l 236 1015 l 236 1015 m 239 -331 q 233 -327 233 -331 q 236 -318 232 -324 l 285 -243 q 288 -231 289 -236 q 279 -226 286 -226 l 264 -226 q 255 -224 257 -226 q 254 -212 253 -221 l 267 -121 q 281 -107 269 -107 l 356 -107 q 364 -117 365 -107 l 349 -224 q 344 -236 346 -231 l 283 -318 q 274 -327 279 -324 q 260 -331 269 -331 l 239 -331 l 239 -331 z "},"Ŀ":{"ha":856,"x_min":40,"x_max":690,"o":"m 185 1015 q 201 1031 186 1031 l 278 1031 q 288 1011 290 1031 l 160 97 q 169 83 157 83 l 660 83 q 674 68 675 83 l 665 11 q 662 2 664 4 q 653 0 660 0 l 60 0 q 43 19 40 0 l 185 1015 l 185 1015 m 676 506 q 672 492 675 494 q 654 489 668 489 l 556 489 q 542 494 546 489 q 539 508 538 500 l 554 608 q 558 619 556 617 q 565 621 560 621 l 679 621 q 689 617 686 621 q 690 606 692 613 l 676 506 z "},"Ł":{"ha":776,"x_min":40,"x_max":675,"o":"m 500 567 q 497 559 499 561 q 489 554 496 557 l 57 444 q 45 445 49 442 q 43 457 42 449 l 50 511 q 53 522 51 519 q 60 525 56 524 l 494 633 q 506 631 501 635 q 508 621 510 626 l 500 567 m 185 1015 q 201 1031 186 1031 l 278 1031 q 288 1011 290 1031 l 160 97 q 169 83 157 83 l 660 83 q 674 68 675 83 l 665 11 q 662 2 664 4 q 653 0 660 0 l 60 0 q 43 19 40 0 l 185 1015 l 185 1015 z "},"Ń":{"ha":1050,"x_min":93,"x_max":997,"o":"m 983 1031 q 996 1014 997 1031 l 856 13 q 840 0 854 0 l 792 0 q 777 2 783 0 q 765 13 771 4 l 319 831 q 308 840 314 842 q 301 826 303 839 l 188 14 q 183 3 186 6 q 171 0 179 0 l 108 0 q 97 5 100 0 q 94 18 93 10 l 236 1017 q 240 1028 238 1026 q 251 1031 243 1031 l 308 1031 q 323 1028 318 1031 q 332 1017 328 1025 l 769 208 q 783 199 776 197 q 792 214 790 200 l 904 1018 q 909 1028 907 1026 q 918 1031 911 1031 l 983 1031 m 850 1274 q 851 1262 853 1267 q 839 1254 849 1257 l 507 1153 q 494 1153 500 1150 q 489 1164 489 1157 l 482 1190 q 488 1206 481 1204 l 825 1338 q 834 1337 829 1339 q 839 1329 839 1335 l 850 1274 z "},"Ň":{"ha":1050,"x_min":93,"x_max":997,"o":"m 983 1031 q 996 1014 997 1031 l 856 13 q 840 0 854 0 l 792 0 q 777 2 783 0 q 765 13 771 4 l 319 831 q 308 840 314 842 q 301 826 303 839 l 188 14 q 183 3 186 6 q 171 0 179 0 l 108 0 q 97 5 100 0 q 94 18 93 10 l 236 1017 q 240 1028 238 1026 q 251 1031 243 1031 l 308 1031 q 323 1028 318 1031 q 332 1017 328 1025 l 769 208 q 783 199 776 197 q 792 214 790 200 l 904 1018 q 909 1028 907 1026 q 918 1031 911 1031 l 983 1031 m 768 1318 q 780 1324 775 1324 q 792 1325 785 1325 l 864 1325 q 874 1320 872 1325 q 867 1307 875 1315 l 710 1186 q 699 1178 706 1182 q 683 1175 693 1175 l 642 1175 q 624 1180 631 1175 q 613 1192 618 1185 l 489 1311 q 483 1322 483 1318 q 489 1325 482 1325 l 554 1325 q 567 1323 563 1325 q 576 1314 571 1321 l 650 1246 q 665 1238 661 1236 q 681 1250 668 1240 l 768 1318 l 768 1318 z "},"Ņ":{"ha":1050,"x_min":93,"x_max":997,"o":"m 983 1031 q 996 1014 997 1031 l 856 13 q 840 0 854 0 l 792 0 q 777 2 783 0 q 765 13 771 4 l 319 831 q 308 840 314 842 q 301 826 303 839 l 188 14 q 183 3 186 6 q 171 0 179 0 l 108 0 q 97 5 100 0 q 94 18 93 10 l 236 1017 q 240 1028 238 1026 q 251 1031 243 1031 l 308 1031 q 323 1028 318 1031 q 332 1017 328 1025 l 769 208 q 783 199 776 197 q 792 214 790 200 l 904 1018 q 909 1028 907 1026 q 918 1031 911 1031 l 983 1031 m 356 -331 q 349 -327 350 -331 q 353 -318 349 -324 l 401 -243 q 404 -231 406 -236 q 396 -226 403 -226 l 381 -226 q 372 -224 374 -226 q 371 -212 369 -221 l 383 -121 q 397 -107 386 -107 l 472 -107 q 481 -117 482 -107 l 465 -224 q 461 -236 463 -231 l 400 -318 q 391 -327 396 -324 q 376 -331 386 -331 l 356 -331 l 356 -331 z "},"Ñ":{"ha":1050,"x_min":93,"x_max":997,"o":"m 983 1031 q 996 1014 997 1031 l 856 13 q 840 0 854 0 l 792 0 q 777 2 783 0 q 765 13 771 4 l 319 831 q 308 840 314 842 q 301 826 303 839 l 188 14 q 183 3 186 6 q 171 0 179 0 l 108 0 q 97 5 100 0 q 94 18 93 10 l 236 1017 q 240 1028 238 1026 q 251 1031 243 1031 l 308 1031 q 323 1028 318 1031 q 332 1017 328 1025 l 769 208 q 783 199 776 197 q 792 214 790 200 l 904 1018 q 909 1028 907 1026 q 918 1031 911 1031 l 983 1031 m 858 1240 q 816 1222 842 1231 q 754 1214 790 1214 q 691 1223 717 1214 q 643 1240 665 1232 q 590 1249 621 1249 q 541 1236 558 1249 q 504 1217 524 1224 q 492 1218 496 1215 q 486 1229 489 1221 l 478 1260 q 476 1271 476 1267 q 481 1278 475 1275 q 528 1303 504 1293 q 585 1313 553 1313 q 647 1304 619 1313 q 700 1286 674 1296 q 756 1276 726 1276 q 787 1281 774 1276 q 811 1292 800 1286 q 836 1304 822 1299 q 851 1305 846 1308 q 858 1293 857 1301 l 865 1258 q 867 1248 867 1253 q 858 1240 867 1243 l 858 1240 z "},"Ó":{"ha":1058,"x_min":110,"x_max":989,"o":"m 479 -14 q 278 32 361 -14 q 153 168 196 78 q 110 386 110 258 q 112 449 110 417 q 119 515 114 482 q 211 804 143 686 q 384 983 279 922 q 621 1044 489 1044 q 819 997 738 1044 q 945 859 901 950 q 989 636 989 768 q 987 574 989 607 q 979 508 985 542 q 888 223 956 339 q 717 47 821 107 q 479 -14 613 -14 l 479 -14 m 485 71 q 743 181 646 71 q 872 517 840 290 q 880 589 878 554 q 882 654 882 624 q 815 885 882 810 q 618 961 749 961 q 359 849 458 961 q 226 507 260 736 q 219 439 221 472 q 217 376 217 406 q 285 146 217 221 q 485 71 353 71 l 485 71 m 835 1274 q 835 1262 838 1267 q 824 1254 833 1257 l 492 1153 q 479 1153 485 1150 q 474 1164 474 1157 l 467 1190 q 472 1206 465 1204 l 810 1338 q 819 1337 814 1339 q 824 1329 824 1335 l 835 1274 z "},"Ŏ":{"ha":1058,"x_min":110,"x_max":989,"o":"m 479 -14 q 278 32 361 -14 q 153 168 196 78 q 110 386 110 258 q 112 449 110 417 q 119 515 114 482 q 211 804 143 686 q 384 983 279 922 q 621 1044 489 1044 q 819 997 738 1044 q 945 859 901 950 q 989 636 989 768 q 987 574 989 607 q 979 508 985 542 q 888 223 956 339 q 717 47 821 107 q 479 -14 613 -14 l 479 -14 m 485 71 q 743 181 646 71 q 872 517 840 290 q 880 589 878 554 q 882 654 882 624 q 815 885 882 810 q 618 961 749 961 q 359 849 458 961 q 226 507 260 736 q 219 439 221 472 q 217 376 217 406 q 285 146 217 221 q 485 71 353 71 l 485 71 m 835 1324 q 847 1319 844 1324 q 846 1304 850 1314 q 804 1249 833 1278 q 733 1202 775 1221 q 635 1183 690 1183 q 541 1201 579 1183 q 482 1249 503 1219 q 460 1311 461 1278 q 463 1319 460 1315 q 472 1324 465 1324 l 531 1324 q 540 1319 538 1324 q 549 1308 543 1315 q 565 1285 556 1300 q 592 1261 575 1271 q 642 1251 610 1251 q 717 1274 688 1251 q 764 1317 746 1296 q 773 1323 769 1322 q 782 1324 776 1324 l 835 1324 l 835 1324 z "},"Ô":{"ha":1058,"x_min":110,"x_max":989,"o":"m 479 -14 q 278 32 361 -14 q 153 168 196 78 q 110 386 110 258 q 112 449 110 417 q 119 515 114 482 q 211 804 143 686 q 384 983 279 922 q 621 1044 489 1044 q 819 997 738 1044 q 945 859 901 950 q 989 636 989 768 q 987 574 989 607 q 979 508 985 542 q 888 223 956 339 q 717 47 821 107 q 479 -14 613 -14 l 479 -14 m 485 71 q 743 181 646 71 q 872 517 840 290 q 880 589 878 554 q 882 654 882 624 q 815 885 882 810 q 618 961 749 961 q 359 849 458 961 q 226 507 260 736 q 219 439 221 472 q 217 376 217 406 q 285 146 217 221 q 485 71 353 71 l 485 71 m 665 1257 q 653 1265 656 1267 q 638 1256 650 1264 l 544 1186 q 531 1179 535 1181 q 519 1178 526 1178 l 453 1178 q 443 1183 444 1178 q 450 1194 442 1189 l 607 1315 q 622 1325 614 1322 q 640 1328 629 1328 l 682 1328 q 697 1322 692 1328 q 706 1313 701 1317 l 828 1192 q 834 1181 835 1185 q 825 1178 833 1178 l 756 1178 q 744 1181 749 1178 q 733 1189 739 1185 l 665 1257 z "},"Ố":{"ha":1058,"x_min":110,"x_max":989,"o":"m 479 -14 q 278 32 361 -14 q 153 168 196 78 q 110 386 110 258 q 112 449 110 417 q 119 515 114 482 q 211 804 143 686 q 384 983 279 922 q 621 1044 489 1044 q 819 997 738 1044 q 945 859 901 950 q 989 636 989 768 q 987 574 989 607 q 979 508 985 542 q 888 223 956 339 q 717 47 821 107 q 479 -14 613 -14 l 479 -14 m 485 71 q 743 181 646 71 q 872 517 840 290 q 880 589 878 554 q 882 654 882 624 q 815 885 882 810 q 618 961 749 961 q 359 849 458 961 q 226 507 260 736 q 219 439 221 472 q 217 376 217 406 q 285 146 217 221 q 485 71 353 71 l 485 71 m 665 1257 q 653 1265 656 1267 q 638 1256 650 1264 l 544 1186 q 531 1179 535 1181 q 519 1178 526 1178 l 453 1178 q 443 1183 444 1178 q 450 1194 442 1189 l 607 1315 q 622 1325 614 1322 q 640 1328 629 1328 l 682 1328 q 697 1322 692 1328 q 706 1313 701 1317 l 828 1192 q 834 1181 835 1185 q 825 1178 833 1178 l 756 1178 q 744 1181 749 1178 q 733 1189 739 1185 l 665 1257 m 849 1474 q 849 1462 851 1467 q 838 1454 847 1457 l 506 1353 q 493 1353 499 1350 q 488 1364 488 1357 l 481 1390 q 486 1406 479 1404 l 824 1538 q 833 1537 828 1539 q 838 1529 838 1535 l 849 1474 z "},"Ộ":{"ha":1058,"x_min":110,"x_max":989,"o":"m 479 -14 q 278 32 361 -14 q 153 168 196 78 q 110 386 110 258 q 112 449 110 417 q 119 515 114 482 q 211 804 143 686 q 384 983 279 922 q 621 1044 489 1044 q 819 997 738 1044 q 945 859 901 950 q 989 636 989 768 q 987 574 989 607 q 979 508 985 542 q 888 223 956 339 q 717 47 821 107 q 479 -14 613 -14 l 479 -14 m 485 71 q 743 181 646 71 q 872 517 840 290 q 880 589 878 554 q 882 654 882 624 q 815 885 882 810 q 618 961 749 961 q 359 849 458 961 q 226 507 260 736 q 219 439 221 472 q 217 376 217 406 q 285 146 217 221 q 485 71 353 71 l 485 71 m 497 -212 q 493 -226 496 -224 q 479 -229 490 -229 l 421 -229 q 407 -224 411 -229 q 404 -211 403 -219 l 421 -94 q 424 -83 422 -85 q 433 -81 426 -81 l 500 -81 q 512 -85 508 -81 q 513 -99 515 -90 l 497 -212 m 665 1257 q 653 1265 656 1267 q 638 1256 650 1264 l 544 1186 q 531 1179 535 1181 q 519 1178 526 1178 l 453 1178 q 443 1183 444 1178 q 450 1194 442 1189 l 607 1315 q 622 1325 614 1322 q 640 1328 629 1328 l 682 1328 q 697 1322 692 1328 q 706 1313 701 1317 l 828 1192 q 834 1181 835 1185 q 825 1178 833 1178 l 756 1178 q 744 1181 749 1178 q 733 1189 739 1185 l 665 1257 z "},"Ồ":{"ha":1058,"x_min":110,"x_max":989,"o":"m 479 -14 q 278 32 361 -14 q 153 168 196 78 q 110 386 110 258 q 112 449 110 417 q 119 515 114 482 q 211 804 143 686 q 384 983 279 922 q 621 1044 489 1044 q 819 997 738 1044 q 945 859 901 950 q 989 636 989 768 q 987 574 989 607 q 979 508 985 542 q 888 223 956 339 q 717 47 821 107 q 479 -14 613 -14 l 479 -14 m 485 71 q 743 181 646 71 q 872 517 840 290 q 880 589 878 554 q 882 654 882 624 q 815 885 882 810 q 618 961 749 961 q 359 849 458 961 q 226 507 260 736 q 219 439 221 472 q 217 376 217 406 q 285 146 217 221 q 485 71 353 71 l 485 71 m 665 1257 q 653 1265 656 1267 q 638 1256 650 1264 l 544 1186 q 531 1179 535 1181 q 519 1178 526 1178 l 453 1178 q 443 1183 444 1178 q 450 1194 442 1189 l 607 1315 q 622 1325 614 1322 q 640 1328 629 1328 l 682 1328 q 697 1322 692 1328 q 706 1313 701 1317 l 828 1192 q 834 1181 835 1185 q 825 1178 833 1178 l 756 1178 q 744 1181 749 1178 q 733 1189 739 1185 l 665 1257 m 496 1531 q 501 1535 497 1535 q 508 1535 506 1536 l 810 1406 q 817 1398 815 1403 q 817 1388 819 1393 l 801 1358 q 797 1352 800 1353 q 783 1353 793 1351 l 482 1453 q 469 1461 471 1456 q 469 1474 467 1467 l 496 1531 l 496 1531 z "},"Ổ":{"ha":1058,"x_min":110,"x_max":989,"o":"m 479 -14 q 278 32 361 -14 q 153 168 196 78 q 110 386 110 258 q 112 449 110 417 q 119 515 114 482 q 211 804 143 686 q 384 983 279 922 q 621 1044 489 1044 q 819 997 738 1044 q 945 859 901 950 q 989 636 989 768 q 987 574 989 607 q 979 508 985 542 q 888 223 956 339 q 717 47 821 107 q 479 -14 613 -14 l 479 -14 m 485 71 q 743 181 646 71 q 872 517 840 290 q 880 589 878 554 q 882 654 882 624 q 815 885 882 810 q 618 961 749 961 q 359 849 458 961 q 226 507 260 736 q 219 439 221 472 q 217 376 217 406 q 285 146 217 221 q 485 71 353 71 l 485 71 m 665 1257 q 653 1265 656 1267 q 638 1256 650 1264 l 544 1186 q 531 1179 535 1181 q 519 1178 526 1178 l 453 1178 q 443 1183 444 1178 q 450 1194 442 1189 l 607 1315 q 622 1325 614 1322 q 640 1328 629 1328 l 682 1328 q 697 1322 692 1328 q 706 1313 701 1317 l 828 1192 q 834 1181 835 1185 q 825 1178 833 1178 l 756 1178 q 744 1181 749 1178 q 733 1189 739 1185 l 665 1257 m 747 1461 q 742 1450 740 1457 l 757 1408 q 765 1404 760 1403 q 844 1433 807 1433 q 876 1424 864 1433 q 885 1392 889 1414 q 861 1354 882 1374 q 811 1307 840 1335 q 807 1301 808 1306 q 807 1294 806 1297 l 828 1264 q 840 1261 832 1256 q 908 1329 879 1299 q 943 1396 938 1360 q 924 1467 950 1440 q 849 1493 897 1493 q 799 1484 826 1493 q 747 1461 771 1475 l 747 1461 z "},"Ỗ":{"ha":1058,"x_min":110,"x_max":989,"o":"m 479 -14 q 278 32 361 -14 q 153 168 196 78 q 110 386 110 258 q 112 449 110 417 q 119 515 114 482 q 211 804 143 686 q 384 983 279 922 q 621 1044 489 1044 q 819 997 738 1044 q 945 859 901 950 q 989 636 989 768 q 987 574 989 607 q 979 508 985 542 q 888 223 956 339 q 717 47 821 107 q 479 -14 613 -14 l 479 -14 m 485 71 q 743 181 646 71 q 872 517 840 290 q 880 589 878 554 q 882 654 882 624 q 815 885 882 810 q 618 961 749 961 q 359 849 458 961 q 226 507 260 736 q 219 439 221 472 q 217 376 217 406 q 285 146 217 221 q 485 71 353 71 l 485 71 m 665 1257 q 653 1265 656 1267 q 638 1256 650 1264 l 544 1186 q 531 1179 535 1181 q 519 1178 526 1178 l 453 1178 q 443 1183 444 1178 q 450 1194 442 1189 l 607 1315 q 622 1325 614 1322 q 640 1328 629 1328 l 682 1328 q 697 1322 692 1328 q 706 1313 701 1317 l 828 1192 q 834 1181 835 1185 q 825 1178 833 1178 l 756 1178 q 744 1181 749 1178 q 733 1189 739 1185 l 665 1257 m 865 1440 q 823 1422 849 1431 q 761 1414 797 1414 q 698 1423 724 1414 q 650 1440 672 1432 q 597 1449 628 1449 q 548 1436 565 1449 q 511 1417 531 1424 q 499 1418 503 1415 q 493 1429 496 1421 l 485 1460 q 483 1471 483 1467 q 488 1478 482 1475 q 535 1503 511 1493 q 592 1513 560 1513 q 653 1504 626 1513 q 707 1486 681 1496 q 763 1476 733 1476 q 794 1481 781 1476 q 818 1492 807 1486 q 843 1504 829 1499 q 858 1505 853 1508 q 865 1493 864 1501 l 872 1458 q 874 1448 874 1453 q 865 1440 874 1443 l 865 1440 z "},"Ȍ":{"ha":1058,"x_min":110,"x_max":989,"o":"m 479 -14 q 278 32 361 -14 q 153 168 196 78 q 110 386 110 258 q 112 449 110 417 q 119 515 114 482 q 211 804 143 686 q 384 983 279 922 q 621 1044 489 1044 q 819 997 738 1044 q 945 859 901 950 q 989 636 989 768 q 987 574 989 607 q 979 508 985 542 q 888 223 956 339 q 717 47 821 107 q 479 -14 613 -14 l 479 -14 m 485 71 q 743 181 646 71 q 872 517 840 290 q 880 589 878 554 q 882 654 882 624 q 815 885 882 810 q 618 961 749 961 q 359 849 458 961 q 226 507 260 736 q 219 439 221 472 q 217 376 217 406 q 285 146 217 221 q 485 71 353 71 l 485 71 m 421 1333 q 431 1336 425 1338 q 439 1331 438 1335 l 581 1147 q 585 1140 583 1144 q 582 1131 586 1136 l 560 1107 q 550 1103 556 1101 q 539 1110 544 1106 l 385 1268 q 381 1292 369 1281 l 421 1333 l 421 1333 m 633 1333 q 644 1336 638 1338 q 651 1331 650 1335 l 793 1147 q 797 1140 796 1144 q 794 1131 797 1135 l 772 1107 q 762 1103 767 1101 q 751 1110 757 1106 l 597 1268 q 592 1293 582 1282 l 633 1333 l 633 1333 z "},"Ö":{"ha":1058,"x_min":110,"x_max":989,"o":"m 479 -14 q 278 32 361 -14 q 153 168 196 78 q 110 386 110 258 q 112 449 110 417 q 119 515 114 482 q 211 804 143 686 q 384 983 279 922 q 621 1044 489 1044 q 819 997 738 1044 q 945 859 901 950 q 989 636 989 768 q 987 574 989 607 q 979 508 985 542 q 888 223 956 339 q 717 47 821 107 q 479 -14 613 -14 l 479 -14 m 485 71 q 743 181 646 71 q 872 517 840 290 q 880 589 878 554 q 882 654 882 624 q 815 885 882 810 q 618 961 749 961 q 359 849 458 961 q 226 507 260 736 q 219 439 221 472 q 217 376 217 406 q 285 146 217 221 q 485 71 353 71 l 485 71 m 601 1196 q 597 1182 600 1185 q 581 1179 593 1179 l 522 1179 q 508 1184 511 1179 q 506 1197 504 1189 l 521 1311 q 525 1323 522 1321 q 535 1325 528 1325 l 603 1325 q 615 1320 611 1325 q 617 1307 619 1315 l 601 1196 m 785 1196 q 780 1182 783 1185 q 764 1179 776 1179 l 706 1179 q 691 1184 694 1179 q 689 1197 688 1189 l 704 1311 q 708 1323 706 1321 q 718 1325 711 1325 l 786 1325 q 799 1320 794 1325 q 800 1307 803 1315 l 785 1196 z "},"Ọ":{"ha":1058,"x_min":110,"x_max":989,"o":"m 479 -14 q 278 32 361 -14 q 153 168 196 78 q 110 386 110 258 q 112 449 110 417 q 119 515 114 482 q 211 804 143 686 q 384 983 279 922 q 621 1044 489 1044 q 819 997 738 1044 q 945 859 901 950 q 989 636 989 768 q 987 574 989 607 q 979 508 985 542 q 888 223 956 339 q 717 47 821 107 q 479 -14 613 -14 l 479 -14 m 485 71 q 743 181 646 71 q 872 517 840 290 q 880 589 878 554 q 882 654 882 624 q 815 885 882 810 q 618 961 749 961 q 359 849 458 961 q 226 507 260 736 q 219 439 221 472 q 217 376 217 406 q 285 146 217 221 q 485 71 353 71 l 485 71 m 497 -212 q 493 -226 496 -224 q 479 -229 490 -229 l 421 -229 q 407 -224 411 -229 q 404 -211 403 -219 l 421 -94 q 424 -83 422 -85 q 433 -81 426 -81 l 500 -81 q 512 -85 508 -81 q 513 -99 515 -90 l 497 -212 z "},"Ò":{"ha":1058,"x_min":110,"x_max":989,"o":"m 479 -14 q 278 32 361 -14 q 153 168 196 78 q 110 386 110 258 q 112 449 110 417 q 119 515 114 482 q 211 804 143 686 q 384 983 279 922 q 621 1044 489 1044 q 819 997 738 1044 q 945 859 901 950 q 989 636 989 768 q 987 574 989 607 q 979 508 985 542 q 888 223 956 339 q 717 47 821 107 q 479 -14 613 -14 l 479 -14 m 485 71 q 743 181 646 71 q 872 517 840 290 q 880 589 878 554 q 882 654 882 624 q 815 885 882 810 q 618 961 749 961 q 359 849 458 961 q 226 507 260 736 q 219 439 221 472 q 217 376 217 406 q 285 146 217 221 q 485 71 353 71 l 485 71 m 483 1331 q 489 1335 485 1335 q 496 1335 493 1336 l 797 1206 q 805 1198 803 1203 q 804 1188 807 1193 l 789 1158 q 784 1152 788 1153 q 771 1153 781 1151 l 469 1253 q 456 1261 458 1256 q 457 1274 454 1267 l 483 1331 l 483 1331 z "},"Ỏ":{"ha":1058,"x_min":110,"x_max":989,"o":"m 479 -14 q 278 32 361 -14 q 153 168 196 78 q 110 386 110 258 q 112 449 110 417 q 119 515 114 482 q 211 804 143 686 q 384 983 279 922 q 621 1044 489 1044 q 819 997 738 1044 q 945 859 901 950 q 989 636 989 768 q 987 574 989 607 q 979 508 985 542 q 888 223 956 339 q 717 47 821 107 q 479 -14 613 -14 l 479 -14 m 485 71 q 743 181 646 71 q 872 517 840 290 q 880 589 878 554 q 882 654 882 624 q 815 885 882 810 q 618 961 749 961 q 359 849 458 961 q 226 507 260 736 q 219 439 221 472 q 217 376 217 406 q 285 146 217 221 q 485 71 353 71 l 485 71 m 544 1324 q 539 1313 538 1319 l 554 1271 q 563 1267 557 1265 q 642 1296 604 1296 q 674 1286 661 1296 q 682 1254 686 1276 q 658 1217 679 1236 q 608 1169 638 1197 q 604 1164 606 1168 q 604 1157 603 1160 l 625 1126 q 638 1124 629 1118 q 706 1192 676 1161 q 740 1258 735 1222 q 721 1329 747 1303 q 646 1356 694 1356 q 596 1347 624 1356 q 544 1324 568 1338 l 544 1324 z "},"Ơ":{"ha":1058,"x_min":110,"x_max":989,"o":"m 479 -14 q 278 32 361 -14 q 153 168 196 78 q 110 386 110 258 q 112 449 110 417 q 119 515 114 482 q 211 804 143 686 q 384 983 279 922 q 621 1044 489 1044 q 819 997 738 1044 q 945 859 901 950 q 989 636 989 768 q 987 574 989 607 q 979 508 985 542 q 888 223 956 339 q 717 47 821 107 q 479 -14 613 -14 l 479 -14 m 485 71 q 743 181 646 71 q 872 517 840 290 q 880 589 878 554 q 882 654 882 624 q 815 885 882 810 q 618 961 749 961 q 359 849 458 961 q 226 507 260 736 q 219 439 221 472 q 217 376 217 406 q 285 146 217 221 q 485 71 353 71 l 485 71 m 908 1115 q 921 1110 918 1115 q 919 1094 924 1104 q 885 1035 910 1065 q 822 984 861 1004 q 726 964 783 964 l 733 1032 q 803 1057 781 1032 q 838 1107 826 1082 q 846 1115 842 1114 q 856 1115 850 1115 l 908 1115 l 908 1115 z "}}}
